<?xml version="1.0" encoding="utf-8"?>
<!-- Generator: Adobe Illustrator 21.0.0, SVG Export Plug-In . SVG Version: 6.00 Build 0)  -->
<svg version="1.1" id="Layer_1" xmlns="http://www.w3.org/2000/svg" xmlns:xlink="http://www.w3.org/1999/xlink" x="0px" y="0px"
	 viewBox="0 0 300.7 300.7" style="enable-background:new 0 0 300.7 300.7;" xml:space="preserve">
<g>
	<path d="M106.8,53.2c6.8-11.6,10.9-24.2,10.7-38.3c-0.1-5.9,3.4-9.3,8.1-11.9c2,0,4.1,0,6.1,0c10,5.6,19.7,11.3,26.8,20.7
		c15,19.8,20.3,42.1,17.8,66.5c-0.4,3.6-1.1,7.2-1.6,10.9c0.4,0.3,0.9,0.7,1.3,1c7.9-6.9,15.8-13.8,23.7-20.7c1.7-1.5,3-3.3,4.6-4.8
		c5.4-5.1,13.8-4.4,17,2.3c11.4,24.2,15.5,49.2,5.1,74.7c-7,17.4-21.3,26-39.4,28.7c-4.2,0.6-8.4,0.8-13.3,1.3
		c-1.2-25.2-10.1-47.3-23.5-69c-13.3,21.6-22.2,43.5-23.6,68.7c-13.4,0.2-25.7-2.9-36.5-10.6C66.8,155.9,61.8,121.8,77.2,95"/>
</g>
<rect x="45.9" y="224.8" transform="matrix(0.9522 -0.3056 0.3056 0.9522 -68.2349 57.7526)" width="208.9" height="44"/>
<rect x="45.9" y="224.8" transform="matrix(-0.9522 -0.3056 0.3056 -0.9522 218.0806 527.7888)" width="208.9" height="44"/>
</svg>
