<?xml version="1.0" encoding="utf-8"?>
<!-- Generator: Adobe Illustrator 21.0.0, SVG Export Plug-In . SVG Version: 6.00 Build 0)  -->
<svg version="1.1"
	 id="Слой_1" xmlns:krita="http://krita.org/namespaces/svg/krita" xmlns:sodipodi="http://sodipodi.sourceforge.net/DTD/sodipodi-0.dtd"
	 xmlns="http://www.w3.org/2000/svg" xmlns:xlink="http://www.w3.org/1999/xlink" x="0px" y="0px" viewBox="0 0 272.2 272.2"
	 style="enable-background:new 0 0 272.2 272.2;" xml:space="preserve">
<path d="M233.9,136.6c0,28.5-0.2,57,0.1,85.4c0.1,6.5-2,10.7-7.2,14.7c-12.6,9.8-24.8,20.2-36.8,30.7c-3.8,3.3-7.5,4.7-12.5,4.7
	c-27.3-0.2-54.6-0.2-81.9,0c-5.3,0-9.7-0.9-13.9-4.6C69.5,256.6,57,246,44.3,235.7c-4.3-3.5-6.2-7.1-6.2-12.8
	c0.2-57.4,0.2-114.7,0.1-172.1c0-5.9,1.3-10.4,6-14.3C57,25.7,69.5,14.5,82.5,4c3-2.4,7.7-3.6,11.7-3.6C122.3,0,150.4,0.3,178.5,0
	c4.7,0,8.1,1.3,11.5,4.3C202.4,15,214.8,25.7,227.6,36c4.8,3.8,6.5,8,6.4,14C233.8,78.9,233.9,107.7,233.9,136.6z M226.4,136
	C226.4,136,226.4,136,226.4,136c0-27.3-0.3-54.6,0.2-82c0.1-7.4-2.1-12.4-7.9-16.9c-9.5-7.4-18.6-15.5-27.7-23.4
	c-5.3-4.6-11-6.4-18.1-6.3c-24.6,0.4-49.2,0.3-73.8,0.1c-6.6-0.1-11.9,1.2-17,5.7C72,22.3,61.4,30.9,50.7,39.4
	c-4,3.2-5.4,6.9-5.4,12.1c0.2,56.2,0.2,112.4,0.1,168.6c0,5.1,1.3,9.1,5.2,12.4c10.8,9,21.5,18.1,32.2,27.1c4.1,3.4,8.6,4.6,14,4.5
	c26.5-0.2,53.1,0.2,79.6-0.1c4.3-0.1,9.3-1.6,12.7-4.2c9.9-7.5,19.1-16,28.8-23.8c6.3-5,8.8-10.9,8.6-19.2
	C226.1,189.8,226.4,162.9,226.4,136z"/>
<path d="M226.4,136c0,26.9-0.3,53.9,0.2,80.8c0.2,8.3-2.4,14.1-8.6,19.2c-9.7,7.8-18.9,16.3-28.8,23.8c-3.4,2.6-8.4,4.2-12.7,4.2
	c-26.5,0.3-53.1-0.1-79.6,0.1c-5.4,0-9.9-1.1-14-4.5c-10.7-9.1-21.5-18.1-32.2-27.1c-3.9-3.3-5.2-7.3-5.2-12.4
	c0.1-56.2,0.1-112.4-0.1-168.6c0-5.2,1.4-8.8,5.4-12.1C61.4,30.9,72,22.3,82.2,13.2c5.1-4.6,10.5-5.8,17-5.7
	c24.6,0.3,49.2,0.3,73.8-0.1c7.1-0.1,12.9,1.7,18.1,6.3c9.1,8,18.1,16,27.7,23.4c5.8,4.5,8,9.5,7.9,16.9
	C226.1,81.3,226.4,108.7,226.4,136C226.4,136,226.4,136,226.4,136z M105.3,135.7C105.3,135.7,105.3,135.7,105.3,135.7
	c0,24.2-0.1,48.4,0,72.5c0,10.8,2.8,14,13.5,14.4c10.1,0.3,20.3,0.1,30.4,0.1c15.7-0.1,17.7-2,17.7-17.3c0-38.6,0-77.2,0-115.8
	c0-8.6,0.1-17.2,0-25.7c-0.1-11.7-1.1-13-12.4-13.2c-11.7-0.3-23.4,0-35.1,0c-13.1,0-14.1,1.1-14.2,13.8
	C105.3,88.2,105.3,112,105.3,135.7z"/>
<path d="M105.3,135.7c0-23.8,0-47.6,0-71.4c0-12.7,1.1-13.8,14.2-13.8c11.7,0,23.4-0.2,35.1,0c11.3,0.2,12.3,1.5,12.4,13.2
	c0,8.6,0,17.2,0,25.7c0,38.6,0,77.2,0,115.8c0,15.3-2,17.3-17.7,17.3c-10.1,0-20.3,0.2-30.4-0.1c-10.7-0.4-13.5-3.5-13.5-14.4
	C105.3,184.1,105.3,159.9,105.3,135.7C105.3,135.7,105.3,135.7,105.3,135.7z M115,58.7c-2.3,15.9-1.6,146,0.8,154.8
	c13.2,0,26.7,0,39.9,0C158.9,203,159,70,155.9,58.7C142.5,58.7,129.1,58.7,115,58.7z"/>
</svg>
