<?xml version="1.0" encoding="utf-8"?>
<!-- Generator: Adobe Illustrator 21.0.0, SVG Export Plug-In . SVG Version: 6.00 Build 0)  -->
<svg version="1.1"
	 id="Слой_1" xmlns:krita="http://krita.org/namespaces/svg/krita" xmlns:sodipodi="http://sodipodi.sourceforge.net/DTD/sodipodi-0.dtd"
	 xmlns="http://www.w3.org/2000/svg" xmlns:xlink="http://www.w3.org/1999/xlink" x="0px" y="0px" viewBox="0 0 272.2 272.2"
	 style="enable-background:new 0 0 272.2 272.2;" xml:space="preserve">
<style type="text/css">
	.st0{fill:none;stroke:#000000;stroke-width:0.5;stroke-linecap:round;stroke-linejoin:round;}
	.st1{stroke:#000000;stroke-width:0.5;stroke-linecap:round;stroke-linejoin:round;}
</style>
<g id="XMLID_2_">
	<g>
		<path d="M94.8,166.8l0.8-0.8C85.2,110,77.2,55.5,68.5,1C45.4,1,23.3,1,0,1c1.6,11.5,3,21.8,4.6,32.2c6.1,41.3,12.3,82.7,18.5,124
			c1.6,10.8,3.2,21.5,5,32.3c3.9,23.5,8.1,46.9,11.8,70.4c1.8,11.4,2.1,12.2,13.9,12.2c9.3,0,18.7,0,28,0l0.3-0.3
			c-3.6,0.1-7.1,0.1-10.7,0.2l-5.4-6.9c0.6,0,1.2,0,1.9,0c-3.8,0-7.5,0-11.3,0c-2.3,0-4.5-0.5-8.4-1C34.8,178.7,21.5,94.4,8.1,8.6
			c4.6-0.3,7.9-0.8,11.2-0.8c10.9-0.1,21.9,0.4,32.9-0.2c6.9-0.4,10.2,2.2,11.2,8.7c2.2,13.5,4.6,27,6.8,40.5
			c4,24.3,8,48.5,11.7,72.9c2.2,14.2,3.7,28.5,5.9,42.7c0.4,2.9,2,5.9,3.9,8.1c4.1,4.6,9.4,3.7,12.2-1.9c0.2-0.4,0.4-0.8,0.5-1.2
			L94.8,166.8z"/>
		<path d="M66,265.1l5.4,6.9c3.5-0.1,7.1-0.2,10.7-0.2l6.1-6.7c-6.8,0-13.5-0.1-20.3-0.1C67.2,265.1,66.6,265.1,66,265.1z"/>
		<path d="M88.6,264.6c-6.9,0.1-13.8,0.3-20.8,0.5c6.8,0,13.5,0.1,20.3,0.1h0L88.6,264.6z"/>
		<path d="M88.1,265.1l-6.1,6.7c8.2-0.1,16.4-0.2,24.5-0.3v-0.4c0.3-2,0.6-3.9,0.9-5.9C101,265.2,94.6,265.1,88.1,265.1L88.1,265.1z
			"/>
		<path d="M88.6,264.6l-0.5,0.5c6.5,0,12.9,0,19.4,0c0.1-0.3,0.1-0.7,0.2-1C101.3,264.3,95,264.4,88.6,264.6z"/>
		<path d="M94.8,166.8l9.6,10.5c0.3-0.9,0.5-1.8,0.7-2.8c-1.3-8.4-2.6-16.7-3.9-25.1c-0.7,4.2-1.4,8.3-2.1,12.5
			c-0.2,0.8-1.2,1.5-3.4,4.1L94.8,166.8z"/>
		<path d="M101.2,149.4C101.2,149.4,101.2,149.4,101.2,149.4c1.3,8.4,2.6,16.8,3.9,25.1c0.1-0.6,0.2-1.1,0.3-1.6
			c1.1-7.4,2.2-14.8,3.2-22.2c-1.3-7.7-2.6-15.4-3.9-23.2C103.6,134.8,102.4,142.1,101.2,149.4z"/>
		<path d="M104.8,127.6L104.8,127.6c1.3,7.7,2.6,15.4,3.9,23.2c1.7-11.9,3.4-23.8,5.4-35.6c0.3-2,0.7-4.1,1-6.1
			c-2.4,0-4.8-0.1-7.1-0.1C106.8,115.1,105.8,121.3,104.8,127.6z"/>
		<path d="M107.5,265.2c-0.3,2-0.6,4-0.9,5.9l5-2.5l-0.2-3.4C110.1,265.2,108.8,265.2,107.5,265.2z"/>
		<path d="M107.7,264.2c-0.1,0.3-0.1,0.7-0.2,1c1.3,0,2.6,0,3.9,0l0-1.1C110.1,264.1,108.9,264.1,107.7,264.2z"/>
		<path d="M107.7,264.2c1.2,0,2.5-0.1,3.7-0.1l-0.1-2.3c1.5,0,3,0.1,4.5,0.1c0.5-3.2,1-6.5,1.6-9.7c-0.8-5.4-1.7-10.8-2.5-16.2
			l-3.3,3.6C110.2,247.7,108.9,255.9,107.7,264.2z"/>
		<path d="M109.1,101.3c-0.4,2.5-0.8,5.1-1.3,7.6c2.4,0,4.8,0.1,7.1,0.1c0.4-2.6,0.8-5.1,1.3-7.7
			C113.9,101.3,111.5,101.3,109.1,101.3z"/>
		<path d="M111.2,261.7l0.1,2.3c1.3,0,2.7-0.1,4-0.1c0.1-0.7,0.2-1.4,0.3-2.1C114.2,261.8,112.7,261.8,111.2,261.7z"/>
		<path d="M111.4,264.1l0,1.1c1.3,0,2.5,0,3.8,0c0.1-0.4,0.1-0.8,0.2-1.2C114.1,264,112.7,264,111.4,264.1z"/>
		<path d="M111.4,265.2l0.2,3.4l3.4-1.7c0.1-0.6,0.2-1.1,0.3-1.7C113.9,265.2,112.7,265.2,111.4,265.2z"/>
		<path d="M111.5,239.5l3.3-3.6c-0.5-2.9-0.9-5.8-1.4-8.7C112.7,231.3,112.1,235.4,111.5,239.5z"/>
		<path d="M113.7,225.3c-0.1,0.6-0.2,1.3-0.3,1.9c0.4,2.9,0.9,5.8,1.4,8.7l6.4-7c-0.2-1.2-0.3-2.5-0.5-3.7
			C118.3,225.3,116,225.3,113.7,225.3z"/>
		<path d="M114.9,217.5c-0.4,2.6-0.8,5.2-1.2,7.8c2.3,0,4.6-0.1,6.9-0.1c-0.4-2.6-0.8-5.2-1.1-7.8
			C117.9,217.4,116.4,217.5,114.9,217.5z"/>
		<path d="M121.1,229l-6.4,7c0.8,5.4,1.7,10.8,2.5,16.2C118.5,244.4,119.8,236.7,121.1,229C121.1,229,121.1,229,121.1,229z"/>
		<path d="M116.3,101.3c-0.4,2.6-0.8,5.1-1.3,7.7c13,0.2,26.1,0.6,39.1,0.8c1.1,0,2.2,0,3.3,0c-0.5-2.8-0.9-5.5-1.4-8.3
			C142.8,101.4,129.5,101.4,116.3,101.3z"/>
		<path d="M123.1,217.3c-1.2,0-2.4,0.1-3.7,0.1c0.4,2.6,0.8,5.2,1.1,7.8c0.4,0,0.8,0,1.2,0C122.2,222.6,122.7,220,123.1,217.3z"/>
		<path d="M121.8,225.2c-0.4,0-0.8,0-1.2,0c0.2,1.2,0.3,2.5,0.5,3.7l0,0C121.3,227.7,121.6,226.5,121.8,225.2z"/>
		<path d="M121.1,229C121.1,229,121.1,229,121.1,229C121.1,229,121.1,229,121.1,229L121.1,229z"/>
		<path d="M123.1,217.3c-0.4,2.6-0.9,5.3-1.3,7.9c0.9,0,1.8,0,2.8,0l7.4-8.1C129,217.2,126,217.3,123.1,217.3z"/>
		<path d="M131.9,217.1l-7.4,8.1c7.8-0.1,15.6-0.1,23.4-0.2l-7.4-8.1C137.7,217,134.8,217.1,131.9,217.1z"/>
		<path d="M140.5,216.9l7.4,8.1c1.3,0,2.5,0,3.8,0c0.3-1.7,0.5-3.4,0.8-5.2c-0.2-1-0.4-2.1-0.5-3.1
			C148.1,216.8,144.3,216.8,140.5,216.9z"/>
		<path d="M151.7,224.9c0.5,0,1.1,0,1.6,0c-0.3-1.7-0.6-3.4-0.9-5.1C152.2,221.5,151.9,223.2,151.7,224.9z"/>
		<path d="M151.9,216.7c0.2,1,0.3,2.1,0.5,3.1c0.2-1.1,0.3-2.1,0.5-3.1C152.6,216.7,152.3,216.7,151.9,216.7z"/>
		<path d="M152.9,216.6c-0.2,1.1-0.3,2.1-0.5,3.1c0.3,1.7,0.6,3.4,0.9,5.1c1.6,0,3.2,0,4.9-0.1c0.4,0,0.7,0,1.1,0
			c0.4-2.3,0.7-4.6,1.1-6.8c-0.1-0.5-0.2-1-0.2-1.5C157.7,216.5,155.3,216.6,152.9,216.6z"/>
		<path d="M158.2,224.9c-1.6,0-3.2,0-4.9,0.1c0.4,2.5,0.8,4.9,1.2,7.4l3,3.3c0.6-3.6,1.1-7.2,1.7-10.7
			C158.9,224.9,158.5,224.9,158.2,224.9z"/>
		<path d="M157.6,235.6l-3-3.3c0.6,3.6,1.2,7.2,1.8,10.9C156.8,240.6,157.2,238.1,157.6,235.6z"/>
		<path d="M156,101.5c0.5,2.8,0.9,5.6,1.4,8.3c2.4,0,4.8,0.1,7.2,0.1c-0.5-2.8-0.9-5.6-1.4-8.3C160.8,101.5,158.4,101.5,156,101.5z"
			/>
		<path d="M157.6,235.6c-0.4,2.5-0.8,5-1.2,7.6c1.1,6.5,2.2,13.1,3.2,19.7c1.6,0,3.2,0.1,4.7,0.1c1,0,2,0,3-0.1
			c-1-6.7-2.1-13.4-3.1-20L157.6,235.6z"/>
		<path d="M157.4,109.8c0.3,1.6,0.5,3.2,0.8,4.8c2,12,3.7,24.1,5.5,36.1c1.3-7.7,2.6-15.4,3.9-23.2c-1-5.9-1.9-11.8-2.9-17.7
			C162.2,109.8,159.8,109.8,157.4,109.8z"/>
		<path d="M159.2,224.8c-0.6,3.6-1.1,7.2-1.7,10.7l6.6,7.2c-0.9-6-1.9-12-2.8-18C160.7,224.8,159.9,224.8,159.2,224.8z"/>
		<path d="M159.2,224.8c0.7,0,1.4,0,2.1,0c-0.3-2.3-0.7-4.5-1.1-6.8C159.9,220.3,159.6,222.6,159.2,224.8z"/>
		<path d="M159.5,262.8c0,0.1,0,0.1,0,0.2c1.6,0,3.1-0.1,4.7-0.1C162.7,262.9,161.1,262.8,159.5,262.8z"/>
		<path d="M159.6,263c0.1,0.6,0.2,1.1,0.3,1.7c2.6,0,5.1,0,7.7,0c-0.1-0.6-0.2-1.1-0.3-1.7c-1,0-2,0-3-0.1
			C162.7,262.9,161.1,263,159.6,263z"/>
		<path d="M159.8,264.7c0.1,0.7,0.2,1.5,0.3,2.2l7,3.5c0.4,0,0.8,0,1.2,0c-0.3-1.9-0.6-3.9-0.9-5.8
			C165,264.7,162.4,264.7,159.8,264.7z"/>
		<path d="M160.6,216.5c-0.2,0-0.3,0-0.5,0c0.1,0.5,0.2,1,0.2,1.5C160.4,217.5,160.5,217,160.6,216.5z"/>
		<path d="M167.3,262.8c-1,0-2,0-3,0.1c1,0,2,0,3,0.1C167.3,262.9,167.3,262.9,167.3,262.8z"/>
		<path d="M167.5,127.6c-1.3,7.7-2.6,15.5-3.9,23.2c1,7.2,2.1,14.4,3.2,21.6c0.1,0.7,0.2,1.4,0.4,2.1c1.3-8.4,2.6-16.7,3.9-25.1v0
			C169.9,142.1,168.7,134.8,167.5,127.6z"/>
		<path d="M167.2,174.5L167.2,174.5c0.2,1,0.5,2.1,0.9,3l9.8-10.7l-1.3-1.2c-2.2-2.6-3.3-3.3-3.4-4.1c-0.7-4-1.3-8-2-12
			C169.8,157.8,168.5,166.1,167.2,174.5z"/>
		<path d="M167.2,270.4l0.2,0.1c0.3,0,0.7,0,1,0c0,0,0-0.1,0-0.1C168,270.4,167.6,270.4,167.2,270.4z"/>
		<path d="M167.3,262.8c0,0,0,0.1,0,0.1c2.8,0.1,5.5,0.1,8.3,0.2l0-0.5C172.8,262.7,170,262.8,167.3,262.8z"/>
		<path d="M167.3,263c0.1,0.6,0.2,1.1,0.3,1.7c2.6,0,5.3,0,7.9,0l0.1-1.5C172.8,263.1,170,263,167.3,263z"/>
		<path d="M167.4,270.6l1.1,0.5c0-0.2-0.1-0.4-0.1-0.6C168.1,270.5,167.8,270.5,167.4,270.6z"/>
		<path d="M167.5,264.7c0.3,1.9,0.6,3.9,0.9,5.8c0.7,0,1.3,0,2,0c1.6,0,3.2-0.1,4.8-0.1l0.3-5.7
			C172.8,264.7,170.2,264.7,167.5,264.7z"/>
		<path d="M177.8,166.7l-9.8,10.7c0.1,0.2,0.1,0.4,0.2,0.5c2.8,5.6,8.1,6.6,12.2,1.9c1.9-2.2,3.5-5.3,3.9-8.1
			c2.2-14.2,3.7-28.5,5.9-42.7c2.8-18.4,5.8-36.9,8.8-55.3h-7c-4.8,30.3-9.8,60.8-15.6,91.7L177.8,166.7z"/>
		<path d="M168.4,270.5C168.4,270.5,168.4,270.5,168.4,270.5c0.7,0.1,1.3,0,2,0C169.8,270.5,169.1,270.5,168.4,270.5z"/>
		<path d="M175.2,270.3c-1.6,0-3.2,0.1-4.8,0.1c6.4,0.1,12.8,0.1,19.1,0.2l-5.5-6c-2.9,0-5.7,0-8.6,0L175.2,270.3z"/>
		<path d="M175.6,263.2l-0.1,1.5c2.8,0,5.7,0,8.6,0l-1.2-1.3C180.4,263.3,178,263.2,175.6,263.2z"/>
		<path d="M182.9,263.3l1.2,1.3c10.5,0,21-0.1,31.5-0.1c1.2,0,2.4-0.2,3.8-0.4C207.2,263.9,195,263.6,182.9,263.3z"/>
		<path d="M184,264.6l5.5,6c8.6,0.1,17.3,0.2,25.9,0.4l5.4-6.9c-0.5,0-0.9,0-1.4,0c-1.4,0.2-2.6,0.4-3.8,0.4
			C205.1,264.5,194.6,264.6,184,264.6z"/>
		<path d="M253.8,73.8c-10,63.4-19.9,126.3-29.8,189.7c-1.8,0.2-3.3,0.4-4.5,0.6c0.5,0,0.9,0,1.4,0l-5.4,6.9
			c-8.6-0.2-17.3-0.3-25.9-0.4l0.9,1c9.3,0,18.7,0,28,0c11.8,0,12.1-0.9,13.9-12.2c3.7-23.5,7.9-46.9,11.8-70.4
			c1.8-10.7,3.4-21.5,5-32.3c6.2-41.3,12.3-82.6,18.4-124c1.5-10.4,2.9-20.7,4.6-32.2c-23.3,0-45.4,0-68.4,0
			c-3.9,24.4-7.7,48.8-11.6,73.3h7c1-5.9,1.9-11.7,2.9-17.6c2.2-13.5,4.6-27,6.8-40.5c1.1-6.5,4.3-9.1,11.2-8.8
			c10.9,0.6,21.9,0.1,32.9,0.2c3.3,0,6.6,0.5,11.2,0.8C260.6,30.1,257.2,52,253.8,73.8z"/>
	</g>
	<g>
		<path class="st0" d="M163.2,101.5c0.5,2.8,0.9,5.6,1.4,8.3"/>
		<path class="st0" d="M160.6,216.5c-0.1,0.5-0.2,1-0.2,1.5"/>
		<path class="st0" d="M107.9,108.9c0.4-2.5,0.8-5.1,1.3-7.6"/>
		<path class="st0" d="M164.6,109.8c-2.4,0-4.8,0-7.2-0.1c-1.1,0-2.2,0-3.3,0c-13-0.2-26.1-0.5-39.1-0.8c-2.4,0-4.8-0.1-7.1-0.1"/>
		<path class="st0" d="M109.1,101.3c2.4,0,4.8,0,7.2,0c13.3,0,26.5,0.1,39.7,0.2c2.4,0,4.8,0,7.2,0"/>
		<path class="st0" d="M121.8,225.2c-0.2,1.2-0.4,2.5-0.6,3.7c0,0,0,0.1,0,0.1c-1.3,7.7-2.6,15.4-3.8,23.1c-0.5,3.2-1,6.5-1.6,9.7
			c-0.1,0.7-0.2,1.4-0.3,2.1c-0.1,0.4-0.1,0.8-0.2,1.2c-0.1,0.6-0.2,1.1-0.3,1.7l-3.4,1.7l-5,2.5"/>
		<path class="st0" d="M107.7,264.2c1.3-8.2,2.5-16.4,3.8-24.7c0.6-4.1,1.3-8.2,1.9-12.3c0.1-0.7,0.2-1.3,0.3-1.9
			c0.4-2.6,0.8-5.2,1.2-7.8"/>
		<path class="st0" d="M168.4,270.5c0,0.2,0.1,0.4,0.1,0.6l-1.1-0.5l-0.2-0.1l-7-3.5c-0.1-0.7-0.2-1.5-0.3-2.2
			c-0.1-0.6-0.2-1.1-0.3-1.7c0-0.1,0-0.1,0-0.2c-1-6.6-2.1-13.1-3.2-19.7c-0.6-3.6-1.2-7.2-1.8-10.9c-0.4-2.4-0.8-4.9-1.2-7.4"/>
		<path class="st0" d="M160.3,218c0.4,2.3,0.7,4.5,1.1,6.8c0.9,6,1.9,12,2.8,18c1,6.7,2.1,13.4,3.1,20"/>
		<path class="st0" d="M161.4,224.8c-0.7,0-1.4,0-2.1,0c-0.4,0-0.7,0-1.1,0c-1.6,0-3.2,0-4.9,0.1c-0.5,0-1.1,0-1.6,0
			c-1.3,0-2.5,0-3.8,0c-7.8,0.1-15.6,0.1-23.4,0.2c-0.9,0-1.9,0-2.8,0c-0.4,0-0.8,0-1.2,0c-2.3,0-4.6,0.1-6.9,0.1
			c-0.2,0-0.4,0-0.6,0"/>
		<path class="st0" d="M114.9,217.5c1.5,0,3-0.1,4.5-0.1c1.2,0,2.4-0.1,3.7-0.1c2.9-0.1,5.9-0.1,8.8-0.2c2.9-0.1,5.8-0.1,8.7-0.2
			c3.8-0.1,7.6-0.2,11.4-0.3c0.3,0,0.7,0,1,0c2.4-0.1,4.8-0.1,7.2-0.2c0.2,0,0.3,0,0.5,0"/>
		<path class="st0" d="M106.6,271.5c-8.2,0.1-16.4,0.2-24.5,0.3c-3.6,0.1-7.1,0.1-10.7,0.2l-5.4-6.9c0.6,0,1.2,0,1.9,0
			c6.9-0.2,13.8-0.3,20.8-0.5c6.4-0.1,12.7-0.3,19.1-0.4c1.2,0,2.5-0.1,3.7-0.1"/>
		<path class="st0" d="M170.4,270.5c-0.7,0-1.3,0-2,0.1c-0.3,0-0.7,0-1,0"/>
		<path class="st0" d="M164.3,262.9c1,0,2,0,3-0.1c2.8-0.1,5.5-0.1,8.3-0.2l0,0.5"/>
		<path class="st0" d="M159.5,262.8c1.6,0,3.2,0.1,4.7,0.1c1,0,2,0,3,0.1c2.8,0.1,5.5,0.1,8.3,0.2c2.4,0.1,4.9,0.1,7.3,0.2
			c12.2,0.3,24.4,0.5,36.6,0.8c0.5,0,0.9,0,1.4,0l-5.4,6.9c-8.6-0.2-17.3-0.3-25.9-0.4c-6.4-0.1-12.8-0.1-19.1-0.2c-0.7,0-1.3,0-2,0
			c-0.4,0-0.8,0-1.2,0"/>
		<path class="st0" d="M111.6,268.6l-0.2-3.4l0-1.1l-0.1-2.3c1.5,0,3,0.1,4.5,0.1"/>
	</g>
</g>
<path class="st1" d="M168.5,271.1C179.3,202.9,197.3,73.4,208,5.5h59c-2.6,19.8-5.6,44.9-9.5,65.5c-8.5,45.2-27.8,156.1-34.5,200.1
	H168.5z"/>
<g id="XMLID_1_">
</g>
<path class="st1" d="M48.5,266.1c-6.7-44-26-155-34.5-200.1C10.2,45.4,7.2,20.3,4.5,0.5l59,0C74.3,68.4,98.2,198,109,266.1H48.5z"/>
<path class="st1" d="M56.8,266.1c10.8-68.2,47.6-89.3,58.4-157.1l47,0.8c-0.9,7.1,7.1,28.5,4.3,45.7c-1.1,6.7,21.4,17.8,18.5,24.5
	c-3.4,7.9,3.3,25.4,0.3,33c-1.3,3.1-9.7,51-15.7,51.7c-6.9,0.7-11.9-46.1-20.5-46.6c-14.2-0.9-27.3-1.9-28.1,1.9
	c-8.4,45.2-3.1,2.1-9.8,46.1H56.8z"/>
</svg>
