<?xml version="1.0" encoding="utf-8"?>
<!-- Generator: Adobe Illustrator 21.0.0, SVG Export Plug-In . SVG Version: 6.00 Build 0)  -->
<svg version="1.1"
	 id="Слой_1" xmlns:krita="http://krita.org/namespaces/svg/krita" xmlns:sodipodi="http://sodipodi.sourceforge.net/DTD/sodipodi-0.dtd"
	 xmlns="http://www.w3.org/2000/svg" xmlns:xlink="http://www.w3.org/1999/xlink" x="0px" y="0px" viewBox="0 0 272.2 272.2"
	 style="enable-background:new 0 0 272.2 272.2;" xml:space="preserve">
<path d="M129.3,58.4c0,13.9,0.1,25.5-0.1,37.2c-0.1,5,2.1,7.2,6.9,7.2c7,0,14,0.1,21.1,0.1c16.3,0,32.6,0,49.3,0
	c2.7,9.7,1.1,18.7,1.4,27.4c0.3,8.9,0.1,17.9,0.1,28.2c-4.1,0.4-7.8,1-11.5,1c-18.3,0.1-36.7,0-55,0.1c-3.8,0-7.5,0.4-12.1,0.7
	c0,37.3,0,73.5,0,109.3c-9,3.5-58.1,4.1-71.9,1.1c0-89.6,0-179.4,0-269.8c3.6-0.2,6.2-0.5,8.8-0.5c45.6,0,91.3,0,136.9,0
	c10.4,0,11.1,0.3,11.2,10c0.2,15.5,0.1,31,0.1,47.9C185.7,58.4,158.3,58.4,129.3,58.4z M121.5,264.9c0-6.3,0-10.5,0-14.7
	c0-28.1,0-56.2,0-84.3c0-11.4,3-14.3,14.6-14.3c18.3-0.1,36.7,0,55-0.1c2.6,0,5.2-0.6,8.6-1.1c1.2-13.6,1.7-26.4-0.3-39.4
	c-3.6-0.2-5.5-0.4-7.4-0.4c-18.3,0-36.7,0.2-55,0.2c-12.9,0-15.5-2.6-15.6-15.8c-0.1-9.8,0-19.5,0.1-29.3
	c0.1-13.3,1.7-14.8,14.8-14.8c20.7,0,41.4,0,62.1-0.2c2.9,0,5.9-0.8,9.3-1.2c0.4-14.1,1.3-27.1-0.7-40.2c-47.7,0-94.4,0-141.6,0
	c0,85.3,0,169.7,0,254.9c4.2,0.3,7.6,0.8,11,0.9C90.8,264.9,105.2,264.9,121.5,264.9z"/>
<path d="M121.5,264.9c-16.3,0-30.7,0.1-45,0c-3.4,0-6.8-0.5-11-0.9c0-85.1,0-169.6,0-254.9c47.2,0,93.8,0,141.6,0
	c1.9,13,1,26.1,0.7,40.2c-3.5,0.5-6.4,1.2-9.3,1.2c-20.7,0.1-41.4,0.1-62.1,0.2c-13.1,0-14.7,1.6-14.8,14.8
	c-0.1,9.8-0.2,19.5-0.1,29.3c0.1,13.2,2.7,15.9,15.6,15.8c18.3,0,36.7-0.1,55-0.2c1.9,0,3.8,0.2,7.4,0.4c1.9,13,1.5,25.9,0.3,39.4
	c-3.4,0.4-6,1.1-8.6,1.1c-18.3,0.1-36.7,0.1-55,0.1c-11.6,0-14.6,2.9-14.6,14.3c-0.1,28.1,0,56.2,0,84.3
	C121.5,254.4,121.5,258.6,121.5,264.9z"/>
</svg>
