<?xml version="1.0" encoding="utf-8"?>
<!-- Generator: Adobe Illustrator 21.0.0, SVG Export Plug-In . SVG Version: 6.00 Build 0)  -->
<svg version="1.1"
	 id="Слой_1" xmlns:krita="http://krita.org/namespaces/svg/krita" xmlns:sodipodi="http://sodipodi.sourceforge.net/DTD/sodipodi-0.dtd"
	 xmlns="http://www.w3.org/2000/svg" xmlns:xlink="http://www.w3.org/1999/xlink" x="0px" y="0px" viewBox="0 0 272.2 272.2"
	 style="enable-background:new 0 0 272.2 272.2;" xml:space="preserve">
<path d="M232.7,0c0.7,18.2,0.3,36,0.2,55.3c-20.3,1.7-39.8-0.1-60.7,1.2c-0.3,36.3-0.1,71.7-0.1,107.1c-0.1,35.5,0,71,0,107.6
	c-24.3,1.6-47.5,0.3-72.2,0.9c-0.1-12.9-0.4-24.5-0.4-36.1c0-56,0-111.9,0-167.9c0-11.9-0.4-12.1-12.8-12.1c-15.2,0-30.4,0-45.2,0
	c-3-8.7-3.4-45.3-0.8-56C104.1,0,167.6,0,232.7,0z M46.5,48.6c4.8,0.4,8.7,0.9,12.5,0.9c11,0.1,21.9-0.2,32.9-0.1
	c13.5,0.1,14.8,1.4,15.1,14.7c0,1.2,0,2.3,0,3.5c0,61.5,0,122.9,0,184.4c0,3.4,0,6.8,0,11.1c19.4,0,37.6,0,57,0
	c0.5-5,1.3-9.9,1.3-14.9c0-40.7-0.3-81.4-0.4-122.1c-0.1-21.9,0-43.8,0.1-65.7c0.1-8.8,1.4-10.3,10.2-10.6c9-0.3,18,0,27-0.1
	c7.3-0.1,14.6-0.4,22.5-0.7c0-14.5,0-27.5,0-41c-2.9-0.4-5.2-1.1-7.4-1.1c-54-0.1-108-0.1-162,0c-2.9,0-5.8,1-8.6,1.5
	C46.5,21.9,46.5,34.4,46.5,48.6z"/>
<path d="M46.5,48.6c0-14.2,0-26.7,0-40.2c2.9-0.5,5.8-1.5,8.6-1.5c54-0.1,108-0.1,162,0c2.2,0,4.5,0.6,7.4,1.1c0,13.5,0,26.6,0,41
	c-7.9,0.2-15.2,0.6-22.5,0.7c-9,0.1-18-0.2-27,0.1C166.4,50,165,51.5,165,60.4c-0.1,21.9-0.2,43.8-0.1,65.7
	c0.1,40.7,0.3,81.4,0.4,122.1c0,4.9-0.9,9.9-1.3,14.9c-19.4,0-37.6,0-57,0c0-4.3,0-7.7,0-11.1c0-61.5,0-122.9,0-184.4
	c0-1.2,0-2.3,0-3.5c-0.3-13.2-1.5-14.5-15.1-14.7c-11-0.1-21.9,0.2-32.9,0.1C55.2,49.5,51.4,49,46.5,48.6z"/>
</svg>
