<svg id="Слой_1" data-name="Слой 1" xmlns="http://www.w3.org/2000/svg" viewBox="0 0 230.67 272.53"><title>letter_Q</title><path d="M194,264.43c-6.85,8-14.43,8.08-22.42,8q-37.49-.41-75,0c-5.87.07-10.61-1.36-15-5.07-12.51-10.59-25-21.22-37.76-31.5-4.66-3.75-4.9-8.35-4.9-13.55q.13-66.79.08-133.58c0-13.28.21-26.57-.13-39.84-.14-5.58,1.59-9.6,5.89-13.11C57.18,25.69,69.42,15.38,81.64,5A19.91,19.91,0,0,1,95.51.15c26.95.21,53.91.23,80.85-.22,6.45-.11,11.15,2,15.79,6C203.74,15.8,215.33,25.69,227.33,35c5.19,4,7,8.5,7,14.94-.21,53.51,0,107-.37,160.54a30.55,30.55,0,0,0,6.4,19.36c9.63,13.17,18.92,26.59,29.18,41.08-3.42.57-5.82,1.31-8.23,1.32-15.62.09-31.25-.2-46.87.11C206.88,272.54,199.64,272.69,194,264.43Zm60.25,0c-1.3-3.68-1.57-5.64-2.57-7.09-6.42-9.31-12.79-18.67-19.6-27.7a28.29,28.29,0,0,1-6-18.28c.3-53.13.09-106.26.33-159.38,0-5.57-1.16-9.56-5.58-13.13-10.63-8.59-21-17.47-31.3-26.47C185.4,8.83,181,7.52,175.64,7.56q-39.26.3-78.51,0c-5.4,0-9.79,1.26-13.88,4.78Q67.28,26.06,51,39.4a14.21,14.21,0,0,0-5.76,12c.15,56.64,0,113.29.25,169.93,0,3.47,1.54,8,4,10.21,11,9.89,22.75,19,34,28.64,3.83,3.27,7.85,4.2,12.84,4.15,26.56-.26,53.13-.2,79.69-.09,4.4,0,8.35,0,11.86-3.45,4-3.86,8.27-3,12.77-.08,2.79,1.81,6.25,3.48,9.46,3.57C224.16,264.68,238.2,264.46,254.26,264.46Z" transform="translate(-38.88 0.07)"/><path d="M254.26,264.46c-16.06,0-30.09.22-44.11-.17-3.21-.09-6.67-1.76-9.46-3.57-4.5-2.92-8.82-3.78-12.77.08-3.52,3.43-7.47,3.47-11.86,3.45-26.56-.11-53.13-.17-79.69.09-5,0-9-.88-12.84-4.15-11.29-9.62-23-18.75-34-28.64-2.46-2.21-4-6.74-4-10.21-.24-56.64-.1-113.29-.25-169.93A14.21,14.21,0,0,1,51,39.4Q67.27,26.05,83.24,12.34c4.09-3.52,8.48-4.82,13.88-4.78q39.26.32,78.51,0c5.39,0,9.76,1.27,13.85,4.85,10.28,9,20.68,17.88,31.3,26.47,4.42,3.57,5.61,7.56,5.58,13.13-.24,53.13,0,106.26-.33,159.38a28.29,28.29,0,0,0,6,18.28c6.81,9,13.18,18.38,19.6,27.7C252.69,258.82,253,260.78,254.26,264.46ZM156.87,197.2c9.12-5.14,9.29-5.14,9.3-15.45q.11-59.15,0-118.3c0-4.07-1-8.14-1.62-12.82-17.28,0-33.24-.2-49.19.1-6.8.13-9.61,3.24-10.46,10.06a56.67,56.67,0,0,0-.09,7q0,38.07,0,76.13c0,21.47-.16,42.95,0,64.42,0,8.8,3.15,13.64,10.76,14.06a384.34,384.34,0,0,0,42.11.11c7.7-.41,10.29-6.74,6.6-13.7C162.09,204.8,159.35,201.08,156.87,197.2Z" transform="translate(-38.88 0.07)"/><path d="M156.87,197.2c2.48,3.87,5.22,7.6,7.36,11.64,3.69,7,1.1,13.29-6.6,13.7a384.34,384.34,0,0,1-42.11-.11c-7.61-.43-10.72-5.27-10.76-14.06-.11-21.47,0-42.95,0-64.42q0-38.07,0-76.13a56.67,56.67,0,0,1,.09-7c.85-6.83,3.66-9.94,10.46-10.06,16-.3,31.92-.1,49.19-.1.62,4.68,1.61,8.75,1.62,12.82q.18,59.15,0,118.3C166.16,192.07,166,192.07,156.87,197.2ZM115.07,59.09c-2.44,15.72-1.71,145.77.92,154.61,13,1.52,26.26.37,41.57,0l-15.71-24.91c2.09-1,2.78-1.53,3.49-1.57,13.64-.72,13.81-.71,13.84-14.46q.09-52.66-.15-105.32c0-2.59-.71-5.18-1.18-8.41Z" transform="translate(-38.88 0.07)"/></svg>