<?xml version="1.0" encoding="utf-8"?>
<!-- Generator: Adobe Illustrator 21.0.0, SVG Export Plug-In . SVG Version: 6.00 Build 0)  -->
<svg version="1.1"
	 id="Слой_1" xmlns:krita="http://krita.org/namespaces/svg/krita" xmlns:sodipodi="http://sodipodi.sourceforge.net/DTD/sodipodi-0.dtd"
	 xmlns="http://www.w3.org/2000/svg" xmlns:xlink="http://www.w3.org/1999/xlink" x="0px" y="0px" viewBox="0 0 272.2 272.2"
	 style="enable-background:new 0 0 272.2 272.2;" xml:space="preserve">
<path d="M47.9,183.1c24.3,0,47.5,0,71,0c3.8,7,1.7,14.5,2,21.7c0.5,9.4,0.8,10,9.9,10.3c6.2,0.2,12.4,0,19.9,0c0.4-4.9,1-9,1-13
	c0.1-57.6,0.1-115.2,0.1-172.9c0-8.9,0-17.9,0-26.6c8.4-3,55.3-3.7,71.5-1.1c0.3,2.3,0.8,4.9,0.8,7.5c0.1,70.9,0,141.7,0.3,212.6
	c0,7.5-2.4,12-8.2,16.5c-12.1,9.1-23.6,19.1-35.1,28.9c-4.1,3.5-8.2,5.2-13.7,5.1c-20.6-0.3-41.3-0.2-61.9-0.1
	c-5.3,0-9.6-1.2-13.7-4.9c-12.5-11.1-25.3-21.9-38.2-32.5c-4.2-3.5-6.3-6.9-6-12.8C48.4,209.5,47.9,197,47.9,183.1z M55.9,191.4
	c0,11.9-0.3,22.4,0.2,32.8c0.1,2.6,2.3,5.7,4.4,7.6c10.8,9.5,21.7,19,33,27.9c3.4,2.7,8.3,4.5,12.6,4.6c20.3,0.5,40.5,0.3,60.8,0
	c3.7-0.1,8.1-0.9,10.8-3.1c12.1-9.8,23.9-20,35.4-30.5c2.2-2,3.4-6.1,3.4-9.2c0.1-68.2,0-136.4-0.2-204.6c0-2.5-0.9-5.1-1.5-7.7
	c-18.5,0-36.2,0-55.5,0c0,4.9,0,9.1,0,13.3c0,58.5,0,116.9,0,175.4c0,3.9,0.1,7.8,0,11.7c-0.2,10.8-2.1,12.6-13.3,12.6
	c-6.2,0-12.5-0.1-18.7-0.1c-11.2,0.1-13.8-2.4-14.2-13.4c-0.2-5.7-0.6-11.3-0.9-17.3C93.2,191.4,75.4,191.4,55.9,191.4z"/>
<path d="M55.9,191.4c19.5,0,37.3,0,56.4,0c0.3,6,0.7,11.6,0.9,17.3c0.4,11,3,13.5,14.2,13.4c6.2,0,12.5,0.1,18.7,0.1
	c11.2,0,13.1-1.7,13.3-12.6c0.1-3.9,0-7.8,0-11.7c0-58.5,0-116.9,0-175.4c0-4.2,0-8.4,0-13.3c19.3,0,37,0,55.5,0
	c0.5,2.6,1.5,5.2,1.5,7.7c0.2,68.2,0.3,136.4,0.2,204.6c0,3.1-1.2,7.2-3.4,9.2c-11.5,10.5-23.3,20.7-35.4,30.5
	c-2.7,2.2-7.2,3-10.8,3.1c-20.3,0.3-40.5,0.4-60.8,0c-4.3-0.1-9.2-2-12.6-4.6c-11.3-8.9-22.2-18.3-33-27.9c-2.1-1.9-4.3-4.9-4.4-7.6
	C55.6,213.7,55.9,203.3,55.9,191.4z"/>
</svg>
