<?xml version="1.0" encoding="utf-8"?>
<!-- Generator: Adobe Illustrator 21.0.0, SVG Export Plug-In . SVG Version: 6.00 Build 0)  -->
<svg version="1.1"
	 id="Слой_1" xmlns:krita="http://krita.org/namespaces/svg/krita" xmlns:sodipodi="http://sodipodi.sourceforge.net/DTD/sodipodi-0.dtd"
	 xmlns="http://www.w3.org/2000/svg" xmlns:xlink="http://www.w3.org/1999/xlink" x="0px" y="0px" viewBox="0 0 272.2 272.2"
	 style="enable-background:new 0 0 272.2 272.2;" xml:space="preserve">
<path d="M128.7,57.6c0,13.6,0.1,25-0.1,36.3c-0.1,6.3,3.2,8.1,8.8,8c16.4-0.1,32.9-0.1,49.3-0.1c8.6,0,17.1,0,25.3,0
	c3.8,10.4,4.3,42.5,0.7,56.9c-27.1,0-54.7,0-83.2,0c0,19,0,36.4,0,55.1c27.5,3.1,55.6-0.2,84.5,1.8c1.9,18.5,0.6,36.3,0.7,55.1
	c-14,2.3-27.2,0.9-40.3,1.2c-12.9,0.2-25.8,0-38.8,0c-13.3,0-26.6,0-39.9,0c-12.8,0-25.6,0-38.9,0c0-91.5,0-181.3,0-272
	c52.4,0,103.8,0,157,0c2.9,18.4,0.4,37.3,1.2,57.6C186,57.6,158.1,57.6,128.7,57.6z M207.1,223.5c-4.8-0.3-7.5-0.5-10.2-0.5
	c-19.6,0-39.1,0.1-58.7,0.1c-13.9,0-16.6-2.7-16.7-16.3c0-13.3,0-26.6,0.1-39.9c0.1-13.3,3.1-16.1,16.9-16.1c19.6,0,39.1,0,58.7-0.1
	c3,0,5.9-0.7,9.6-1.2c0.6-13.6,1.1-26.2-0.7-39.2c-3.8-0.2-6.5-0.6-9.2-0.6c-20.4,0-40.7,0.1-61.1,0.1c-10.7,0-14.2-3.4-14.4-13.9
	c-0.2-11-0.2-21.9,0.1-32.9c0.2-11.2,2.6-13.3,14.3-13.3c19.6-0.1,39.1,0,58.7-0.1c3.8,0,7.6-0.4,11.9-0.7c0-14.2,0-27.3,0-40.2
	C195.1,6.3,72.4,6.8,64.5,9c-2.4,14.9-1.8,245,0.8,254.6c2.1,0.2,4.4,0.7,6.7,0.7c38.4,0.2,76.7,0.3,115.1,0.3
	c4.7,0,9.4-0.2,14.1-0.3c3.8-0.1,5.9-2.1,6-5.8C207.2,247.2,207.1,235.9,207.1,223.5z"/>
<path d="M207.1,223.5c0,12.5,0.1,23.7,0,35c0,3.7-2.2,5.7-6,5.8c-4.7,0.1-9.4,0.3-14.1,0.3c-38.4-0.1-76.7-0.2-115.1-0.3
	c-2.3,0-4.6-0.5-6.7-0.7C62.7,254,62.1,23.9,64.5,9c7.9-2.2,130.6-2.7,142.1-0.3c0,12.9,0,26,0,40.2c-4.3,0.3-8.1,0.6-11.9,0.7
	c-19.6,0.1-39.1,0-58.7,0.1c-11.7,0-14.1,2.1-14.3,13.3c-0.2,11-0.2,21.9-0.1,32.9c0.2,10.5,3.7,13.9,14.4,13.9
	c20.4,0.1,40.7-0.1,61.1-0.1c2.7,0,5.3,0.3,9.2,0.6c1.8,13.1,1.3,25.7,0.7,39.2c-3.7,0.5-6.6,1.2-9.6,1.2
	c-19.6,0.1-39.1,0.2-58.7,0.1c-13.8,0-16.9,2.7-16.9,16.1c-0.1,13.3-0.1,26.6-0.1,39.9c0,13.6,2.7,16.3,16.7,16.3
	c19.6,0,39.1-0.1,58.7-0.1C199.6,223,202.3,223.2,207.1,223.5z"/>
</svg>
