<?xml version="1.0" encoding="utf-8"?>
<!-- Generator: Adobe Illustrator 21.0.0, SVG Export Plug-In . SVG Version: 6.00 Build 0)  -->
<svg version="1.1"
	 id="Слой_1" xmlns:krita="http://krita.org/namespaces/svg/krita" xmlns:sodipodi="http://sodipodi.sourceforge.net/DTD/sodipodi-0.dtd"
	 xmlns="http://www.w3.org/2000/svg" xmlns:xlink="http://www.w3.org/1999/xlink" x="0px" y="0px" viewBox="0 0 272.2 272.2"
	 style="enable-background:new 0 0 272.2 272.2;" xml:space="preserve">
<g id="XMLID_1_">
</g>
<path d="M135,206.7c-9.8,21.4-14.1,45-25.3,65.5c-24,0-47.1,0-70.6,0c-1.6-8.2,3.3-14.5,5.6-21.1c10.7-31.7,21.1-63.6,33.6-94.7
	c6-14.9,5.5-27.4-0.5-41.9C66.9,87.8,57.9,60.4,48.3,33.1C44.7,23,41.5,12.7,37.8,1.4c3.6-0.5,6.5-1.3,9.3-1.3
	C64.8,0,82.4,0,100.1,0c10.8,0,11.9,0.9,15.3,10.7c5.8,17,11.7,34,17.6,51c0.3,1,1.4,1.7,3.4,3.8c7-10.2,9.5-21.5,13.6-32
	c4.1-10.5,7.6-21.3,11.6-32.8c23.5,0,47.2,0,71.4,0c2.6,9.5-3.3,16.8-5.8,24.5C219.7,47.9,211,70,202.8,92.3
	c-4.1,11.3-8,22.8-12.3,34c-2.5,6.6-2.7,12.8-0.2,19.4c9.9,27.1,19.6,54.2,29.4,81.3c4,11,8.1,21.9,11.9,32.9
	c1.2,3.5,1.7,7.3,2.8,11.8c-24.9,0-48.3,0-72.4,0c-8-21.7-16.1-43.5-24.1-65.3C136.9,206.5,135.9,206.6,135,206.7z M226,265.2
	c-2.6-6.3-4.3-9.8-5.5-13.3c-12.4-35.3-24.6-70.7-37.4-105.9c-2.6-7.2-2.5-13.2,0.1-20.3c12.2-32.9,23.9-66,35.7-99.1
	c2-5.7,3.6-11.6,5.6-18c-3-0.4-4.8-0.9-6.7-0.9c-13.3,0-26.6,0-40,0c-10.8,0-10.8,0.1-14.5,10.2c-1.3,3.7-2.8,7.3-4.2,10.9
	c-4.9,13.2-9.7,26.4-14.7,39.6c-1.4,3.8-3.7,7.2-8.5,6.8c-4.4-0.4-6.8-3.3-8.2-7.4c-2.3-6.7-4.7-13.3-7.1-19.9
	c-4.9-13.4-9.8-26.9-14.4-39.5c-20.2,0-38.7,0-57.6,0c1.2,4.8,1.9,8.7,3.2,12.3c12.5,34.9,25.1,69.7,37.8,104.5
	c2.5,6.8,3.2,13.2,0.5,20.4c-9.7,25.9-18.9,52-28.2,78.1c-4.8,13.3-9.4,26.7-14.7,41.7c10.9,0,20.2,0,29.5,0
	c9.7,0,19.3-0.2,29.2-0.3c6.6-18.5,12.7-35.7,18.9-52.9c1.3-3.7,2.5-7.5,4.5-10.8c4.1-6.8,9.1-6.9,13.4-0.3c1.9,2.9,3.3,6.2,4.5,9.5
	c5.8,16.2,11.2,32.5,17.3,48.5c1,2.6,4.8,5.8,7.5,5.9C189.1,265.5,206.2,265.2,226,265.2z"/>
<path d="M226,265.2c-19.8,0-36.9,0.3-54-0.3c-2.6-0.1-6.5-3.3-7.5-5.9c-6.1-16-11.5-32.4-17.3-48.5c-1.2-3.3-2.6-6.6-4.5-9.5
	c-4.3-6.6-9.4-6.5-13.4,0.3c-2,3.3-3.2,7.1-4.5,10.8c-6.2,17.2-12.3,34.4-18.9,52.9c-9.9,0.1-19.5,0.2-29.2,0.3
	c-9.3,0-18.6,0-29.5,0c5.3-15,9.9-28.4,14.7-41.7c9.3-26.1,18.5-52.2,28.2-78.1c2.7-7.2,2-13.5-0.5-20.4
	C76.9,90.5,64.4,55.7,51.8,20.8c-1.3-3.6-2-7.5-3.2-12.3c19,0,37.4,0,57.6,0c4.6,12.6,9.5,26,14.4,39.5c2.4,6.6,4.8,13.2,7.1,19.9
	c1.4,4.1,3.8,7,8.2,7.4c4.7,0.4,7.1-3,8.5-6.8c5-13.2,9.8-26.4,14.7-39.6c1.4-3.6,2.8-7.2,4.2-10.9c3.7-10.2,3.7-10.2,14.5-10.2
	c13.3,0,26.6-0.1,40,0c1.9,0,3.7,0.5,6.7,0.9c-2,6.4-3.6,12.3-5.6,18c-11.8,33.1-23.5,66.2-35.7,99.1c-2.6,7-2.7,13.1-0.1,20.3
	c12.8,35.2,25,70.6,37.4,105.9C221.7,255.5,223.4,258.9,226,265.2z"/>
</svg>
