<?xml version="1.0" encoding="utf-8"?>
<!-- Generator: Adobe Illustrator 21.0.0, SVG Export Plug-In . SVG Version: 6.00 Build 0)  -->
<svg version="1.1"
	 id="Слой_1" xmlns:krita="http://krita.org/namespaces/svg/krita" xmlns:sodipodi="http://sodipodi.sourceforge.net/DTD/sodipodi-0.dtd"
	 xmlns="http://www.w3.org/2000/svg" xmlns:xlink="http://www.w3.org/1999/xlink" x="0px" y="0px" viewBox="0 0 272.2 272.2"
	 style="enable-background:new 0 0 272.2 272.2;" xml:space="preserve">
<path d="M112.9,272.2c-24.1,0-46.7,0-69.5,0c-0.1-0.1-0.4-0.4-0.6-0.7c-0.3-0.3-0.7-0.6-0.7-0.9c-0.2-1.9-0.5-3.9-0.5-5.8
	c0-87.6,0-175.2,0-263.3c2.9-0.6,5.1-1.5,7.3-1.5C91.1,0,133.4-0.1,175.6,0.2c3.5,0,7.7,1.7,10.5,4C198.8,14.5,211,25.5,223.7,36
	c5.3,4.4,7,9.5,6.9,16.4c-0.4,23.9-0.5,47.7,0,71.6c0.1,7.1-2.3,12-7.4,16.2c-11.2,9.2-22.3,18.4-33.4,27.7
	c-5.7,4.8-12,6.7-19.5,6.5c-15.6-0.4-31.3-0.2-47-0.1c-10,0.1-10.6,0.9-10.6,10.8c0,24.7,0,49.3,0,74
	C112.9,262.9,112.9,266.8,112.9,272.2z M50.9,7.6c0,86.2,0,171.2,0,256.4c18.4,0,35.7,0,54,0c0.2-4.6,0.5-8.4,0.5-12.2
	c0-22.7-0.1-45.4,0.1-68.1c0-4.9,0.9-9.7,1.5-14.9c4.7-0.3,8.2-0.8,11.7-0.8c17.2-0.1,34.4-0.3,51.7,0.1c5.5,0.1,9.7-1.2,13.8-4.7
	c11-9.4,22-18.8,33.3-27.8c4.5-3.6,6-7.7,6-13.2c-0.1-23.9,0.1-47.7-0.2-71.6c-0.1-3.4-1.9-7.7-4.4-10c-10.7-9.7-22.1-18.6-33-28.1
	c-4.4-3.8-9.1-5.2-14.9-5.1C135.2,7.7,99.6,7.6,64,7.6C59.8,7.6,55.6,7.6,50.9,7.6z"/>
<path d="M50.9,7.6c4.7,0,8.9,0,13.1,0c35.6,0,71.2,0.1,106.8-0.1c5.9,0,10.5,1.3,14.9,5.1c10.9,9.5,22.3,18.4,33,28.1
	c2.5,2.3,4.4,6.6,4.4,10c0.4,23.9,0.1,47.7,0.2,71.6c0,5.5-1.5,9.6-6,13.2c-11.3,9-22.3,18.4-33.3,27.8c-4.1,3.5-8.3,4.8-13.8,4.7
	c-17.2-0.4-34.4-0.2-51.7-0.1c-3.5,0-6.9,0.5-11.7,0.8c-0.5,5.2-1.4,10.1-1.5,14.9c-0.1,22.7,0,45.4-0.1,68.1
	c0,3.8-0.3,7.6-0.5,12.2c-18.3,0-35.7,0-54,0C50.9,178.8,50.9,93.8,50.9,7.6z M108.3,50.5c-1.2,2.7-2,3.7-2,4.8
	c-0.2,20.3-0.4,40.6-0.4,60.8c0,5.6,3.4,8.8,8.9,8.9c14,0.3,28.1,0.5,42.1,0.1c7.1-0.2,10.3-4,10.4-11.4c0.2-17.6,0.2-35.1,0-52.7
	c-0.1-8.2-2.2-10.1-10.7-10.4c-8.2-0.3-16.4-0.2-24.6-0.2C123.9,50.5,115.8,50.5,108.3,50.5z"/>
<path d="M108.3,50.5c7.5,0,15.6,0,23.6,0c8.2,0,16.4-0.1,24.6,0.2c8.5,0.3,10.6,2.2,10.7,10.4c0.2,17.6,0.2,35.1,0,52.7
	c-0.1,7.3-3.3,11.2-10.4,11.4c-14,0.4-28.1,0.2-42.1-0.1c-5.4-0.1-8.9-3.3-8.9-8.9c0-20.3,0.2-40.6,0.4-60.8
	C106.3,54.3,107.2,53.2,108.3,50.5z M157.4,116.5c2.6-17.6,2-48.7-0.9-57.2c-14.3-1.9-34.1-1.3-41.7,1.4c0,18.1,0,36.3,0,55.8
	C129.2,117.4,143,117.5,157.4,116.5z"/>
</svg>
