<?xml version="1.0" encoding="utf-8"?>
<!-- Generator: Adobe Illustrator 21.0.0, SVG Export Plug-In . SVG Version: 6.00 Build 0)  -->
<svg version="1.1"
	 id="Слой_1" xmlns:krita="http://krita.org/namespaces/svg/krita" xmlns:sodipodi="http://sodipodi.sourceforge.net/DTD/sodipodi-0.dtd"
	 xmlns="http://www.w3.org/2000/svg" xmlns:xlink="http://www.w3.org/1999/xlink" x="0px" y="0px" viewBox="0 0 272.2 272.2"
	 style="enable-background:new 0 0 272.2 272.2;" xml:space="preserve">
<path d="M232.1,106c-24.6,0-47.5,0-72,0c-0.1-9-0.6-17.4-0.3-25.8c0.7-27.2,1.2-21.3-21.3-21.9c-8.4-0.2-16.9,0-25.8,0
	c0,52.6,0,103.6,0,154.4c9.5,3.1,31.4,3.6,46.9,0.7c0.1-8.8,0.4-18,0.2-27.2c-0.1-4.4-3.5-5.5-7.5-5.4c-5.7,0.1-11.5,0-18,0
	c0-17.8,0-33.9,0-50c8.9-3,83.7-3.6,97.2-0.6c0.2,2.4,0.6,5,0.6,7.5c0.1,28.1,0,56.2,0.2,84.3c0.1,5.9-1.1,10.5-5.9,14.4
	c-12.5,10-24.9,20-37,30.4c-4.5,3.9-9.1,5.2-14.8,5.2c-24.6-0.2-49.2-0.6-73.7,0.1c-10,0.3-17.2-3.7-24.1-9.6
	c-9.8-8.3-19.6-16.7-29.5-24.9c-4.8-3.9-7.3-8.2-7.2-14.9c0.4-56.6,0.5-113.1,0.2-169.7c0-7.8,2-13.1,8.1-18
	c12.4-10,24.4-20.6,36.3-31.2C88,0.8,91.6,0,96.2,0c25.7,0.2,51.5-0.1,77.2,0.3c4.7,0.1,10.2,1.6,13.9,4.4
	C200.5,15,213.1,26.1,226,36.8c4.6,3.8,6.4,8.1,6.2,14.2C231.8,68.9,232.1,86.7,232.1,106z M224.5,97.9c0-17.4,0.1-33.3-0.2-49.2
	c0-2.4-1.6-5.4-3.5-7C208.8,31.2,196.5,20.9,184,11c-2.5-2-6.4-2.9-9.7-2.9c-25.8-0.2-51.5-0.3-77.3,0.1c-3.6,0-7.8,1.5-10.5,3.7
	c-11.3,8.9-22.1,18.5-33.3,27.7c-3.9,3.2-5.7,6.7-5.7,12c0.1,56.6,0,113.2-0.1,169.7c0,4.6,1.2,8.1,4.9,11.1
	c10.9,8.8,21.7,17.8,32.2,27.1c4.1,3.6,8.5,5,13.8,5c25.7,0,51.5,0.2,77.2,0.1c3.3,0,7.1-1.2,9.6-3.2c11.3-9,22.1-18.5,33.3-27.7
	c4.6-3.8,6.2-8.5,6.2-14.4c-0.2-23.8-0.2-47.6-0.4-71.4c0-3.7-0.8-7.4-1.3-11.6c-28.4,0.7-55.5-0.6-82.5,0.9c0,12.9,0,24.3,0,35.3
	c1.6,0.9,2.2,1.5,2.9,1.5c3.5,0.2,7,0.3,10.5,0.4c9.5,0.5,12.4,3.1,12.7,12.9c0.3,7.8,0.4,15.6-0.1,23.4
	c-0.6,9.5-3.7,12.3-13.2,12.5c-11.3,0.2-22.6,0.1-33.9-0.1c-11.7-0.2-14.7-3.8-14.7-15.8c0.2-37.8,0.3-75.7,0.4-113.5
	c0-10.5-0.4-21.1-0.4-31.6c0-7.7,3.2-11.6,9.9-11.8c14-0.3,28.1,0,42.1-0.1c5.8,0,8.6,3.3,9.4,8.5c0.5,3.4,0.5,7,0.5,10.5
	c0.1,9.3,0,18.5,0,28.7C186.3,97.9,204.5,97.9,224.5,97.9z"/>
<path d="M224.5,97.9c-20,0-38.1,0-57.8,0c0-10.2,0-19.5,0-28.7c0-3.5,0.1-7.1-0.5-10.5c-0.8-5.1-3.6-8.5-9.4-8.5
	c-14,0.1-28.1-0.2-42.1,0.1c-6.7,0.1-9.8,4.1-9.9,11.8c-0.1,10.5,0.4,21.1,0.4,31.6c-0.1,37.8-0.1,75.7-0.4,113.5
	c-0.1,12.1,2.9,15.7,14.7,15.8c11.3,0.2,22.6,0.2,33.9,0.1c9.5-0.1,12.7-3,13.2-12.5c0.5-7.8,0.4-15.6,0.1-23.4
	c-0.4-9.7-3.2-12.4-12.7-12.9c-3.5-0.2-7-0.2-10.5-0.4c-0.7,0-1.4-0.7-2.9-1.5c0-11,0-22.4,0-35.3c27-1.5,54.1-0.1,82.5-0.9
	c0.5,4.2,1.2,7.9,1.3,11.6c0.2,23.8,0.1,47.6,0.4,71.4c0.1,5.9-1.5,10.6-6.2,14.4c-11.1,9.2-22,18.7-33.3,27.7
	c-2.5,2-6.4,3.2-9.6,3.2c-25.7,0.2-51.5-0.1-77.2-0.1c-5.3,0-9.7-1.4-13.8-5c-10.5-9.3-21.3-18.3-32.2-27.1c-3.8-3-4.9-6.5-4.9-11.1
	c0.1-56.6,0.2-113.2,0.1-169.7c0-5.3,1.7-8.7,5.7-12c11.2-9.1,22-18.7,33.3-27.7c2.8-2.2,7-3.6,10.5-3.7c25.7-0.3,51.5-0.3,77.3-0.1
	c3.3,0,7.2,1,9.7,2.9c12.5,9.9,24.7,20.2,36.8,30.7c1.8,1.6,3.4,4.6,3.5,7C224.6,64.6,224.5,80.5,224.5,97.9z"/>
</svg>
