<?xml version="1.0" encoding="utf-8"?>
<!-- Generator: Adobe Illustrator 21.0.0, SVG Export Plug-In . SVG Version: 6.00 Build 0)  -->
<svg version="1.1"
	 id="Слой_1" xmlns:krita="http://krita.org/namespaces/svg/krita" xmlns:sodipodi="http://sodipodi.sourceforge.net/DTD/sodipodi-0.dtd"
	 xmlns="http://www.w3.org/2000/svg" xmlns:xlink="http://www.w3.org/1999/xlink" x="0px" y="0px" viewBox="0 0 272.2 272.2"
	 style="enable-background:new 0 0 272.2 272.2;" xml:space="preserve">
<path d="M41.2,0.5c23.3-0.7,46-0.7,69.9,0c0,36.1,0,70.6,0,106.3c4.6,0.7,8.3,1.6,11.9,1.7c9.4,0.2,18.7,0.3,28.1-0.1
	c8.3-0.3,9.3-1.4,9.4-9.8c0.1-23.8,0-47.6,0-71.3c0-8.5,0-17,0-26.7c24.6-0.6,47.7-0.7,72.3,0c0,8.1,0,14.6,0,21.2
	c0,77.6-0.1,155.2-0.1,232.8c0,1.9,0,3.9,0,5.8c-0.2,11.2-0.7,11.7-12,11.8c-16,0.1-32,0.1-48,0c-12-0.1-12-0.2-12.1-12.8
	c-0.1-26.9-0.1-53.8-0.2-80.7c0-2.7,0.6-5.7-0.2-8.1c-0.7-2.2-3-5.5-4.7-5.5c-14.3-0.7-28.6-0.7-44-0.1c0,5.4,0,9.2,0,13
	c0,27.3,0,54.6-0.1,81.9c0,11.9-0.4,12.3-12.6,12.3c-16,0.1-32,0-48,0c-3,0-6.1-0.4-8.9-0.7C39.1,261.4,38.4,20.2,41.2,0.5z
	 M103.9,263.9c0.3-4.3,0.6-7.3,0.6-10.4c0.1-27.7,0-55.4,0.1-83.1c0-11,2.7-13.8,13.8-13.9c11.3-0.2,22.6-0.1,33.9,0.1
	c12.3,0.1,15.5,3.7,15.5,16.4c-0.1,23.8-0.2,47.6-0.3,71.4c0,6.1,0,12.3,0,19.3c19.6,0,38.1,0,56.1,0c0.8-1.4,1.4-2,1.4-2.7
	c0.1-81.9,0.2-163.8,0.2-245.8c0-1.5-0.5-3-0.9-4.5c-0.1-0.4-0.4-0.7-0.7-0.9c-0.3-0.3-0.6-0.5-1.8-1.5c-17.1,0.7-35.3-0.5-53.6,0.8
	c-0.3,3.9-0.7,6.2-0.7,8.5c0,27.7,0,55.4,0.1,83.1c0,12-2.3,14.7-14.1,14.8c-11.7,0.1-23.4,0-35.1-0.2c-12.2-0.2-14.1-2.2-14-14.5
	c0.1-26.5,0.1-53.1,0-79.6c0-4.1-0.5-8.3-0.8-12c-19.5,0-37.6,0-56.6,0c0,85.4,0,169.7,0,254.8C66.3,263.9,84.4,263.9,103.9,263.9z"
	/>
<path d="M103.9,263.9c-19.5,0-37.6,0-56.7,0c0-85,0-169.4,0-254.8c18.9,0,37.1,0,56.6,0c0.3,3.8,0.8,7.9,0.8,12
	c0.1,26.5,0,53.1,0,79.6c0,12.3,1.8,14.3,14,14.5c11.7,0.2,23.4,0.3,35.1,0.2c11.8-0.1,14.1-2.8,14.1-14.8c0-27.7-0.1-55.4-0.1-83.1
	c0-2.3,0.4-4.6,0.7-8.5c18.3-1.3,36.4-0.1,53.6-0.8c1.2,1,1.5,1.2,1.8,1.5c0.3,0.3,0.6,0.6,0.7,0.9c0.3,1.5,0.9,3,0.9,4.5
	c0,81.9-0.1,163.8-0.2,245.8c0,0.7-0.7,1.3-1.4,2.7c-18.1,0-36.5,0-56.1,0c0-7,0-13.2,0-19.3c0.1-23.8,0.2-47.6,0.3-71.4
	c0.1-12.7-3.1-16.2-15.5-16.4c-11.3-0.1-22.6-0.2-33.9-0.1c-11.1,0.2-13.8,2.9-13.8,13.9c-0.1,27.7,0,55.4-0.1,83.1
	C104.5,256.6,104.2,259.6,103.9,263.9z"/>
</svg>
