<?xml version="1.0" encoding="utf-8"?>
<!-- Generator: Adobe Illustrator 21.0.0, SVG Export Plug-In . SVG Version: 6.00 Build 0)  -->
<svg version="1.1"
	 id="Слой_1" xmlns:krita="http://krita.org/namespaces/svg/krita" xmlns:sodipodi="http://sodipodi.sourceforge.net/DTD/sodipodi-0.dtd"
	 xmlns="http://www.w3.org/2000/svg" xmlns:xlink="http://www.w3.org/1999/xlink" x="0px" y="0px" viewBox="0 0 272.2 272.2"
	 style="enable-background:new 0 0 272.2 272.2;" xml:space="preserve">
<path d="M78.2,55c0-18,0-35.5,0-54.3c38.2-1.1,75.9-0.4,115-0.6c0.8,19.1,1,36.9,0,56c-6.8,0.5-12.9,0.9-20.6,1.5
	c-1.4,13.1-0.1,26.3-0.5,39.4c-0.3,12.9,0,25.8,0,38.7c0,13.3,0,26.6,0,39.9c0,12.8,0,25.6,0,39.1c7.6,0.7,13.6,1.2,20.6,1.9
	c1.8,18.5,1.2,36.7,0.2,55.5c-38.3,0-75.7,0-114,0c0-18.5,0-36.2,0-55.2c4.7-0.4,9.2-0.9,13.7-1.1c4.8-0.2,7.2-2.5,7.4-7.2
	c0.1-1.6,0-3.1,0-4.7c0-44.6,0.1-89.2,0.1-133.8c0-1.2,0-2.3-0.1-3.5c-0.4-8.7-1-9.3-9.4-9.7c-3.1-0.1-6.2-0.3-9.3-0.6
	C80.5,56.3,79.8,55.7,78.2,55z M185.8,8.5c-33.6-0.1-66.2-0.4-99.2,0c0,14.4,0,27.1,0,40.1c3.5,0.3,6.2,0.3,8.8,0.7
	c9,1.4,11.1,3.7,11.2,13.1c0.1,49.7,0.1,99.4,0,149.1c0,10-1,10.6-10.6,11.4c-3,0.2-6,0.5-9.6,0.9c0,14,0,27.4,0,40.6
	c28.9,3,92,1.6,99.4-1.7c0-13,0-25.8,0-38c-1.7-0.8-2.3-1.4-3.1-1.4c-17-1.7-17-1.7-17.2-18.5c0-1.2,0-2.3,0-3.5
	c0.1-43,0.3-86.1,0.3-129.1c0-20.2-0.1-20.2,20.1-24.4C185.8,35.3,185.8,22.6,185.8,8.5z"/>
<path d="M185.8,8.5c0,14.1,0,26.7,0,39.2c-20.1,4.2-20,4.2-20.1,24.4c0,43-0.2,86.1-0.3,129.1c0,1.2,0,2.3,0,3.5
	c0.2,16.8,0.2,16.8,17.2,18.5c0.7,0.1,1.4,0.6,3.1,1.4c0,12.3,0,25,0,38c-7.4,3.4-70.5,4.7-99.4,1.7c0-13.2,0-26.6,0-40.6
	c3.6-0.3,6.6-0.6,9.6-0.9c9.6-0.7,10.6-1.4,10.6-11.4c0.1-49.7,0.1-99.4,0-149.1c0-9.5-2.2-11.7-11.2-13.1c-2.6-0.4-5.3-0.4-8.8-0.7
	c0-13,0-25.7,0-40.1C119.6,8.2,152.1,8.4,185.8,8.5z"/>
</svg>
