<?xml version="1.0" encoding="utf-8"?>
<!-- Generator: Adobe Illustrator 21.0.0, SVG Export Plug-In . SVG Version: 6.00 Build 0)  -->
<svg version="1.1"
	 id="Слой_1" xmlns:krita="http://krita.org/namespaces/svg/krita" xmlns:sodipodi="http://sodipodi.sourceforge.net/DTD/sodipodi-0.dtd"
	 xmlns="http://www.w3.org/2000/svg" xmlns:xlink="http://www.w3.org/1999/xlink" x="0px" y="0px" viewBox="0 0 272.2 272.2"
	 style="enable-background:new 0 0 272.2 272.2;" xml:space="preserve">
<path d="M40.7,0.8c3.1-0.3,5.3-0.8,7.5-0.8c41.8,0,83.5,0.2,125.3-0.1c5.5,0,9.8,1.4,13.8,4.8c12.6,10.5,25.2,21,37.9,31.2
	c4.7,3.8,6.3,8.2,6.3,14.2c-0.2,57.4-0.2,114.8,0,172.2c0,6.5-2.2,10.9-7.2,15c-12.1,9.9-23.5,20.5-35.5,30.4
	c-2.8,2.3-6.9,4.2-10.4,4.2c-44.5,0.2-89,0.1-133.5,0c-1.1,0-2.2-0.6-4.3-1.3 M48.7,263.3c2.2,0.8,2.9,1.2,3.7,1.2
	c40.6,0.1,81.3,0.2,121.9,0.4c5.9,0,10.4-2.2,14.8-5.9c8.6-7.4,17.3-14.6,26.2-21.6c6.2-5,8.9-10.8,8.8-19.2
	c-0.4-53.1-0.2-106.3-0.2-159.4c0-2.7-0.1-5.5-0.1-8.2c0.1-4.2-1.2-7.3-4.6-10.1c-10.9-8.9-21.6-18-32.2-27.2
	c-4.3-3.7-8.8-5.4-14.8-5.4C134.3,8.3,96.4,8.1,58.5,8.1c-3,0-6,0.4-9.8,0.6C48.7,94,48.7,178.5,48.7,263.3z"/>
<path d="M48.7,263.3c0-84.8,0-169.4,0-254.6c3.8-0.2,6.8-0.6,9.8-0.6c37.9,0,75.8,0.1,113.7-0.2c6,0,10.5,1.7,14.8,5.4
	c10.6,9.2,21.3,18.3,32.2,27.2c3.4,2.8,4.7,6,4.6,10.1c-0.1,2.7,0.1,5.5,0.1,8.2c0,53.1-0.2,106.3,0.2,159.4
	c0.1,8.3-2.6,14.2-8.8,19.2c-8.8,7.1-17.6,14.3-26.2,21.6c-4.3,3.7-8.9,5.9-14.8,5.9c-40.6-0.2-81.3-0.3-121.9-0.4
	C51.7,264.5,50.9,264.1,48.7,263.3z M166.3,136.4c0-23.8,0.1-47.6,0-71.4c0-12.5-2.1-14.4-14.1-14.4c-10.9,0-21.9,0-32.8,0
	c-12.4,0-14.4,1.9-14.4,14.1c0,48.4,0,96.8,0,145.2c0,10.4,2.6,13.3,12.9,13.5c11.3,0.3,22.6,0.2,34,0.1c12-0.1,14.4-2.6,14.4-14.5
	C166.3,184.8,166.3,160.6,166.3,136.4z"/>
<path d="M166.3,136.4c0,24.2,0,48.4,0,72.6c0,11.9-2.4,14.3-14.4,14.5c-11.3,0.1-22.6,0.2-34-0.1c-10.3-0.3-12.9-3.1-12.9-13.5
	c0-48.4,0-96.8,0-145.2c0-12.2,2-14.1,14.4-14.1c10.9,0,21.9,0,32.8,0c12,0,14.1,1.9,14.1,14.4C166.3,88.8,166.3,112.6,166.3,136.4z
	 M114.1,59.5c0,52.3,0,103.2,0,155c14.7,1,28.4,0.8,41.9,0.1c3-18.8,2.1-146.8-0.9-155.2C141.6,59.5,128.1,59.5,114.1,59.5z"/>
</svg>
