<?xml version="1.0" encoding="utf-8"?>
<!-- Generator: Adobe Illustrator 21.0.0, SVG Export Plug-In . SVG Version: 6.00 Build 0)  -->
<svg version="1.1"
	 id="Слой_1" xmlns:krita="http://krita.org/namespaces/svg/krita" xmlns:sodipodi="http://sodipodi.sourceforge.net/DTD/sodipodi-0.dtd"
	 xmlns="http://www.w3.org/2000/svg" xmlns:xlink="http://www.w3.org/1999/xlink" x="0px" y="0px" viewBox="0 0 272.2 272.2"
	 style="enable-background:new 0 0 272.2 272.2;" xml:space="preserve">
<path d="M38.9,1c23.3,0,45.4,0,68.4,0c8.8,54.5,16.8,109,27.2,165c2.2-2.6,3.3-3.3,3.4-4.1c3.6-21.5,7.1-43.1,10.7-64.7
	c2.6-15.3,5.6-30.5,8.1-45.9c2.1-13.1,3.8-26.3,5.8-39.4c1.7-11.8,1.8-11.9,14-12c15.7,0,31.3,0.1,47,0.3c3,0,6,0.7,9.8,1.1
	c-14.2,90.5-28.3,180.2-42.5,270.3c-4,0.2-7,0.5-10.1,0.5c-29.3,0-58.7,0-88-0.1c-11.8,0-12.1-0.9-13.9-12.2
	c-3.7-23.5-7.9-46.9-11.8-70.4c-1.8-10.7-3.4-21.5-5-32.3c-6.2-41.3-12.3-82.6-18.5-124C41.9,22.8,40.5,12.5,38.9,1z M87.1,264
	c3.8,0.5,6.1,1,8.4,1c25.4,0.1,50.9,0.2,76.3,0.2c12.5,0,13.7-1.4,15.3-13.9c1.9-15.1,4-30.2,6.4-45.2c4.8-30.1,9.9-60.1,14.9-90.2
	c1.8-10.8,3.5-21.5,5.2-32.3c2.3-15.4,4.7-30.8,6.8-46.2c1.3-9.4,2.4-18.9,3.6-29c-18.8,0-35.8,0-52.9,0
	c-6.1,36.1-12.3,71.4-18.2,106.8c-3.2,19.2-5.7,38.5-8.6,57.8c-0.3,1.9-0.6,3.9-1.5,5.6c-2.8,5.6-8.1,6.6-12.2,1.9
	c-1.9-2.2-3.5-5.3-3.9-8.1c-2.2-14.2-3.7-28.5-5.9-42.7C117,105.3,113,81,109.1,56.7c-2.2-13.5-4.6-26.9-6.8-40.4
	c-1.1-6.5-4.3-9.1-11.2-8.8C80.1,8.1,69.1,7.6,58.2,7.8c-3.3,0-6.6,0.5-11.2,0.8C60.4,94.3,73.7,178.7,87.1,264z"/>
<path d="M87.1,264C73.7,178.7,60.4,94.3,47,8.6c4.6-0.4,7.9-0.8,11.2-0.8c11-0.1,21.9,0.3,32.9-0.2c6.9-0.4,10.2,2.2,11.2,8.8
	c2.2,13.5,4.6,27,6.8,40.4c4,24.3,8,48.6,11.7,72.9c2.2,14.2,3.7,28.5,5.9,42.7c0.4,2.9,2,5.9,3.9,8.1c4.1,4.6,9.4,3.7,12.2-1.9
	c0.8-1.7,1.2-3.7,1.5-5.6c2.9-19.3,5.5-38.6,8.6-57.8c5.8-35.4,12-70.7,18.2-106.8c17.1,0,34.1,0,52.9,0c-1.2,10-2.3,19.5-3.6,29
	c-2.2,15.4-4.5,30.8-6.8,46.2c-1.6,10.8-3.4,21.6-5.2,32.3c-5,30.1-10.1,60.1-14.9,90.2c-2.4,15-4.5,30.1-6.4,45.2
	c-1.6,12.5-2.7,13.9-15.3,13.9c-25.4,0-50.9-0.1-76.3-0.2C93.2,264.9,90.9,264.4,87.1,264z"/>
</svg>
