<?xml version="1.0" encoding="utf-8"?>
<!-- Generator: Adobe Illustrator 21.0.0, SVG Export Plug-In . SVG Version: 6.00 Build 0)  -->
<svg version="1.1"
	 id="Слой_1" xmlns:krita="http://krita.org/namespaces/svg/krita" xmlns:sodipodi="http://sodipodi.sourceforge.net/DTD/sodipodi-0.dtd"
	 xmlns="http://www.w3.org/2000/svg" xmlns:xlink="http://www.w3.org/1999/xlink" x="0px" y="0px" viewBox="0 0 272.2 272.2"
	 style="enable-background:new 0 0 272.2 272.2;" xml:space="preserve">
<path d="M232.4,271.1c-3.4,0.3-6.5,0.8-9.5,0.8c-16.7,0.1-33.5-0.3-50.2,0.2c-6.9,0.2-10.7-2.4-13.5-8.5
	c-12.2-26.5-24.6-52.8-37-79.2c-4.5-9.7-9.3-19.2-16.2-28.8c-0.6,2.2-1.6,4.4-1.6,6.6c0.1,33.9,0.4,67.8,0.5,101.6
	c0,2.2-0.7,4.4-1.3,8.1c-6.4,0-12.5,0-18.7,0c-12.1,0-24.2,0.1-36.2-0.1c-10-0.2-10.2-0.7-10.5-11c0-0.8,0-1.6,0-2.3
	c0-82.6,0-165.2,0.1-247.7c0-2.7,0-5.4,0-9.4c4.5-0.4,8.6-1.1,12.7-1.2c16-0.1,32,0.4,47.9-0.3c7.6-0.3,11.3,2.9,14.2,9.2
	c14.7,31.7,29.6,63.3,44.4,94.9c1.6,3.4,3.8,6.5,7,9.4c3.7-37.1,2.3-74.1,2.4-110.8c9.1-3,52.3-3.4,65.2-0.9
	C234.3,9.9,234.8,257.3,232.4,271.1z M225.3,263.2c0.4-2.3,0.9-4.2,0.9-6c0-79.5,0-158.9-0.1-238.4c0-3.3-0.9-6.5-1.3-9.5
	c-17.2,0-32.9,0-49.1,0c-0.2,3.1-0.6,5.4-0.6,7.6c0,32.3-0.1,64.7,0.3,97c0.1,7.7-2,12.8-9.4,15.2c-5.7-1.5-7.7-6.2-9.9-10.8
	c-8-17.2-16.1-34.5-24.1-51.7c-7.7-16.5-15.3-33.1-23.2-49.5c-1.9-4-3.6-8.8-9.7-8.8C83.7,8.6,68.2,8.6,52.6,8.6c-5,0-7,2.5-6.9,7.2
	c0.1,2.3,0.1,4.7,0.1,7c0,76,0,151.9,0,227.9c0,4.1,0,8.2,0,13.5c17.9,0.2,34.4,0.6,51.1-0.3c0.3-4.2,0.6-6.9,0.6-9.6
	c0.1-31.9,0.2-63.9,0.3-95.8c0-2.3-0.8-5,0.1-6.9c1.4-2.9,3.7-6.8,6.2-7.4c2.4-0.6,6.6,1.8,8.5,4.1c2.8,3.5,4.4,8.1,6.4,12.3
	c15.1,32.4,30.4,64.7,45.2,97.2c2.4,5.2,5.5,6.7,10.8,6.6c14.4-0.2,28.8-0.1,43.2-0.2C220.4,264.2,222.7,263.6,225.3,263.2z"/>
<path d="M225.3,263.2c-2.6,0.4-4.8,0.9-7.1,1c-14.4,0.1-28.8,0-43.2,0.2c-5.3,0.1-8.4-1.4-10.8-6.6c-14.9-32.5-30.1-64.8-45.2-97.2
	c-2-4.2-3.6-8.8-6.4-12.3c-1.9-2.3-6-4.7-8.5-4.1c-2.6,0.6-4.8,4.5-6.2,7.4c-0.9,1.9-0.1,4.6-0.1,6.9c-0.1,31.9-0.2,63.9-0.3,95.8
	c0,2.7-0.3,5.3-0.6,9.6c-16.8,0.9-33.2,0.5-51.1,0.3c0-5.3,0-9.4,0-13.5c0-76,0-151.9,0-227.9c0-2.3,0-4.7-0.1-7
	c-0.1-4.7,1.9-7.2,6.9-7.2c15.6,0,31.2,0,46.7-0.2c6.1-0.1,7.7,4.8,9.7,8.8c7.9,16.4,15.5,33,23.2,49.5c8,17.2,16.1,34.5,24.1,51.7
	c2.1,4.6,4.1,9.3,9.9,10.8c7.4-2.4,9.5-7.6,9.4-15.2c-0.4-32.3-0.3-64.7-0.3-97c0-2.3,0.3-4.5,0.6-7.6c16.2,0,31.9,0,49.1,0
	c0.4,2.9,1.3,6.2,1.3,9.5c0.1,79.5,0.1,158.9,0.1,238.4C226.2,259.1,225.6,260.9,225.3,263.2z"/>
</svg>
