<?xml version="1.0" encoding="utf-8"?>
<!-- Generator: Adobe Illustrator 21.0.0, SVG Export Plug-In . SVG Version: 6.00 Build 0)  -->
<svg version="1.1"
	 id="Слой_1" xmlns:krita="http://krita.org/namespaces/svg/krita" xmlns:sodipodi="http://sodipodi.sourceforge.net/DTD/sodipodi-0.dtd"
	 xmlns="http://www.w3.org/2000/svg" xmlns:xlink="http://www.w3.org/1999/xlink" x="0px" y="0px" viewBox="0 0 272.2 272.2"
	 style="enable-background:new 0 0 272.2 272.2;" xml:space="preserve">
<g id="XMLID_1_">
</g>
<path d="M50.6,0c58,0.1,114.4-0.1,172,0.1c0,16.1,0.3,30.5-0.2,44.9c-0.1,3.7-2.4,7.4-4.2,10.9c-26,51-52,101.9-78,152.9
	c-0.7,1.3-1,2.8-1.8,5.6c4,0.4,7.2,1,10.5,1.1c20.8,0.1,41.6,0,62.5,0.1c10.8,0,11.3,0.6,11.4,11.3c0.1,12.2,0.1,24.4,0,36.5
	c0,2.6-0.6,5.3-1.1,8.8c-56.8,0-113.2,0-171,0c-0.2-4.3-0.2-8.9-0.7-13.4c-2.8-24,4.5-44.9,16.1-65.9c22-39.8,41.9-80.7,62.7-121.1
	c2.1-4.1,3.6-8.4,6.2-14.9c-29.2,0-56.4,0-84.3,0C50.6,37.3,50.6,19.5,50.6,0z M215.6,265.8c0-13.3,0.1-24.6,0-35.9
	c0-4.8-2.3-6.8-7.4-6.7c-16.5,0.3-33,0.2-49.5,0.2c-6.7,0-13.4,0.2-20-0.5c-8.1-0.9-10.8-6.2-7.3-13.1c5.3-10.5,10.9-20.8,16.3-31.3
	c21.7-42.6,43.6-85,64.8-127.8c6.7-13.5,3.3-28,2-42.3c-52.5,0-103.7,0-156.7,0c0.7,13.8-1.4,26.8,1.3,40.1c3.7,0.4,6.4,0.9,9,0.9
	c16.5,0.1,33,0,49.5,0.1c5.5,0,11-0.3,16.4,0.5c6.6,0.9,9.2,5.6,7.2,12c-0.7,2.2-2.1,4.2-3.2,6.3c-24.1,47.1-48.1,94.2-72.1,141.3
	c-2.8,5.5-6.8,11.1-7.4,17c-1.1,12.4-0.3,24.9-0.3,38.8C110.4,266.4,162,266.3,215.6,265.8z"/>
<path d="M215.6,265.8c-53.6,0.5-105.2,0.6-157.4-0.4c0-13.9-0.8-26.5,0.3-38.8c0.5-5.8,4.6-11.5,7.4-17
	c24-47.1,48.1-94.2,72.1-141.3c1.1-2.1,2.5-4.1,3.2-6.3c2-6.4-0.6-11.1-7.2-12c-5.4-0.7-11-0.4-16.4-0.5c-16.5-0.1-33,0-49.5-0.1
	c-2.7,0-5.3-0.5-9-0.9c-2.7-13.3-0.6-26.3-1.3-40.1c53,0,104.2,0,156.7,0c1.4,14.2,4.8,28.7-2,42.3c-21.2,42.8-43.1,85.2-64.8,127.8
	c-5.3,10.5-11,20.8-16.3,31.3c-3.5,6.9-0.8,12.2,7.3,13.1c6.6,0.8,13.3,0.5,20,0.5c16.5,0,33,0.1,49.5-0.2c5.1-0.1,7.4,1.9,7.4,6.7
	C215.6,241.2,215.6,252.5,215.6,265.8z"/>
</svg>
