<?xml version="1.0" encoding="utf-8"?>
<!-- Generator: Adobe Illustrator 21.0.0, SVG Export Plug-In . SVG Version: 6.00 Build 0)  -->
<svg version="1.1"
	 id="Слой_1" xmlns:krita="http://krita.org/namespaces/svg/krita" xmlns:sodipodi="http://sodipodi.sourceforge.net/DTD/sodipodi-0.dtd"
	 xmlns="http://www.w3.org/2000/svg" xmlns:xlink="http://www.w3.org/1999/xlink" x="0px" y="0px" viewBox="0 0 272.2 272.2"
	 style="enable-background:new 0 0 272.2 272.2;" xml:space="preserve">
<path d="M241.4,271.9c-23,0-43.6,0-64.2,0c-4.3,0-7.4-1.4-9.4-5.5c-2.9-5.9-6.1-11.7-9.2-17.5c-12.1-23.1-24.1-46.2-36.2-69.3
	c-1.5-2.8-2.3-6.9-8.3-6.1c0,32.1,0,64.1,0,95.7c-9.1,3.2-56.4,4-70.4,1.5c-2.7-9.3-2.8-259,0-269.6c23,0,46.1,0,70.4,0
	c0,33.3,0,65.8,0,98.4c5.9,0.6,6.5-3.4,8-6.3c14.1-27.3,28.4-54.5,42.1-82c3.9-8,8.6-11.5,17.8-11.1c19,0.7,38,0.2,58.4,0.2
	c-1.3,3.6-1.9,6-3.1,8.2c-20.5,39.8-40.9,79.6-61.8,119.1c-3.3,6.3-3.4,11.2-0.1,17.3c15.2,28.5,30.1,57.1,45,85.7
	C227.2,243.6,233.7,256.7,241.4,271.9z M106.6,264c0-34.8,0-68.1,0-101c10.7-4.3,12-4,16.3,3.2c1.4,2.3,2.6,4.8,3.9,7.2
	c14.2,27.2,28.5,54.3,42.4,81.7c3.4,6.7,7.5,9.9,15.3,9.4c12-0.7,24.1-0.2,36.2-0.4c2.4,0,4.9-1,8.1-1.7
	c-22.3-43-44-84.9-65.4-126.3c11.3-21.6,22.3-42.2,32.8-63c10.5-21,22.7-41.1,32.4-64.6c-16.1,0-30,0.6-43.9-0.2
	c-8.4-0.5-12.9,2.9-16.4,9.9c-8.7,17.4-17.8,34.6-26.7,51.8c-6.4,12.4-12.7,24.8-19.4,37.1c-1.8,3.3-4.1,7.3-9,5.8
	c-4.6-1.4-6.7-5-6.8-9.8c0-3.5-0.2-7-0.2-10.5c0-23.8,0-47.5,0.1-71.3c0-3.8,0-7.5,0-12.9C86.3,9.1,67.6,7.2,48.7,9.9
	c0,85,0,168.7,0,253.5C67.9,265,86.7,264.4,106.6,264z"/>
<path d="M106.6,264c-19.9,0.4-38.7,1-57.9-0.6c0-84.8,0-168.5,0-253.5c18.9-2.7,37.6-0.8,57.8-1.5c0,5.4,0,9.2,0,12.9
	c0,23.8-0.1,47.5-0.1,71.3c0,3.5,0.2,7,0.2,10.5c0,4.8,2.1,8.4,6.8,9.8c4.9,1.5,7.2-2.5,9-5.8c6.6-12.3,13-24.7,19.4-37.1
	c8.9-17.3,18-34.5,26.7-51.8c3.5-7,8-10.3,16.4-9.9c13.9,0.8,27.9,0.2,43.9,0.2c-9.7,23.5-22,43.7-32.4,64.6
	c-10.4,20.9-21.5,41.4-32.8,63c21.4,41.3,43.1,83.3,65.4,126.3c-3.3,0.7-5.7,1.6-8.1,1.7c-12.1,0.2-24.2-0.3-36.2,0.4
	c-7.9,0.5-11.9-2.7-15.3-9.4c-13.9-27.4-28.2-54.5-42.4-81.7c-1.3-2.4-2.5-4.9-3.9-7.2c-4.4-7.2-5.7-7.5-16.3-3.2
	C106.6,195.9,106.6,229.2,106.6,264z"/>
</svg>
