<?xml version="1.0" encoding="utf-8"?>
<!-- Generator: Adobe Illustrator 21.0.0, SVG Export Plug-In . SVG Version: 6.00 Build 0)  -->
<svg version="1.1"
	 id="Слой_1" xmlns:krita="http://krita.org/namespaces/svg/krita" xmlns:sodipodi="http://sodipodi.sourceforge.net/DTD/sodipodi-0.dtd"
	 xmlns="http://www.w3.org/2000/svg" xmlns:xlink="http://www.w3.org/1999/xlink" x="0px" y="0px" viewBox="0 0 272.2 272.2"
	 style="enable-background:new 0 0 272.2 272.2;" xml:space="preserve">
<g id="XMLID_1_">
</g>
<path d="M174.2,272.2c-25.8,0-50.3,0-75.7,0c-0.4-2.8-1.1-5.4-1.1-7.9c0-29.4,0.5-58.7,0-88.1c-0.1-7.5-2.8-15.2-5.4-22.5
	C74.1,103,55.8,52.4,37.3,1c3-0.3,5.5-0.9,8.1-0.9C64.2,0.1,83,0.2,101.8,0c6.8-0.1,10.5,2.4,12.7,9.3c5.1,16,11.1,31.6,16.9,47.4
	c0.8,2.3,2.9,4.1,5.8,8.1c2.7-5.5,4.8-9.1,6.1-12.9c5.1-14.3,10.4-28.6,14.9-43.1c1.6-5.2,3.8-8.4,9.5-8.4c21.5,0,43.1,0.1,64.6,0.2
	c0.6,0,1.3,0.7,2.7,1.6c-4.6,13.3-9.1,26.9-13.9,40.4c-9.6,27.2-19.2,54.3-28.9,81.4c-4.5,12.5-9.6,24.7-13.7,37.3
	c-2,6.2-3.4,12.9-3.4,19.4c-0.3,25.8,0,51.7,0,77.5C175,262.7,174.5,267.2,174.2,272.2z M49.3,7.6c0.3,3.5,0.1,5.5,0.7,7.3
	c5.8,17,11.7,33.9,17.8,50.8c11.1,30.8,22,61.7,33.5,92.3c3.8,10.2,4.6,20.4,4.5,31c-0.2,21.9-0.1,43.9,0,65.8c0,3,0.3,6.1,0.6,10.6
	c20.2-0.5,39.9,0.9,59.8-0.8c0.3-3.5,0.7-5.8,0.7-8.1c0.1-25.5-0.1-50.9,0.3-76.4c0.1-5.7,1.4-11.6,3.2-17
	c5.5-16.3,11.6-32.3,17.4-48.5c10-27.9,20.4-55.6,29.5-83.8c2.2-6.9,8-13.6,4.5-23.1c-16.4,0-32.7,0-49.1,0c-5.3,0-7.6,3.5-9,7.8
	c-3.7,10.6-7.2,21.4-10.9,32c-2.6,7.4-5.2,14.8-8.7,21.8c-1.3,2.7-5,5.8-7.6,5.8c-2.7,0-5.6-3.4-8.1-5.7c-1-0.9-1-2.9-1.6-4.3
	c-5.7-16.2-11.5-32.4-17.2-48.6c-1.8-5.1-4.3-9-10.7-8.9C82.8,7.7,66.8,7.6,49.3,7.6z"/>
<path d="M49.3,7.6c17.5,0,33.5,0.1,49.6-0.1c6.4-0.1,8.9,3.7,10.7,8.9c5.7,16.2,11.5,32.4,17.2,48.6c0.5,1.5,0.6,3.4,1.6,4.3
	c2.5,2.3,5.3,5.7,8.1,5.7c2.6,0,6.3-3.1,7.6-5.8c3.5-7,6-14.4,8.7-21.8c3.8-10.6,7.2-21.3,10.9-32c1.5-4.3,3.8-7.8,9-7.8
	c16.4,0,32.8,0,49.1,0c3.5,9.5-2.3,16.3-4.5,23.1c-9.1,28.2-19.5,55.9-29.5,83.8c-5.8,16.2-11.9,32.2-17.4,48.5
	c-1.8,5.4-3.2,11.3-3.2,17c-0.4,25.5-0.2,50.9-0.3,76.4c0,2.3-0.4,4.6-0.7,8.1c-19.9,1.7-39.6,0.3-59.8,0.8
	c-0.3-4.6-0.6-7.6-0.6-10.6c-0.1-21.9-0.2-43.9,0-65.8c0.1-10.6-0.6-20.8-4.5-31c-11.5-30.6-22.5-61.5-33.5-92.3
	C61.7,48.7,55.8,31.8,50,14.8C49.4,13.1,49.6,11,49.3,7.6z"/>
</svg>
