<?xml version="1.0" encoding="utf-8"?>
<!-- Generator: Adobe Illustrator 21.0.0, SVG Export Plug-In . SVG Version: 6.00 Build 0)  -->
<svg version="1.1"
	 id="Слой_1" xmlns:krita="http://krita.org/namespaces/svg/krita" xmlns:sodipodi="http://sodipodi.sourceforge.net/DTD/sodipodi-0.dtd"
	 xmlns="http://www.w3.org/2000/svg" xmlns:xlink="http://www.w3.org/1999/xlink" x="0px" y="0px" viewBox="0 0 272.2 272.2"
	 style="enable-background:new 0 0 272.2 272.2;" xml:space="preserve">
<path d="M137.1,109.1c4.5-10.7,8.3-18.7,11.3-26.9c9.2-25.2,18.2-50.4,27.1-75.7c1.4-3.9,3.7-6.1,7.5-6.1c24.5-0.1,49-0.1,74-0.1
	c0.6,3.8,1.3,6.3,1.3,8.9c0.1,83.9,0.1,167.8,0.1,251.7c0,10.6-0.7,11.1-11.4,11.2c-17.5,0.1-35,0-54.3,0
	c-0.4-35.7-0.8-70.5-1.1-105.3c-0.9-0.1-1.8-0.3-2.8-0.4c-4.8,16.6-9.8,33.1-14.5,49.8c-4.6,16.5-8.8,33.1-13.1,49.6
	c-1.2,4.6-4.5,6.2-8.7,6.2c-10.5,0.1-21.1-0.1-31.6-0.1c-6.1,0-8.1-4.4-9.4-8.9c-4.8-16.8-9.4-33.7-13.9-50.6
	c-3.3-12.3-6.4-24.7-9.8-37c-0.4-1.6-2.2-2.8-3.2-4.2c-5.4,2.7-3.7,7-3.7,10.6c-0.1,25.4-0.1,50.7-0.2,76.1c0,2.7,0.4,5.7-0.5,8.1
	c-0.8,2.2-3.1,5.4-4.8,5.4c-19.8,0.4-39.6,0.2-58.9,0.2c-2.6-9.7-3.3-255.6-1-271.1c26.1,0,52.4,0,79.4,0c6.5,18,12.4,36.5,20,54.2
	C122,72.2,125.4,90.9,137.1,109.1z M250.7,8.3c-22.1,0-42-0.1-61.8,0.1c-4.9,0-7.7,3-9.2,7.6c-3.2,9.6-6.5,19.1-10,28.6
	c-8.2,22.2-16.7,44.3-24.9,66.5c-1.6,4.4-4.1,8.8-8.8,7.4c-3.4-1-6.9-4.9-8.5-8.4c-3.8-8.4-6.4-17.3-9.6-26
	c-9.2-25-18.5-50.1-28-75.8C67.1,8.5,45.1,7.4,22.4,9.1c0,85.2,0,169.2,0,255.1c16.8,0.6,33.6,0.7,50.9,0c0.3-4.7,0.6-7.7,0.6-10.8
	c0-29.6-0.1-59.3-0.2-88.9c0-9.5,1.8-13.5,6.7-14.5c4.6-0.9,9.4,3.7,11.4,11.2c3.2,11.9,6.2,23.9,9.4,35.9
	c5.9,22.1,11.9,44.2,18.2,67.5c8.3,0,16.4,0.1,24.5,0c8.5-0.1,10.8-2,13-10.3c4.6-17.3,9.1-34.6,13.7-51.8
	c4.1-15.3,8.2-30.7,12.9-45.9c0.8-2.7,4.8-6.5,6.8-6.2c3.1,0.4,6.5,3.4,8.6,6.2c1.4,1.8,0.9,5.2,0.9,8c0.1,8.6,0,17.2,0,25.7
	c0,24.1,0,48.2,0,72.1c10.5,3.2,40.1,3.2,50.9-0.1C251.3,178.4,251.3,94.3,250.7,8.3z"/>
<path d="M250.7,8.3c0.6,86,0.6,170,0,253.8c-10.8,3.3-40.3,3.3-50.9,0.1c0-23.9,0-48,0-72.1c0-8.6,0.1-17.2,0-25.7
	c0-2.7,0.5-6.1-0.9-8c-2.1-2.8-5.5-5.8-8.6-6.2c-2.1-0.3-6,3.5-6.8,6.2c-4.7,15.2-8.7,30.6-12.9,45.9c-4.6,17.3-9.1,34.6-13.7,51.8
	c-2.2,8.3-4.5,10.1-13,10.3c-8.1,0.1-16.2,0-24.5,0c-6.3-23.3-12.3-45.4-18.2-67.5c-3.2-11.9-6.2-23.9-9.4-35.9
	c-2-7.6-6.9-12.1-11.4-11.2c-4.9,1-6.7,5.1-6.7,14.5c0.1,29.6,0.2,59.3,0.2,88.9c0,3-0.3,6.1-0.6,10.8c-17.3,0.6-34.1,0.6-50.9,0
	V9.1c22.8-1.7,44.8-0.6,67.5-0.8c9.5,25.7,18.7,50.7,28,75.8c3.2,8.7,5.8,17.6,9.6,26c1.6,3.5,5.1,7.4,8.5,8.4
	c4.8,1.4,7.2-3.1,8.8-7.4c8.9-23.9,18-47.7,26.8-71.7c2.9-7.8,5.4-15.8,8.2-23.6c1.6-4.4,4.4-7.3,9.1-7.3
	C208.7,8.3,228.6,8.3,250.7,8.3z"/>
</svg>
