<?xml version="1.0" encoding="utf-8"?>
<!-- Generator: Adobe Illustrator 21.0.0, SVG Export Plug-In . SVG Version: 6.00 Build 0)  -->
<svg version="1.1"
	 id="Слой_1" xmlns:krita="http://krita.org/namespaces/svg/krita" xmlns:sodipodi="http://sodipodi.sourceforge.net/DTD/sodipodi-0.dtd"
	 xmlns="http://www.w3.org/2000/svg" xmlns:xlink="http://www.w3.org/1999/xlink" x="0px" y="0px" viewBox="0 0 272.2 272.2"
	 style="enable-background:new 0 0 272.2 272.2;" xml:space="preserve">
<path d="M126.2,0.5c0,5.4,0,8.8,0,12.3c0,62.3,0,124.7,0,187c0,2.3,0.1,4.7-0.1,7c-0.3,5.3,2.1,8,7.5,8.1c4.7,0.1,9.3,0.3,14,0.3
	c19.9,0,39.7-0.1,59.6-0.2c10.2,0,10.7,0.5,10.8,10.4c0.1,14.7,0,29.5,0,43.8c-8.9,3.1-143.3,4.1-163,1.4c-0.4-3.7-1.1-7.7-1.1-11.8
	c-0.1-82.2,0-164.4,0-246.6c0-3.4,0.4-6.8,0.7-11.3C78.4-0.5,101.5,0.1,126.2,0.5z M118.9,220.5c0-71.2,0-141.1,0-211.5
	C99.3,9,81.3,9,63.4,9c-2.9,9.7-3.7,237.7-1.2,253.4c12,3.1,138.2,2.7,146.9-0.4c0-13.1,0-26.1,0-39.4c-3.3-0.3-5.5-0.7-7.8-0.7
	c-21.8,0-43.6,0.2-65.4,0.1C130.7,221.9,125.4,221.1,118.9,220.5z"/>
<path d="M118.9,220.5c6.6,0.6,11.8,1.4,17.1,1.4c21.8,0.1,43.6-0.1,65.4-0.1c2.3,0,4.5,0.4,7.8,0.7c0,13.3,0,26.3,0,39.4
	c-8.6,3.1-134.9,3.5-146.9,0.4C59.8,246.7,60.6,18.7,63.4,9c17.8,0,35.9,0,55.4,0C118.9,79.4,118.9,149.3,118.9,220.5z"/>
</svg>
