<?xml version="1.0" encoding="utf-8"?>
<!-- Generator: Adobe Illustrator 21.0.0, SVG Export Plug-In . SVG Version: 6.00 Build 0)  -->
<svg version="1.1"
	 id="Слой_1" xmlns:krita="http://krita.org/namespaces/svg/krita" xmlns:sodipodi="http://sodipodi.sourceforge.net/DTD/sodipodi-0.dtd"
	 xmlns="http://www.w3.org/2000/svg" xmlns:xlink="http://www.w3.org/1999/xlink" x="0px" y="0px" viewBox="0 0 272.2 272.2"
	 style="enable-background:new 0 0 272.2 272.2;" xml:space="preserve">
<path d="M229.4,272.2c-25.1,0-47.7,0-70.3,0c-5.2,0-7.4-3.5-9.2-7.6c-9.4-22.2-18.8-44.4-28.3-66.5c-1.3-3.1-3-6-4.5-8.9
	c-5.2,1.5-4.1,4.9-4.1,7.8c0.1,23.4,0.3,46.8,0.4,70.2c0,1.1-0.5,2.2-0.9,4.2c-23.4,0-46.9,0-71,0c0-90.3,0-179.8,0-270.8
	C48.1,0.2,54.2,0,60.3,0C98.1,0,136,0.2,173.8,0c5,0,9,1.2,12.7,4.4C199.3,15.4,212,26.4,225,37c4,3.3,5.7,6.9,5.7,12
	c-0.2,25.8,0.1,51.5-0.2,77.3c0,3.4-2.1,7.4-4.5,10c-4.8,5-10.5,9.2-15.9,13.8c-6.5,5.6-13,11.2-19.4,16.8c-3,2.6-4.1,5.4-2.4,9.3
	c9,20.7,18,41.4,26.9,62.1C219.7,248.8,224.1,259.4,229.4,272.2z M104.9,263.4c0.2-4.1,0.5-6.8,0.5-9.5c0-19.9,0-39.8,0-59.7
	c0-2.7,0.2-5.5,0.1-8.2c-0.4-5.3,1.4-9.7,6.6-11c5.4-1.4,8.4,2.3,10.4,7.1c10.2,24,20.5,47.9,30.7,71.9c3.8,9,4.9,9.9,14.6,9.9
	c14.4,0.1,28.9,0.2,43.3,0.2c2,0,4.1-0.8,6.8-1.3c-12.5-29.1-24.5-57.3-36.6-85.5c-3.6-8.4-3.7-8.5,3.6-14.6
	c10.5-8.8,20.9-17.6,31.5-26.2c4.5-3.7,6.7-7.7,6.6-14c-0.5-24.2-0.1-48.4-0.5-72.6c0-3.1-1.4-7.1-3.6-9.1
	c-11.3-10.2-22.9-20-34.9-29.4c-3-2.4-7.8-3.6-11.8-3.7C134.3,7.5,96.4,7.5,58.5,7.6c-2.6,0-5.2,0.7-7.8,1.1c0,85.2,0,169.6,0,254.7
	C69,263.4,86.4,263.4,104.9,263.4z"/>
<path d="M104.9,263.4c-18.5,0-35.8,0-54.1,0c0-85.1,0-169.6,0-254.7c2.6-0.4,5.2-1.1,7.8-1.1c37.9-0.1,75.8-0.2,113.6,0.1
	c4,0,8.7,1.3,11.8,3.7c12,9.4,23.6,19.3,34.9,29.4c2.2,2,3.6,6,3.6,9.1c0.3,24.2,0,48.4,0.5,72.6c0.1,6.2-2.1,10.3-6.6,14
	c-10.6,8.6-21,17.4-31.5,26.2c-7.3,6.1-7.2,6.2-3.6,14.6c12.1,28.2,24.1,56.4,36.6,85.5c-2.7,0.6-4.8,1.3-6.8,1.3
	c-14.4,0-28.9-0.1-43.3-0.2c-9.7,0-10.8-0.9-14.6-9.9c-10.2-24-20.5-47.9-30.7-71.9c-2-4.7-5-8.4-10.4-7.1c-5.2,1.3-7,5.7-6.6,11
	c0.2,2.7-0.1,5.5-0.1,8.2c0,19.9,0.1,39.8,0,59.7C105.3,256.6,105.1,259.3,104.9,263.4z M105.5,86.6c0,9-0.2,18,0.1,26.9
	c0.2,7.3,2.8,10.9,9.3,11.1c14.4,0.5,28.9,0.4,43.3,0c5.3-0.1,8.6-3.8,8.6-9.3c0.1-18.7,0-37.5,0-56.2c0-5.8-2.8-8.5-8.7-8.4
	c-14.4,0.1-28.9-0.3-43.3,0c-8.1,0.2-9,1.5-9.3,10.1C105.3,69.4,105.5,78,105.5,86.6z"/>
<path d="M105.5,86.6c0-8.6-0.2-17.2,0-25.8c0.2-8.6,1.2-9.9,9.3-10.1c14.4-0.3,28.9,0,43.3,0c5.8,0,8.7,2.6,8.7,8.4
	c0,18.7,0.1,37.5,0,56.2c0,5.5-3.3,9.1-8.6,9.3c-14.4,0.4-28.9,0.5-43.3,0c-6.5-0.2-9.1-3.8-9.3-11.1
	C105.3,104.5,105.5,95.6,105.5,86.6z M114.3,58.9c0,19.6,0,37.7,0,57.5c14.5,0.6,28.5,0.7,43.5-0.1c-0.2-20.1,1-38.6-0.5-57.4
	C142.5,58.9,129.1,58.9,114.3,58.9z"/>
</svg>
