<?xml version="1.0" encoding="utf-8"?>
<!-- Generator: Adobe Illustrator 21.0.0, SVG Export Plug-In . SVG Version: 6.00 Build 0)  -->
<svg version="1.1"
	 id="Слой_1" xmlns:krita="http://krita.org/namespaces/svg/krita" xmlns:sodipodi="http://sodipodi.sourceforge.net/DTD/sodipodi-0.dtd"
	 xmlns="http://www.w3.org/2000/svg" xmlns:xlink="http://www.w3.org/1999/xlink" x="0px" y="0px" viewBox="0 0 272.2 272.2"
	 style="enable-background:new 0 0 272.2 272.2;" xml:space="preserve">
<path d="M231.8,271.9c-23.2,0-46.1,0-70.4,0c0-28.9,0-56.9,0-85.8c-17.3,0-33.1,0-49.8,0c-2.8,9.1-1.3,18.4-1.5,27.6
	c-0.3,9.8-0.1,19.6-0.1,29.4c0,9.3,0,18.6,0,28.8c-23.7,0-46.1,0-69.5,0c-0.4-3.5-1.1-6.5-1.1-9.4c-0.1-70.5-0.1-141-0.2-211.5
	c0-7.2,2.2-12.3,8.2-16.9c12.2-9.2,23.8-19.1,35.4-29c4.4-3.7,8.8-5.4,14.8-5.3c25.5,0.4,50.9,0,76.4,0.3c4.8,0.1,10.5,1,14.1,3.8
	c13.6,10.6,26.4,22.1,39.5,33.2c3.9,3.3,5.5,7.1,5.5,12.3c-0.1,72.9-0.1,145.7-0.1,218.6C232.9,268.8,232.5,269.5,231.8,271.9z
	 M225.8,264.6c0-5.8,0-10.4,0-15c0-59.1,0-118.3,0-177.4c0-7,0.4-14.1-0.2-21.1c-0.4-3.5-1.9-7.8-4.5-10.1
	c-11-9.9-22.4-19.6-34.2-28.6c-3.4-2.6-8.5-4.3-12.8-4.4C148,7.6,121.7,7.6,95.5,7.9c-3.2,0-7,1.3-9.5,3.3
	C75,20,64.6,29.5,53.4,38.1c-5.6,4.3-7.6,9.3-7.6,16.1c0.1,67.4,0.1,134.7,0.2,202.1c0,2.6,0.8,5.2,1.3,8.3c18.5,0,36.4,0,55.3,0
	c0.2-4.9,0.6-9.1,0.6-13.3c0-20-0.2-39.9,0-59.9c0.1-11.5,3.3-14.4,14.9-14.5c11.4-0.1,22.7-0.1,34.1,0c13.9,0,16.5,2.6,16.5,16.4
	c0,20.4-0.1,40.7,0,61.1c0,3.3,0.6,6.6,1,10.4C188.4,264.6,205.9,264.6,225.8,264.6z"/>
<path d="M225.8,249.7c0,4.6,0,9.2,0,15c-19.9,0-37.4,0-56.2,0c-0.4-3.8-1-7.1-1-10.4c-0.1-20.4,0.1-40.7,0-61.1
	c0-13.8-2.6-16.3-16.5-16.4c-11.4,0-22.7-0.1-34.1,0c-11.6,0.1-14.8,3-14.9,14.5c-0.2,20,0,39.9,0,59.9c0,4.2-0.3,8.4-0.6,13.3
	c-19,0-36.8,0-55.3,0c-0.5-3.1-1.3-5.7-1.3-8.3c-0.1-67.4,0-134.7-0.2-202.1c0-6.8,1.9-11.7,7.6-16.1C64.6,29.5,75,20,86,11.2
	c2.5-2,6.3-3.3,9.5-3.3C121.7,7.6,148,7.6,174.2,8c4.3,0.1,9.4,1.8,12.8,4.4c11.8,9.1,23.1,18.7,34.2,28.6c2.5,2.3,4.1,6.6,4.5,10.1
	c0.7,7,0.2,14.1,0.2,21.1 M103.3,91.8c0,10.5-0.2,21.1,0.1,31.6c0.2,8.8,2.6,11.7,10.9,11.9c14.4,0.4,28.9,0.4,43.3,0
	c7.7-0.2,10.9-3.4,11-10.8c0.3-21.1,0.3-42.1,0-63.2c-0.1-8.4-3.2-10.9-11.6-11c-13.7-0.1-27.3-0.1-41,0
	c-10.2,0.1-12.4,2.1-12.7,12.2C103.2,72.3,103.3,82.1,103.3,91.8z"/>
<path d="M103.3,91.8c0-9.8-0.2-19.5,0.1-29.3c0.2-10.2,2.4-12.1,12.7-12.2c13.7-0.1,27.3-0.2,41,0c8.5,0.1,11.5,2.7,11.6,11
	c0.3,21.1,0.3,42.1,0,63.2c-0.1,7.4-3.3,10.6-11,10.8c-14.4,0.4-28.9,0.4-43.3,0c-8.3-0.2-10.7-3.1-10.9-11.9
	C103.1,112.9,103.3,102.4,103.3,91.8z M112.2,126.1c16.7,0,31.7,0,47.9,0c1.3-22.5,0.5-44.1,0.7-65.4c-11.8-2.7-40.3-2.4-48.5,0.1
	C112.2,82.2,112.2,103.5,112.2,126.1z"/>
</svg>
