<?xml version="1.0" encoding="utf-8"?>
<!-- Generator: Adobe Illustrator 21.0.0, SVG Export Plug-In . SVG Version: 6.00 Build 0)  -->
<svg version="1.1"
	 id="Слой_1" xmlns:krita="http://krita.org/namespaces/svg/krita" xmlns:sodipodi="http://sodipodi.sourceforge.net/DTD/sodipodi-0.dtd"
	 xmlns="http://www.w3.org/2000/svg" xmlns:xlink="http://www.w3.org/1999/xlink" x="0px" y="0px" viewBox="0 0 272.2 272.2"
	 style="enable-background:new 0 0 272.2 272.2;" xml:space="preserve">
<path d="M40,0.7c24.4,0,47.2,0,71.4,0c0.4,7.8,1.2,15.4,1.2,23.1c-0.1,61.3-0.3,122.7-0.5,184c0,1.9,0.4,3.8,0.9,7.3
	c14,0.6,27.9,0.9,41.8-0.2c1.8-0.1,3.9-3.4,4.7-5.6c0.9-2.5,0.4-5.4,0.4-8.1c-0.2-48-0.4-96.1-0.6-144.1c0-16,0.2-32,0.3-48
	c0-4.5,0-9,6.3-9c21.4,0,42.8,0,65.3,0c0.3,4.7,0.8,8.5,0.8,12.3c0.1,69.9,0,139.9,0.2,209.8c0,6.2-2,9.9-6.7,13.7
	c-11.9,9.5-23.4,19.5-34.7,29.6c-5.2,4.7-10.6,6.9-17.9,6.8c-25-0.4-50-0.3-75,0c-5.8,0.1-10.1-1.4-14.6-5.4
	c-12.6-11.1-25.6-21.7-38.8-32c-4-3.1-4.7-6.4-4.7-11c0.3-61.3,0.4-122.7,0.5-184c0-9-0.2-18-0.3-27C40,9,40,5.3,40,0.7z M167.7,7.9
	c-0.4,3.2-0.8,5.1-0.8,7c-0.1,56.6-0.2,113.2-0.3,169.8c0,8.2,0.5,16.4,0.2,24.6c-0.4,9.7-4.1,13.2-13.9,13.4
	c-11.3,0.2-22.7,0.3-34,0c-10.5-0.3-14.1-4.1-14.1-14.3c0-9,0.3-18,0.3-26.9c0.1-53.1,0.1-106.2,0-159.3c0-4.5-0.5-9-0.9-13.9
	c-19.4,0-37.5,0-56,0c-0.3,2.7-0.6,4.6-0.6,6.5c-0.1,68.3,0,136.7-0.3,205c0,5.7,1.6,9.8,5.8,13.2c9,7.5,18.6,14.4,26.8,22.7
	c6.7,6.8,13.7,8.7,22.9,8.4c23-0.6,46.1-0.6,69.1,0c6.9,0.2,12.1-1.8,17-6c9.2-7.8,18.3-15.8,27.8-23.4c5.6-4.5,8-9.8,8-17.1
	c-0.3-67.2-0.3-134.3-0.5-201.5c0-2.6-0.7-5.1-1.3-8.5C204.2,7.5,186.1,7,167.7,7.9z"/>
<path d="M167.7,7.9C186.1,7,204.2,7.5,223,7.6c0.5,3.4,1.3,6,1.3,8.5c0.2,67.2,0.2,134.3,0.5,201.5c0,7.3-2.4,12.6-8,17.1
	c-9.4,7.6-18.5,15.6-27.8,23.4c-4.9,4.2-10.1,6.2-17,6c-23-0.6-46.1-0.6-69.1,0c-9.2,0.2-16.2-1.6-22.9-8.4
	c-8.2-8.3-17.8-15.2-26.8-22.7c-4.2-3.5-5.8-7.6-5.8-13.2c0.2-68.3,0.2-136.7,0.3-205c0-1.9,0.3-3.8,0.6-6.5c18.4,0,36.5,0,56,0
	c0.3,4.9,0.9,9.4,0.9,13.9c0,53.1,0,106.2,0,159.3c0,9-0.3,18-0.3,26.9c0,10.2,3.7,14,14.1,14.3c11.3,0.3,22.6,0.3,34,0
	c9.9-0.2,13.5-3.7,13.9-13.4c0.3-8.2-0.2-16.4-0.2-24.6c0.1-56.6,0.2-113.2,0.3-169.8C166.9,13,167.3,11.2,167.7,7.9z"/>
</svg>
