<?xml version="1.0" encoding="utf-8"?>
<!-- Generator: Adobe Illustrator 21.0.0, SVG Export Plug-In . SVG Version: 6.00 Build 0)  -->
<svg version="1.1"
	 id="Слой_1" xmlns:krita="http://krita.org/namespaces/svg/krita" xmlns:sodipodi="http://sodipodi.sourceforge.net/DTD/sodipodi-0.dtd"
	 xmlns="http://www.w3.org/2000/svg" xmlns:xlink="http://www.w3.org/1999/xlink" x="0px" y="0px" viewBox="0 0 272.2 272.2"
	 style="enable-background:new 0 0 272.2 272.2;" xml:space="preserve">
<path d="M157.8,82.6c0-7.5,0.2-13.3,0-19.1c-0.3-7.8-1.3-9-8.7-9.1c-10.4-0.2-20.8,0-32.2,0c0,17.7,0,34.2,0,52.2
	c3.6,0.4,7.3,1,11,1c14,0.1,28.1,0.2,42.1,0c5.8-0.1,10.2,1.6,14.7,5.6c11.3,10.2,22.9,19.9,34.8,29.3c4.5,3.5,6.5,7.6,6.5,12.9
	c0.1,23,0.3,46-0.2,69c-0.1,3.7-2.7,8.2-5.6,10.7c-13.2,11.5-26.7,22.6-40.5,33.5c-2.8,2.2-7,3.4-10.6,3.4
	c-21.8,0.3-43.6,0.3-65.4,0c-4-0.1-8.7-1.3-11.7-3.7C78.6,258,66,247,53,236.5c-4.9-4-6.8-8.8-6.8-15.2c0.2-56.5,0.2-113,0-169.5
	c0-7.8,2.5-13,8.6-17.9c11.9-9.4,23-19.9,34.8-29.4c3-2.4,7.6-4.2,11.4-4.2c23-0.4,46-0.3,69,0c4,0.1,8.7,1.2,11.7,3.5
	C194.5,14,206.6,25,219.2,35.4c4.2,3.5,6.7,7.4,6.7,12.9c-0.1,9.3,0.2,18.7-0.4,28c-0.2,2.4-2.9,6.7-4.5,6.8
	C200.5,83.8,179.9,84.2,157.8,82.6z M164.8,76.8c16.9,0,32.4,0.1,47.9-0.1c4.4,0,6-3,5.9-7.1c-0.1-7,0.6-14.1-0.3-21
	c-0.5-3.8-3.1-8-6-10.6c-9.5-8.6-19.4-16.9-29.6-24.6c-3.8-2.8-9-5.1-13.6-5.2c-22.2-0.5-44.4-0.5-66.7-0.1
	c-3.9,0.1-8.5,1.8-11.6,4.2c-10.5,8.1-20.4,16.9-30.6,25.3c-4.5,3.7-6.7,8.1-6.7,14.1c0.1,55.8,0,111.5-0.2,167.3
	c0,5.6,1.7,9.9,5.8,13.3c11.1,9.2,22,18.7,33.4,27.5c3.1,2.4,7.6,4,11.5,4c21,0.4,42.1,0.4,63.2,0c4.3-0.1,9.4-1.5,12.8-4.1
	c11.7-9.1,22.7-19,34-28.5c3.7-3.1,4.6-6.9,4.6-11.4c-0.1-20.3-0.2-40.5,0-60.8c0.1-6-2.1-10.3-6.7-14c-8.8-7.1-17.6-14.2-25.8-21.9
	c-6.4-6.1-13-8.8-22-8.3c-14.8,0.7-29.6,0.4-44.4,0.1c-9.1-0.2-12.3-3.3-12.4-11.8c-0.2-14.8-0.2-29.6,0.1-44.4
	c0.2-8.6,2.9-11,11.5-11.1c11.7-0.1,23.4,0,35.1,0.2c8.2,0.1,10.3,2,10.8,10.3C165,63.8,164.8,69.5,164.8,76.8z"/>
<path d="M164.8,76.8c0-7.2,0.3-13-0.1-18.7c-0.5-8.3-2.5-10.2-10.8-10.3c-11.7-0.2-23.4-0.3-35.1-0.2c-8.6,0.1-11.3,2.5-11.5,11.1
	c-0.3,14.8-0.3,29.6-0.1,44.4c0.1,8.5,3.3,11.6,12.4,11.8c14.8,0.3,29.7,0.6,44.4-0.1c8.9-0.4,15.6,2.2,22,8.3
	c8.2,7.8,17,14.9,25.8,21.9c4.6,3.7,6.8,8,6.7,14c-0.2,20.3-0.1,40.5,0,60.8c0,4.5-0.9,8.3-4.6,11.4c-11.4,9.5-22.4,19.4-34,28.5
	c-3.3,2.6-8.4,4.1-12.8,4.1c-21,0.4-42.1,0.4-63.2,0c-3.9-0.1-8.5-1.6-11.5-4c-11.4-8.8-22.3-18.3-33.4-27.5
	c-4.1-3.4-5.9-7.7-5.8-13.3c0.2-55.8,0.3-111.5,0.2-167.3c0-6,2.2-10.4,6.7-14.1c10.2-8.4,20.1-17.2,30.6-25.3
	c3.1-2.4,7.7-4.1,11.6-4.2c22.2-0.4,44.4-0.5,66.7,0.1c4.6,0.1,9.8,2.4,13.6,5.2c10.3,7.7,20.1,16,29.6,24.6c2.9,2.6,5.4,6.8,6,10.6
	c1,6.9,0.3,14,0.3,21c0,4.1-1.5,7-5.9,7.1C197.2,76.8,181.7,76.8,164.8,76.8z M164.7,189.8C164.6,189.8,164.6,189.8,164.7,189.8
	c0-8.2,0.2-16.4-0.1-24.5c-0.3-8-1.7-9.6-9.8-9.8c-12.4-0.3-24.9-0.3-37.4,0.1c-8.5,0.3-9.8,1.5-9.9,9.5c-0.3,16-0.3,31.9-0.1,47.9
	c0.1,7.1,2.6,9.9,9.9,10.2c12.4,0.5,24.9,0.6,37.4,0.2c7.7-0.3,9.8-3.2,10-11.4C164.8,204.6,164.7,197.2,164.7,189.8z"/>
<path d="M164.7,189.8c0,7.4,0.1,14.8,0,22.2c-0.2,8.2-2.3,11.1-10,11.4c-12.4,0.4-24.9,0.3-37.4-0.2c-7.2-0.3-9.8-3.1-9.9-10.2
	c-0.2-16-0.2-31.9,0.1-47.9c0.1-8,1.4-9.3,9.9-9.5c12.4-0.4,24.9-0.4,37.4-0.1c8.1,0.2,9.5,1.8,9.8,9.8
	C164.8,173.4,164.6,181.6,164.7,189.8C164.6,189.8,164.6,189.8,164.7,189.8z M156.5,163.4c-13.9,0-26.4,0-38.8,0
	c-2.2,12.6-1.8,43.5,0.9,52.5c10.1,0,20.5,0,31,0c4.8,0,6.9-2.7,6.9-7.4C156.5,194.2,156.5,179.8,156.5,163.4z"/>
</svg>
