<?xml version="1.0" encoding="utf-8"?>
<!-- Generator: Adobe Illustrator 21.0.0, SVG Export Plug-In . SVG Version: 6.00 Build 0)  -->
<svg version="1.1"
	 id="Слой_1" xmlns:krita="http://krita.org/namespaces/svg/krita" xmlns:sodipodi="http://sodipodi.sourceforge.net/DTD/sodipodi-0.dtd"
	 xmlns="http://www.w3.org/2000/svg" xmlns:xlink="http://www.w3.org/1999/xlink" x="0px" y="0px" viewBox="0 0 272.2 272.2"
	 style="enable-background:new 0 0 272.2 272.2;" xml:space="preserve">
<path d="M46.1,187.5c24,0,45.7,0,68.6,0c0,9.3,0,18,0,27.7c13.4,2.1,25.6,2.2,37.9,0.9c1.7-0.2,4.5-2.8,4.5-4.4
	c0.4-15.4,0.7-30.9,0-46.7c-4.2-0.4-6.9-0.8-9.5-0.8c-12.1-0.1-24.2-0.8-36.2,0.2c-11.9,1.1-21-3.3-29.5-10.6
	c-9.4-8.1-18.9-16.2-28.7-23.9c-5.3-4.2-7.6-8.9-7.5-15.9c0.5-21,0.5-42.1,0-63.1c-0.2-7.5,2.4-12.3,8-16.8
	c11.5-9.3,22.7-19,33.9-28.7C92.1,1.6,96.9,0,102.7,0c22.6,0.1,45.2,0.2,67.8,0c5.1,0,8.8,1.8,12.5,5c12.5,10.6,25.1,20.9,37.8,31.2
	c3.6,2.9,5.6,6.2,5.3,11c-0.2,3.9-0.1,7.8-0.1,11.7c0,53.8-0.1,107.5,0.2,161.3c0,6.4-1.5,11.2-6.5,15.3
	c-13.2,10.9-26,22.2-39.4,32.9c-3,2.4-7.8,3.6-11.8,3.7c-21.4,0.3-42.9,0-64.3,0.2c-5.3,0-9.5-1.2-13.7-4.9
	c-12-10.5-24.4-20.6-37-30.4c-5.4-4.3-7.8-9.1-7.6-16C46.4,210.1,46.1,199.3,46.1,187.5z M54.3,195.5c0,8.9,0.2,17.1-0.1,25.1
	c-0.2,5.2,1.8,8.9,5.6,12.1c10.8,8.9,21.6,17.9,32.1,27.1c3.9,3.4,8.1,4.1,12.9,4c20.6-0.1,41.3-0.2,61.9,0.2
	c5.5,0.1,9.8-1.5,13.9-4.9c10.8-9,21.6-17.9,32.3-26.9c4.1-3.4,5.7-7.7,5.7-13.3c-0.2-55.3-0.2-110.6-0.1-165.9
	c0-6.3-1.5-11.2-6.6-15.3c-10.6-8.6-20.7-17.7-31.5-26c-3.1-2.4-7.7-3.8-11.7-3.8c-21-0.4-42.1,0.1-63.1-0.3
	C98.6,7.6,93,10,87.8,14.5C78.7,22.5,69.5,30.3,60,37.8c-4.1,3.2-5.8,6.8-5.8,11.9c0.1,21,0.2,42.1-0.1,63.1
	c-0.1,5.5,1.5,9.6,5.9,13.1c9.4,7.5,18.8,15.2,27.7,23.3c5.8,5.3,12,7.5,20,7.1c14.8-0.7,29.6-0.4,44.4-0.4
	c8.8,0,11.4,2.1,11.7,10.8c0.5,15.6,0.6,31.1,0.4,46.7c-0.1,7.2-2.7,9.9-10,10.1c-12.1,0.4-24.2,0.3-36.2-0.2
	c-8.8-0.4-11.1-3.6-11.4-12.6c-0.1-5.2-0.7-10.4-1.1-15.2C87.8,195.5,71.6,195.5,54.3,195.5z"/>
<path d="M54.3,195.5c17.3,0,33.4,0,51.2,0c0.4,4.8,1,10,1.1,15.2c0.2,9,2.6,12.3,11.4,12.6c12.1,0.5,24.1,0.6,36.2,0.2
	c7.4-0.2,9.9-2.9,10-10.1c0.2-15.6,0.1-31.2-0.4-46.7c-0.3-8.7-2.9-10.8-11.7-10.8c-14.8,0-29.6-0.3-44.4,0.4
	c-8,0.4-14.1-1.9-20-7.1c-9-8.1-18.3-15.8-27.7-23.3c-4.4-3.5-6-7.6-5.9-13.1c0.2-21,0.2-42.1,0.1-63.1c0-5.1,1.6-8.7,5.8-11.9
	c9.5-7.4,18.7-15.3,27.7-23.2C93,10,98.6,7.6,105.7,7.8c21,0.4,42.1-0.1,63.1,0.3c4,0.1,8.6,1.5,11.7,3.8
	c10.8,8.3,20.9,17.5,31.5,26c5,4.1,6.6,8.9,6.6,15.3c-0.2,55.3-0.1,110.6,0.1,165.9c0,5.6-1.6,9.8-5.7,13.3
	c-10.8,9-21.6,17.9-32.3,26.9c-4,3.4-8.4,5-13.9,4.9c-20.6-0.4-41.3-0.3-61.9-0.2c-4.8,0-9-0.6-12.9-4
	c-10.5-9.2-21.3-18.2-32.1-27.1c-3.9-3.2-5.8-6.9-5.6-12.1C54.5,212.5,54.3,204.4,54.3,195.5z M106.9,81.1c-0.1,0-0.2,0-0.2,0
	c0,7.4,0,14.7,0,22.1c0,9,3.3,13.1,12.2,13.4c11.6,0.4,23.3,0.3,34.9,0c7.6-0.2,10.1-2.3,10.2-9.7c0.4-16.7,0.3-33.4-0.1-50.1
	c-0.2-7.1-2.7-9-9.5-9.1c-12.4-0.1-24.8,0.1-37.3,0.4C109.3,48.3,107,51,106.9,59C106.8,66.3,106.9,73.7,106.9,81.1z"/>
<path d="M106.9,81.1c0-7.4-0.1-14.8,0-22.1c0.1-8,2.4-10.6,10.2-10.9c12.4-0.4,24.8-0.5,37.3-0.4c6.7,0,9.3,2,9.5,9.1
	c0.5,16.7,0.5,33.4,0.1,50.1c-0.2,7.4-2.6,9.5-10.2,9.7c-11.6,0.3-23.3,0.4-34.9,0c-8.9-0.3-12.1-4.3-12.2-13.4c0-7.4,0-14.7,0-22.1
	C106.7,81.1,106.8,81.1,106.9,81.1z M154.7,107.4c3.1-13.9,2.5-42.5-1.2-51.6c-12.2,0.3-24.8-0.7-38,0.6c0,9.4,0,17.5,0,25.6
	c0,8.3,0,16.7,0,25.5C129.7,107.4,142.3,107.4,154.7,107.4z"/>
</svg>
