<?xml version="1.0" encoding="utf-8"?>
<!-- Generator: Adobe Illustrator 21.0.0, SVG Export Plug-In . SVG Version: 6.00 Build 0)  -->
<svg version="1.1"
	 id="Слой_1" xmlns:krita="http://krita.org/namespaces/svg/krita" xmlns:sodipodi="http://sodipodi.sourceforge.net/DTD/sodipodi-0.dtd"
	 xmlns="http://www.w3.org/2000/svg" xmlns:xlink="http://www.w3.org/1999/xlink" x="0px" y="0px" viewBox="0 0 272.2 272.2"
	 style="enable-background:new 0 0 272.2 272.2;" xml:space="preserve">
<path d="M181.9,272.2c-22,0-42.9,0-64.8,0c1-10,1.7-18.8,2.8-27.7c3.7-30.6,7.5-61.2,11.5-91.8c2.1-15.8,5-31.5,7.2-47.3
	c1.9-13.9,3.6-27.8,5-41.8c0.7-7.5-0.8-8.9-8.3-9c-5.8-0.1-11.6,0-18.8,0c0,9.9,0,18.6,0,28.4c-21.5,1.1-41.5,2-62.4-0.5
	c0-13.5-0.3-25.9,0.2-38.4c0.1-2.6,2.6-5.6,4.8-7.5C71.8,25.8,84.8,15.1,98,4.8c3.1-2.4,7.5-4.5,11.4-4.6
	c34.4-0.3,68.8-0.2,103.2-0.1c1.1,0,2.1,0.6,4.3,1.3C205.3,91.4,193.6,181.4,181.9,272.2z M108.1,76.2c0-6.7-0.2-12.5,0.1-18.3
	c0.4-7.9,2.1-9.6,9.9-10c7-0.3,14.1-0.2,21.1-0.2c10.6,0,13.5,4.1,11.8,14.6c-2.5,15-4.8,30-6.7,45.1c-2.2,18.2-3.4,36.4-5.7,54.6
	c-3.4,26.7-7.4,53.4-11,80.1c-0.9,6.9-1.2,13.8-1.9,22.5c15.6,0,30.3,0.1,45.1-0.2c1.7,0,4-2.5,4.9-4.4c1.5-3.1,2.4-6.7,2.8-10.1
	c1.5-11.6,2.7-23.2,4.1-34.8c5.9-49.2,11.9-98.4,17.9-147.6c0.4-3.5,1.6-6.8,2.3-10.3c0.7-3.8,1.4-7.7,1.9-11.5
	c1.1-8.9,2.2-17.8,3.1-26.7c0.3-3.6,0.1-7.2,0.1-11.3c-33.3,0-65-0.1-96.6,0.1c-3.3,0-7.2,1-9.7,3c-11.9,9.5-23.5,19.5-35,29.5
	c-1.9,1.7-4.1,4.4-4.2,6.7c-0.1,9.6-1.7,19.3,1.3,29.1C78.1,76.2,92.4,76.2,108.1,76.2z"/>
<path d="M108.1,76.2c-15.7,0-29.9,0-44.7,0c-3-9.8-1.4-19.5-1.3-29.1c0-2.3,2.2-5,4.2-6.7c11.5-10,23.1-20,35-29.5
	c2.5-2,6.4-2.9,9.7-3c31.6-0.2,63.3-0.1,96.6-0.1c0,4,0.3,7.7-0.1,11.3c-0.9,8.9-1.9,17.8-3.1,26.7c-0.5,3.9-1.2,7.7-1.9,11.5
	c-0.7,3.4-1.8,6.8-2.3,10.3c-6,49.2-12,98.4-17.9,147.6c-1.4,11.6-2.6,23.2-4.1,34.8c-0.5,3.5-1.4,7-2.8,10.1
	c-0.9,1.9-3.2,4.3-4.9,4.4c-14.7,0.3-29.4,0.2-45.1,0.2c0.7-8.7,1-15.6,1.9-22.5c3.6-26.7,7.6-53.4,11-80.1
	c2.3-18.1,3.5-36.4,5.7-54.6c1.8-15.1,4.2-30.1,6.7-45.1c1.7-10.6-1.2-14.6-11.8-14.6c-7,0-14.1-0.2-21.1,0.2
	c-7.8,0.4-9.5,2.1-9.9,10C107.8,63.7,108.1,69.4,108.1,76.2z"/>
</svg>
