<?xml version="1.0" encoding="utf-8"?>
<!-- Generator: Adobe Illustrator 21.0.0, SVG Export Plug-In . SVG Version: 6.00 Build 0)  -->
<svg version="1.1"
	 id="Слой_1" xmlns:krita="http://krita.org/namespaces/svg/krita" xmlns:sodipodi="http://sodipodi.sourceforge.net/DTD/sodipodi-0.dtd"
	 xmlns="http://www.w3.org/2000/svg" xmlns:xlink="http://www.w3.org/1999/xlink" x="0px" y="0px" viewBox="0 0 272.2 272.2"
	 style="enable-background:new 0 0 272.2 272.2;" xml:space="preserve">
<path d="M46.4,187.8c23.4,0,45.1,0,68,0c0,9.3,0,18.1,0,26.4c12.6,3.9,29.8,4,42,0.4c0-18.7,0-37.6,0-57.7c-3-0.3-5.9-0.8-8.9-0.8
	c-28.4-0.1-56.9,0-85.3,0c-3.4,0-6.8-0.6-10.5-1c0-51.5,0-102,0-152.5C60.1-0.4,202.6-1,215.4,1.9c0,16.7,0,33.6,0,52
	c-11.2,1.3-22,0.4-32.7,0.6c-11.3,0.2-22.6,0-33.9,0c-10.8,0-21.6,0-33.2,0c0,15.7,0,30.2,0,45.9c5,0.2,9.5,0.6,14.1,0.6
	c13.6,0.1,27.3-0.2,40.9,0.2c3.6,0.1,7.9,1.1,10.5,3.3c13,10.6,25.4,21.8,38.3,32.5c4.6,3.8,6.5,8,6.5,14.1
	c-0.3,23.8-0.2,47.5,0,71.3c0,5.1-1.4,9-5.3,12.3c-13.7,11.6-27.1,23.4-40.9,34.8c-2.4,2-6.4,2.6-9.7,2.6c-22.6,0.2-45.2,0.3-67.8,0
	c-3.5-0.1-7.5-1.7-10.3-3.9c-13.4-10.6-26.6-21.6-39.6-32.7c-2.5-2.1-5.3-5.5-5.5-8.3C46.1,214.2,46.4,201.5,46.4,187.8z M210.3,8.6
	c-51.1,0-100.3,0-150.3,0c0,46.4,0,92.1,0,139.6c6.3,0,12,0,17.7,0c24.5,0,49.1-0.1,73.6-0.1c9.1,0,13.1,3.5,13.3,12.5
	c0.3,17.1,0.4,34.3,0,51.4c-0.2,8.4-3.1,11.4-11.4,11.6c-11.7,0.3-23.4,0.2-35.1-0.2c-8-0.3-10.9-3.6-11.3-11.8
	c-0.2-5.3,0-10.6,0-16.1c-18.2,0-34.7,0-52.5,0c0,8.5,0.4,16.2-0.1,23.8c-0.5,6.1,1.6,10.4,6.2,14.2c10.8,8.9,21.4,18.2,32.4,26.8
	c2.8,2.2,7,3.5,10.5,3.6c21,0.3,42.1,0.1,63.1,0.3c5.8,0.1,10.6-1.6,15-5.3c10.4-8.8,20.8-17.6,31.3-26.3c3.9-3.2,5.8-7,5.8-12.1
	c-0.1-23-0.2-46-0.1-69c0-4.7-1.6-8.1-5.2-11c-10.9-8.8-21.8-17.7-32.3-27c-4.5-4-9.1-5.1-14.9-5c-14.8,0.3-29.6,0.2-44.4,0.1
	c-12.4-0.1-14.7-2.6-14.8-15.3c0-10.5-0.1-21,0-31.6c0.1-12.1,2.6-14.1,14.5-14c24.5,0.2,49.1,0.1,73.6,0.1c2.7,0,5.4-0.3,8.2-0.4
	c4.6-0.2,7.2-2.1,7.1-7.2C210.2,30.3,210.3,20.2,210.3,8.6z"/>
<path d="M210.3,8.6c0,11.6-0.1,21.7,0,31.7c0.1,5-2.5,7-7.1,7.2c-2.7,0.1-5.4,0.4-8.2,0.4c-24.5,0-49.1,0.1-73.6-0.1
	c-11.9-0.1-14.4,1.9-14.5,14c-0.1,10.5,0,21,0,31.6c0.1,12.7,2.4,15.2,14.8,15.3c14.8,0.1,29.6,0.2,44.4-0.1
	c5.8-0.1,10.4,1.1,14.9,5c10.5,9.3,21.4,18.2,32.3,27c3.7,3,5.3,6.4,5.2,11c-0.1,23-0.1,46,0.1,69c0,5.1-1.9,8.9-5.8,12.1
	c-10.5,8.7-20.9,17.4-31.3,26.3c-4.4,3.7-9.2,5.3-15,5.3c-21-0.2-42.1,0.1-63.1-0.3c-3.6-0.1-7.7-1.4-10.5-3.6
	c-11-8.6-21.5-17.9-32.4-26.8c-4.6-3.7-6.7-8-6.2-14.2c0.6-7.7,0.1-15.4,0.1-23.8c17.8,0,34.3,0,52.5,0c0,5.5-0.2,10.8,0,16.1
	c0.4,8.1,3.3,11.5,11.3,11.8c11.7,0.4,23.4,0.6,35.1,0.2c8.3-0.2,11.2-3.2,11.4-11.6c0.3-17.1,0.3-34.3,0-51.4
	c-0.2-8.9-4.1-12.5-13.3-12.5c-24.5-0.1-49.1,0-73.6,0.1c-5.7,0-11.4,0-17.7,0c0-47.5,0-93.2,0-139.6C109.9,8.6,159.1,8.6,210.3,8.6
	z"/>
</svg>
