<?xml version="1.0" encoding="utf-8"?>
<!-- Generator: Adobe Illustrator 21.0.0, SVG Export Plug-In . SVG Version: 6.00 Build 0)  -->
<svg version="1.1"
	 id="Слой_1" xmlns:krita="http://krita.org/namespaces/svg/krita" xmlns:sodipodi="http://sodipodi.sourceforge.net/DTD/sodipodi-0.dtd"
	 xmlns="http://www.w3.org/2000/svg" xmlns:xlink="http://www.w3.org/1999/xlink" x="0px" y="0px" viewBox="0 0 272.2 272.2"
	 style="enable-background:new 0 0 272.2 272.2;" xml:space="preserve">
<path d="M136.6,0.1c10.5,0,21,0,31.6,0c4.8,0,9,0.9,12.8,4.3c11.9,10.6,24.1,20.9,36.4,31.1c4.3,3.5,6.3,7.5,6.3,13
	c-0.1,20.6-0.2,41.3,0.1,61.9c0.1,6.3-2.9,10.2-7.3,13.7c-2.1,1.7-4.5,3.1-6.6,4.8c-5.8,4.6-5.9,6.5-0.6,12.1c2.4,2.5,5,5,7.8,7
	c4.9,3.5,6.7,8,6.7,14c-0.2,20.3-0.2,40.5,0.1,60.8c0.1,5.7-2.1,9.6-6.2,13.1c-12.6,10.4-25.3,20.8-37.8,31.3
	c-4.1,3.4-8.3,5-13.8,4.9c-19.9-0.3-39.7-0.3-59.6,0c-5.4,0.1-9.8-1.2-13.9-4.7c-12.8-10.8-25.7-21.5-38.6-32c-4-3.2-5.4-7-5.3-12.2
	c0.3-20.3,0.4-40.5,0.1-60.8c-0.1-6.4,2.1-10.8,7.1-14.9c13.6-11.2,13.5-11.6,0.5-22.4c-5.5-4.6-8.1-9.5-7.9-17
	C49,89.4,49,70.6,48.6,52c-0.2-8,1.7-13.6,8.7-18.7c11.6-8.4,22.3-18.3,33-27.9c4-3.6,8.1-5.4,13.6-5.3
	C114.8,0.3,125.7,0.1,136.6,0.1C136.6,0.1,136.6,0.1,136.6,0.1z M135.7,7.9C135.7,7.9,135.7,7.9,135.7,7.9
	c-10.1,0-20.3-0.4-30.4,0.1c-4,0.2-8.7,1.4-11.8,3.7c-10.8,8.3-20.9,17.4-31.4,26.1c-4.8,4-7.3,8.6-7.2,15.1
	c0.3,17.5,0.2,35-0.1,52.6c-0.1,6,1.7,10.5,6.5,14.1c4.1,3,7.9,6.3,11.4,10c4,4.2,3.9,8.2-0.2,12.2c-3,3-6.5,5.6-9.9,8.2
	c-5.7,4.3-8.1,9.8-7.9,17.1c0.4,16.7,0.3,33.5,0,50.2c-0.1,6.9,2.2,11.8,7.5,16.1c10.3,8.2,20.6,16.7,30.5,25.4
	c4.4,3.8,8.9,5.3,14.8,5.2c19.1-0.3,38.2-0.3,57.2,0c5,0.1,9-0.9,12.8-4.2c10.9-9.3,22.1-18.4,33.2-27.6c4.2-3.4,6-7.6,5.9-13.2
	c-0.3-17.9-0.4-35.8,0-53.7c0.1-6.6-2.3-11.2-7.3-15c-3.1-2.4-6.2-4.7-9-7.4c-6-5.7-6-8.8-0.2-14.5c3.3-3.3,6.8-6.5,10.5-9.3
	c4.5-3.4,6-7.6,5.9-13.1c-0.2-17.5-0.2-35,0.1-52.6c0.1-6.8-1.9-11.9-7.3-16.2c-9.5-7.5-18.6-15.4-27.7-23.3
	c-4.9-4.2-10.1-6.6-16.9-6.2C155.2,8.3,145.4,7.9,135.7,7.9z"/>
<path d="M135.7,7.9c9.7,0,19.5,0.4,29.2-0.1c6.8-0.4,12,2,16.9,6.2c9.1,7.9,18.3,15.8,27.7,23.3c5.4,4.3,7.4,9.4,7.3,16.2
	c-0.3,17.5-0.3,35-0.1,52.6c0.1,5.5-1.4,9.7-5.9,13.1c-3.7,2.8-7.2,6-10.5,9.3c-5.8,5.7-5.8,8.8,0.2,14.5c2.8,2.7,5.9,5,9,7.4
	c4.9,3.8,7.4,8.4,7.3,15c-0.4,17.9-0.3,35.8,0,53.7c0.1,5.6-1.8,9.8-5.9,13.2c-11.1,9.2-22.2,18.3-33.2,27.6
	c-3.8,3.3-7.8,4.3-12.8,4.2c-19.1-0.3-38.2-0.4-57.2,0c-5.9,0.1-10.4-1.4-14.8-5.2c-10-8.7-20.2-17.1-30.5-25.4
	c-5.3-4.2-7.7-9.2-7.5-16.1c0.3-16.7,0.4-33.5,0-50.2c-0.2-7.3,2.2-12.8,7.9-17.1c3.4-2.6,6.8-5.2,9.9-8.2c4.1-4.1,4.2-8.1,0.2-12.2
	c-3.5-3.6-7.4-7-11.4-10c-4.9-3.6-6.6-8.1-6.5-14.1C55.1,88,55.2,70.5,54.9,53c-0.1-6.5,2.3-11.1,7.2-15.1
	c10.5-8.7,20.7-17.8,31.4-26.1c3.1-2.4,7.7-3.5,11.8-3.7C115.4,7.6,125.6,7.9,135.7,7.9C135.7,7.9,135.7,7.9,135.7,7.9z M135.9,47.7
	c0,0.1,0,0.2,0,0.3c-7.4,0-14.8-0.1-22.2,0c-8.8,0.2-11.3,2.5-11.5,11c-0.2,14.4-0.3,28.8-0.1,43.2c0.1,8.3,3.7,12.3,12.1,12.5
	c14.4,0.4,28.8,0.4,43.2,0c8.6-0.2,12.9-4.6,13.1-13.1c0.3-14,0.2-28-0.1-42c-0.2-8.6-4.6-12.1-13.5-11.9
	C149.9,47.7,142.9,47.7,135.9,47.7z M102.2,189.9C102.2,189.9,102.2,189.9,102.2,189.9c-0.1,7-0.2,14-0.1,21
	c0.2,8.1,3.1,12.1,10.7,12.3c15.5,0.4,31,0.4,46.6,0c6.8-0.2,11-4.4,11.1-11c0.3-14.7,0.2-29.5-0.2-44.2
	c-0.2-7.9-4.7-11.8-12.7-11.9c-14.4-0.1-28.7-0.1-43.1,0.1c-9.4,0.1-12.1,3-12.4,12.8C102.1,176,102.2,182.9,102.2,189.9z"/>
<path d="M135.9,47.7c7,0,14,0.1,21,0c9-0.1,13.3,3.3,13.5,11.9c0.3,14,0.4,28,0.1,42c-0.2,8.5-4.5,12.9-13.1,13.1
	c-14.4,0.3-28.8,0.4-43.2,0c-8.4-0.2-12-4.2-12.1-12.5c-0.2-14.4-0.2-28.8,0.1-43.2c0.1-8.5,2.6-10.8,11.5-11c7.4-0.2,14.8,0,22.2,0
	C135.9,47.8,135.9,47.8,135.9,47.7z M110.8,106c15.2,0,29.5,0.1,43.8,0c4.9,0,6.8-3,6.8-7.6c0-9,0.2-17.9,0.1-26.9
	c-0.1-4.9-0.5-9.8-0.8-15c-17.4,0-33.5,0-49.8,0C110.8,73.2,110.8,88.9,110.8,106z"/>
<path d="M102.2,189.9c0-7-0.1-14,0-21c0.2-9.8,2.9-12.7,12.4-12.8c14.4-0.2,28.7-0.2,43.1-0.1c7.9,0.1,12.4,4,12.7,11.9
	c0.4,14.7,0.5,29.5,0.2,44.2c-0.1,6.7-4.3,10.9-11.1,11c-15.5,0.4-31.1,0.4-46.6,0c-7.6-0.2-10.5-4.2-10.7-12.3
	C102,203.9,102.1,196.9,102.2,189.9C102.2,189.9,102.2,189.9,102.2,189.9z M110.7,165.3c0,17.2,0,33,0,49.9
	c17.1,0.7,33.4,1.5,50-0.2c0-17.4,0-33.1,0-49.6C143.6,165.3,127.6,165.3,110.7,165.3z"/>
</svg>
