<?xml version="1.0" encoding="utf-8"?>
<!-- Generator: Adobe Illustrator 21.0.0, SVG Export Plug-In . SVG Version: 6.00 Build 0)  -->
<svg version="1.1"
	 id="Слой_1" xmlns:krita="http://krita.org/namespaces/svg/krita" xmlns:sodipodi="http://sodipodi.sourceforge.net/DTD/sodipodi-0.dtd"
	 xmlns="http://www.w3.org/2000/svg" xmlns:xlink="http://www.w3.org/1999/xlink" x="0px" y="0px" viewBox="0 0 272.2 272.2"
	 style="enable-background:new 0 0 272.2 272.2;" xml:space="preserve">
<path d="M108,186.8c0,9.2,0,18.1,0,28.2c18.7,2.5,36.6,2.9,55.5,0.8c0-17.3,0-33.7,0-51.4c-12.2,0-23.7,0-35.7,0
	c0-19.3,0-37.4,0-56.7c9.4,0,17.8,0.2,26.3,0c9.1-0.2,10.1-1.3,10.2-10.2c0.2-11.3,0.1-22.6,0.2-33.9c0-5.3-1.1-9.2-7.6-9.1
	c-15.5,0.2-31.1,0-48.3,0c0,10.6,0,20.5,0,31.8c-23.2-0.3-44.8,0.8-67.4-0.9c0-14.6-0.3-28.2,0.2-41.8c0.1-2.6,2.6-5.6,4.8-7.5
	C59.2,25.4,72.4,15.2,85.2,4.4C89.1,1.1,93.1,0,97.9,0c25.3,0.1,50.7,0.2,76,0c6.7-0.1,11.7,2.2,16.6,6.7c10.7,9.7,21.7,19,33,27.9
	c5.1,4,7.2,8.6,7.1,15c-0.2,19.5-0.3,39,0.1,58.4c0.1,7.3-2.4,12.3-8.4,16.7c-13.2,9.4-13.5,10.3-1.4,20
	c8.3,6.7,10.7,14.2,10.2,24.3c-0.8,17.1-0.7,34.3-0.4,51.4c0.1,6.8-1.7,11.7-7.2,16.1c-12.9,10.1-25.4,20.6-37.9,31.1
	c-3.4,2.9-6.7,4.6-11.4,4.5c-25.3-0.3-50.7,0-76-0.3c-3.6,0-8.1-0.7-10.7-2.9c-13.6-11-26.6-22.8-40-34c-4.6-3.8-6.6-8.1-6.3-14.1
	c0.4-11.2,0.1-22.4,0.1-33.2C51.2,184.8,91.9,184.3,108,186.8z M99.6,192.2c-17.3,0-33.3-0.4-50.6,0.3c0,11.1-0.5,20.8,0.3,30.4
	c0.3,3.4,2.8,7.3,5.5,9.7c10.8,9.5,21.9,18.7,33.3,27.5c2.8,2.2,7,3.6,10.5,3.6c24.9,0.3,49.8,0.3,74.8,0c3.3,0,7.2-0.9,9.6-2.8
	c11.9-9.4,23.3-19.4,35-29.1c4-3.3,5-7.4,5-12.4c-0.1-17.1-0.3-34.3,0.2-51.4c0.2-8.5-1.5-15.3-9.4-19.7c-2.7-1.5-5-3.8-7.1-6
	c-4.9-5-4.7-8.8,0.6-13.8c3.7-3.5,7.9-6.5,11.2-10.2c2.1-2.4,4.3-5.9,4.4-9c0.4-19.8,0.5-39.7,0-59.6c-0.1-3.8-2.2-8.5-5-11
	c-10.1-9.1-21-17.4-31.3-26.3c-4.1-3.6-8.6-4.7-13.9-4.7C147.6,8,122.7,7.7,97.7,8c-3.3,0-7.2,0.9-9.7,2.8
	c-11.9,9.5-23.4,19.3-34.8,29.3c-1.9,1.6-3.8,4.4-3.9,6.7c-0.4,10-0.2,20-0.2,29.6c14.4,3.2,42.3,2.7,51.3-0.8c0-5.5-0.2-11.3,0-17
	c0.4-8.5,2.9-10.8,11.6-10.8c15.6,0,31.1,0.1,46.7,0.2c10.8,0.1,12.7,1.9,12.9,13.1c0.2,12.5,0.2,24.9,0.1,37.4
	c0,13.7-2.8,16.4-16.3,16.6c-6.4,0.1-12.8,0.2-19.5,0.3c0,14.1,0,26.7,0,40.8c8.2,0,15.5-0.1,22.8,0c9.2,0.2,12.6,2.7,12.8,11.4
	c0.5,15.2,0.4,30.4,0,45.5c-0.2,7-3.5,10.4-10.1,10.5c-16.7,0.3-33.5,0.3-50.2-0.2c-8.4-0.2-10.5-3.2-10.9-11.8
	C100.2,205.3,99.9,199.2,99.6,192.2z"/>
<path d="M99.6,192.2c0.3,7,0.5,13.1,0.7,19.2c0.3,8.6,2.5,11.6,10.9,11.8c16.7,0.5,33.5,0.5,50.2,0.2c6.6-0.1,9.9-3.5,10.1-10.5
	c0.4-15.2,0.5-30.4,0-45.5c-0.3-8.7-3.6-11.2-12.8-11.4c-7.3-0.2-14.6,0-22.8,0c0-14,0-26.7,0-40.8c6.6-0.1,13.1-0.3,19.5-0.3
	c13.5-0.2,16.2-2.9,16.3-16.6c0-12.5,0.1-24.9-0.1-37.4c-0.2-11.2-2.1-13-12.9-13.1c-15.6-0.2-31.1-0.2-46.7-0.2
	c-8.7,0-11.2,2.3-11.6,10.8c-0.2,5.8,0,11.6,0,17c-9,3.5-36.9,4-51.3,0.8c0-9.6-0.2-19.6,0.2-29.6c0.1-2.3,2.1-5,3.9-6.7
	c11.4-10,23-19.8,34.8-29.3C90.5,8.8,94.5,8,97.7,8c24.9-0.2,49.8,0,74.8-0.1c5.3,0,9.8,1.2,13.9,4.7c10.3,8.9,21.2,17.1,31.3,26.3
	c2.8,2.5,4.9,7.2,5,11c0.5,19.8,0.4,39.7,0,59.6c-0.1,3-2.2,6.5-4.4,9c-3.3,3.8-7.5,6.8-11.2,10.2c-5.3,5-5.5,8.8-0.6,13.8
	c2.2,2.2,4.5,4.5,7.1,6c7.9,4.4,9.6,11.2,9.4,19.7c-0.4,17.1-0.3,34.3-0.2,51.4c0,5-1,9.1-5,12.4c-11.7,9.7-23.1,19.7-35,29.1
	c-2.5,1.9-6.4,2.8-9.6,2.8c-24.9,0.2-49.8,0.3-74.8,0c-3.6,0-7.7-1.5-10.5-3.6c-11.4-8.8-22.5-18-33.3-27.5
	c-2.7-2.4-5.3-6.3-5.5-9.7c-0.7-9.6-0.3-19.3-0.3-30.4C66.3,191.8,82.4,192.2,99.6,192.2z"/>
</svg>
