<?xml version="1.0" encoding="utf-8"?>
<!-- Generator: Adobe Illustrator 21.0.0, SVG Export Plug-In . SVG Version: 6.00 Build 0)  -->
<svg version="1.1"
	 id="Слой_1" xmlns:krita="http://krita.org/namespaces/svg/krita" xmlns:sodipodi="http://sodipodi.sourceforge.net/DTD/sodipodi-0.dtd"
	 xmlns="http://www.w3.org/2000/svg" xmlns:xlink="http://www.w3.org/1999/xlink" x="0px" y="0px" viewBox="0 0 272.2 272.2"
	 style="enable-background:new 0 0 272.2 272.2;" xml:space="preserve">
<path d="M121.8,213.8c17.1,0,34.2,0,51.3,0c16.8,0,33.5,0,51.8,0c0.7,19.6,0.2,38.5,0.5,58.3c-59.7,0-118.1,0-177.4,0
	c-0.4-3-1-6-1-9c-0.1-19.2,0.1-38.3-0.2-57.5c-0.1-6.9,2.3-11.4,7.7-15.9c24-20,47.5-40.6,71.3-60.8c8.6-7.3,17.8-14.1,26.1-21.6
	c2.9-2.7,5.9-6.9,6.2-10.6c0.8-11.7,0.3-23.4,0.3-35.2c0-4-1.7-6.9-6.1-7c-12.4-0.1-24.8,0-38.9,0c0,10.1,0,18.8,0,28.4
	c-22.5,0-43.4,0-65.3,0c-2.1-13.6-1.2-26.8-0.7-39.9c0.1-1.9,2.1-4.1,3.8-5.6C64.3,26.1,77.5,14.4,91.2,3.4
	c2.7-2.2,7.2-3.1,10.8-3.1C124.3,0,146.6,0.2,168.9,0c5.8-0.1,10.7,1.6,15,5.4C195.6,15.7,207.3,26,219.3,36c4.3,3.6,6.2,7.4,6.1,13
	c-0.3,21.9-0.3,43.8,0,65.7c0.1,6.7-2.7,10.5-7.7,14.5c-23.4,18.9-46.3,38.4-69.4,57.6c-7.2,6-14.5,11.9-21.6,18
	c-2.2,1.9-4.1,4.1-6.2,6.2C120.9,212,121.4,212.9,121.8,213.8z M216.3,222.5c-5.5,0-9.3,0-13.1,0c-22.7,0.1-45.4,0.2-68,0.3
	c-5.9,0-11.8,0.3-17.5-0.8c-2.8-0.6-6.2-3.6-7.3-6.3c-0.8-2,1.6-5.4,3-7.9c0.7-1.3,2.3-2.1,3.5-3.1c17.7-14.8,35.4-29.5,53.1-44.3
	c13.5-11.3,26.9-22.7,40.2-34.1c3.8-3.3,7.2-6.9,7.1-12.8c-0.2-21.5,0.1-43-0.3-64.5c-0.1-3.4-2.1-7.6-4.6-10
	c-9.2-8.4-19-16.3-28.6-24.3c-4.9-4.1-10-6.9-16.9-6.8c-20.3,0.3-40.7,0.3-61,0c-6.3-0.1-11.3,1.9-16,5.9
	c-10.1,8.6-20.5,16.9-30.6,25.5c-1.9,1.7-4.3,4.2-4.3,6.5c-0.3,10-1.5,20.1,0.8,31.1c16.7,0.5,32.8,0.9,50.4-0.2
	c0-6.9-0.3-12.3,0.1-17.7c0.6-9.1,2.4-10.7,11.5-10.9c11.7-0.2,23.5,0,35.2,0c10.5,0,12.5,1.7,12.7,12c0.3,12.5,0,25,0.2,37.5
	c0.1,5.6-2,9.6-6.3,13c-9.5,7.6-18.6,15.6-27.9,23.3c-22.2,18.5-44.3,37.2-66.8,55.3c-7.6,6.2-11.2,12.8-10.5,22.9
	c1,12.8,0.2,25.8,0.2,38.7c0,4.1,0,8.3,0,12.1c14.1,3.2,152.3,2.7,161.7-0.4C216.3,249.9,216.3,237.2,216.3,222.5z"/>
<path d="M216.3,222.5c0,14.7,0,27.5,0,40c-9.4,3.1-147.6,3.6-161.7,0.4c0-3.8,0-7.9,0-12.1c0-12.9,0.8-25.9-0.2-38.7
	c-0.8-10.1,2.8-16.8,10.5-22.9c22.5-18.1,44.6-36.8,66.8-55.3c9.3-7.8,18.4-15.8,27.9-23.3c4.4-3.5,6.4-7.5,6.3-13
	c-0.2-12.5,0.1-25-0.2-37.5c-0.2-10.3-2.2-12-12.7-12c-11.7,0-23.5-0.2-35.2,0c-9.1,0.1-10.9,1.8-11.5,10.9
	c-0.4,5.4-0.1,10.8-0.1,17.7c-17.5,1.1-33.7,0.7-50.4,0.2c-2.3-11-1.1-21.1-0.8-31.1c0.1-2.2,2.4-4.8,4.3-6.5
	c10.1-8.6,20.5-16.9,30.6-25.5c4.7-4,9.6-6,16-5.9c20.3,0.3,40.7,0.3,61,0c6.9-0.1,12,2.7,16.9,6.8c9.6,8,19.4,15.8,28.6,24.3
	c2.5,2.3,4.6,6.6,4.6,10c0.4,21.5,0.1,43,0.3,64.5c0.1,5.9-3.3,9.5-7.1,12.8c-13.3,11.5-26.8,22.8-40.2,34.1
	c-17.7,14.8-35.4,29.5-53.1,44.3c-1.2,1-2.8,1.8-3.5,3.1c-1.4,2.6-3.8,6-3,7.9c1.1,2.7,4.5,5.8,7.3,6.3c5.7,1.1,11.7,0.8,17.5,0.8
	c22.7,0,45.4-0.2,68-0.3C207,222.5,210.8,222.5,216.3,222.5z"/>
</svg>
