<?xml version="1.0" encoding="utf-8"?>
<!-- Generator: Adobe Illustrator 21.0.0, SVG Export Plug-In . SVG Version: 6.00 Build 0)  -->
<svg version="1.1"
	 id="Слой_1" xmlns:krita="http://krita.org/namespaces/svg/krita" xmlns:sodipodi="http://sodipodi.sourceforge.net/DTD/sodipodi-0.dtd"
	 xmlns="http://www.w3.org/2000/svg" xmlns:xlink="http://www.w3.org/1999/xlink" x="0px" y="0px" viewBox="0 0 272.2 272.2"
	 style="enable-background:new 0 0 272.2 272.2;" xml:space="preserve">
<path d="M38.3,134.8c0-28.4,0.1-56.9-0.1-85.3c0-5.3,0.5-9.9,5.1-13.5C56.5,25.7,69.6,15.4,82.4,4.6C86.3,1.3,90.1,0,95,0
	c27.7,0.1,55.3,0.1,83,0c4.9,0,8.9,1,12.8,4.3c12.7,10.8,25.7,21.4,38.8,31.9c4.7,3.8,4.4,8.7,4.4,13.8c-0.1,37-0.1,74-0.1,111
	c0,20.3,0,40.5,0.1,60.8c0,4.9-0.6,9-4.7,12.5c-13.6,11.6-26.9,23.6-40.6,35c-2.4,2-6.4,2.7-9.7,2.8c-27.7,0.2-55.3,0.2-83-0.1
	c-4,0-8.7-1.3-11.7-3.7C71,257.5,58.3,246,45,235.2c-5.4-4.4-6.9-9.5-6.8-16.2C38.5,190.9,38.3,162.8,38.3,134.8z M46.5,135.5
	L46.5,135.5c-0.1,27.3,0.1,54.5-0.2,81.8c-0.1,6.8,1.6,11.9,7,16.2c10.3,8.3,20.5,16.8,30.5,25.4c4.4,3.8,9,5.3,14.9,5.2
	c25.7-0.3,51.4-0.3,77.1,0c6,0.1,10.5-2.1,14.8-5.7c9.8-8.3,19.6-16.6,29.6-24.6c5.3-4.3,7.5-9.3,7.4-16.2c-0.3-23,0-46,0-68.9
	c0-30.8-0.3-61.5,0.1-92.3c0.1-9.1-2.7-15.6-9.8-21.1c-9.8-7.6-19-16.1-28.9-23.7c-2.8-2.2-7-3.7-10.6-3.7c-27.7-0.3-55.3-0.3-83,0
	c-3.6,0-7.8,1.4-10.6,3.6c-11,8.7-21.3,18.2-32.3,26.9c-4.8,3.8-6.2,8.2-6.2,14.1C46.6,80.2,46.5,107.9,46.5,135.5z"/>
<path d="M46.5,135.5c0-27.7,0.1-55.3-0.1-83c0-5.9,1.4-10.3,6.2-14.1c11-8.7,21.3-18.2,32.3-26.9c2.8-2.2,7-3.5,10.6-3.6
	c28.5-2.6,56.5-2.2,83,0c3.6,0,7.7,1.5,10.6,3.7c9.9,7.6,19.1,16.1,28.9,23.7c7.1,5.5,9.9,12,9.8,21.1c-0.5,30.8-0.1,61.5-0.1,92.3
	c0,23-0.2,46,0,68.9c0.1,6.9-2.2,11.9-7.4,16.2c-10,8-19.8,16.3-29.6,24.6c-4.3,3.6-8.8,5.7-14.8,5.7c-25.7-0.3-51.4-0.2-77.1,0
	c-5.8,0.1-10.5-1.5-14.9-5.2c-10-8.6-20.2-17.1-30.5-25.4c-5.4-4.3-7.1-9.4-7-16.2C46.7,190,46.5,162.8,46.5,135.5
	C46.4,135.5,46.5,135.5,46.5,135.5z M106.5,133.6c0,25.3-0.1,50.7,0,76c0,9.6,1.9,11.7,11.6,12c12.1,0.3,24.2,0.3,36.2,0.1
	c10.7-0.2,13.1-2.6,13.2-13.2c0.2-11.7,0-23.4,0-35.1c0-36.6,0-73.3,0-109.9c0-11.5-2.6-14.4-13.2-14.6c-11.7-0.2-23.4-0.2-35.1,0
	c-10.7,0.2-12.7,2.4-12.8,13.3C106.4,86.1,106.4,109.8,106.5,133.6z"/>
<path d="M106.4,133.6c0-23.8-0.1-47.5,0-71.3c0-10.9,2-13.1,12.8-13.3c11.7-0.2,23.4-0.2,35.1,0c10.5,0.2,13.2,3.1,13.2,14.6
	c0.1,36.6,0,73.3,0,109.9c0,11.7,0.2,23.4,0,35.1c-0.1,10.6-2.5,13-13.2,13.2c-12.1,0.2-24.2,0.2-36.2-0.1
	c-9.7-0.3-11.6-2.3-11.6-12C106.4,184.3,106.5,158.9,106.4,133.6z M157.2,212.3c0.6-2.7,1.1-3.8,1.1-4.9c0.1-47.5,0.1-95.1,0-142.6
	c0-2.5-1.2-5-1.7-7.2c-14,0-27.1,0-42,0c-0.8,51.4-0.5,102.2-0.2,154.6C129.1,213.2,142.8,212.8,157.2,212.3z"/>
<rect x="122.6" y="23.1" transform="matrix(0.9033 -0.429 0.429 0.9033 -44.0401 71.2735)" width="27" height="220.4"/>
</svg>
