<?xml version="1.0" encoding="utf-8"?>
<!-- Generator: Adobe Illustrator 21.0.0, SVG Export Plug-In . SVG Version: 6.00 Build 0)  -->
<svg version="1.1"
	 id="Слой_1" xmlns:krita="http://krita.org/namespaces/svg/krita" xmlns:sodipodi="http://sodipodi.sourceforge.net/DTD/sodipodi-0.dtd"
	 xmlns="http://www.w3.org/2000/svg" xmlns:xlink="http://www.w3.org/1999/xlink" x="0px" y="0px" viewBox="0 0 272.2 272.2"
	 style="enable-background:new 0 0 272.2 272.2;" xml:space="preserve">
<path d="M185.2,272.2c-22.3,0-44.1,0-67.6,0c0-65.8,0-131.5,0-198.2c-10.5,0-19.4,0.1-28.2,0c-11-0.1-11.1-0.2-14.1-11.2
	c-1.6-6-3.4-12.1-4.1-18.2c-0.3-2.5,1.3-6.2,3.2-7.8c13.4-11.4,27-22.5,40.8-33.4c2.3-1.8,5.6-3.2,8.4-3.2
	C143.9-0.1,164.1,0,184.1,0C187.4,9.8,188.3,251.9,185.2,272.2z M126.1,264.6c14.4,0,26.5,0.1,38.6,0c16.1-0.1,16.5-0.2,16.5-15.9
	c0-76.2-0.1-152.4-0.3-228.6c0-3.7-0.7-7.5-1.2-12.2c-19.4,0-37.7-0.1-56,0.1c-2.5,0-5.4,1.4-7.4,3c-11.5,9.4-22.9,18.9-34.1,28.6
	c-1.8,1.5-3.4,4.7-3.1,6.8c0.9,6.4,2.8,12.7,4.4,19.8c10.3,0,20-0.1,29.7,0c9.1,0.2,12.5,3.6,12.8,12.8c0.1,2.7,0,5.5,0,8.2
	c0,54.3,0,108.6,0,162.9C126.1,254.4,126.1,258.5,126.1,264.6z"/>
<path d="M126.1,264.6c0-6.1,0-10.2,0-14.4c0-54.3,0-108.6,0-162.9c0-2.7,0.1-5.5,0-8.2c-0.3-9.1-3.7-12.6-12.8-12.8
	c-9.7-0.2-19.4,0-29.7,0c-1.7-7.1-3.5-13.4-4.4-19.8c-0.3-2.1,1.4-5.2,3.1-6.8c11.2-9.7,22.6-19.3,34.1-28.6c2-1.6,4.9-3,7.4-3
	c18.3-0.3,36.6-0.1,56-0.1c0.5,4.7,1.2,8.5,1.2,12.2c0.2,76.2,0.3,152.4,0.3,228.6c0,15.7-0.4,15.8-16.5,15.9
	C152.6,264.7,140.6,264.6,126.1,264.6z"/>
</svg>
