<?xml version="1.0" encoding="utf-8"?>
<!-- Generator: Adobe Illustrator 21.0.0, SVG Export Plug-In . SVG Version: 6.00 Build 0)  -->
<svg version="1.1" id="Icons" xmlns="http://www.w3.org/2000/svg" xmlns:xlink="http://www.w3.org/1999/xlink" x="0px" y="0px"
	 viewBox="0 0 32 32" style="enable-background:new 0 0 32 32;" xml:space="preserve">
<g>
	<path d="M23.5,32c-1.9,0-2.7-0.5-4-0.1c-0.2,0-0.4,0-0.6,0c-0.5-0.2-2.4,0.3-2.9,0.2"/>
	<path d="M5.4,32c-1.4-0.1-0.2-0.2,0.8-2.4c0.2-3,1.2-2.9,2-3.3c0.4-0.2,2.3-0.2,2.2-0.7c-0.1-0.7-0.3-1.1,1.1-1
		c2,1.4,1.7,1.1,3.8,1c1-0.1,1.6-0.7,2.5-1.2c1.9-1.1,2.9-3.5,3.2-5.7c0.1-0.9,0.1-1.9,0-2.8c0.2-0.1-1.4-3.1-1.4-3.2
		c1.2-1.9,1.9-1.5,3.9-1.1c2,0.4,3.3,1.9,3.9,4.1c0,0.1,0.1,0.2,0.2,0.3c1,1.3,1.7,2.7,2.1,4.3c0,0.1,0.1,0.3,0.2,0.4
		c1.4,1.6,1.9,3.9,1.3,5.9c0,0.1-0.1,0.2-0.1,0.2c-0.7,0,0.1,2.6,0.3,3c1.1,1.6,1.3,2.5-2.8,2"/>
</g>
<g>
	<path d="M4,0c2.2,3.7,4.4,7.4,6.6,11.1c0,0,0.1,0.1,0.1,0.1c1.4-0.8,2.8-1.7,4.2-2.5c0.2,0.2,0.3,0.4,0.4,0.6
		c0.8,1.3,1.5,2.6,2.3,3.9c0.8,1.2,1.1,2.5,0.9,3.9c-0.1,1-0.3,2.1-0.7,3.1c-0.9,2.3-2.9,3.4-5.3,2.9c-1.1-0.2-2.3-0.7-3.3-1.2
		c-1-0.4-1.7-1.2-2.2-2.1c-0.9-1.5-1.8-3.1-2.8-4.7c1.5-0.9,2.9-1.7,4.4-2.6c-0.1-0.3-0.2-0.5-0.4-0.7C6,7.9,3.6,3.9,1.3,0 M1.3,0"
		/>
</g>
</svg>
