<?xml version="1.0" encoding="utf-8"?>
<!-- Generator: Adobe Illustrator 21.0.0, SVG Export Plug-In . SVG Version: 6.00 Build 0)  -->
<svg version="1.1" id="Layer_1" xmlns="http://www.w3.org/2000/svg" xmlns:xlink="http://www.w3.org/1999/xlink" x="0px" y="0px"
	 viewBox="0 0 300.7 300.7" style="enable-background:new 0 0 300.7 300.7;" xml:space="preserve">
<polygon points="159.5,298.9 115.7,298.9 93.8,260.9 115.7,223 159.5,223 181.4,260.9 "/>
<polygon points="79.9,291.6 39,297.7 16.3,277 33.7,244.4 65.7,236.2 88.8,259.8 "/>
<polygon points="193.3,213 168.8,220.4 151.8,201.4 159.1,175.1 183.6,167.7 200.7,186.7 "/>
<polygon points="230.1,298.5 199.7,285.7 186.4,235.5 244.7,207.1 293.5,233.2 284,287.7 "/>
<polygon points="102.3,217.2 45.7,234.3 42.4,197.1 75.4,160.3 110,168.6 134.7,179.5 "/>
<polygon points="260.1,196.8 225.5,199.2 206.2,170.5 221.4,139.4 256,137 275.3,165.7 "/>
<g>
	<path d="M132.8-0.5c0.6,0.5,1.2,1,1.7,1.5c2.2,1.9,3.9,3.5,6.7,1.5c0.3-0.2,0.7-0.3,1-0.4c8.6-0.6,10.3,7.6,14.7,12.1
		c1.6,1.7,0.9,5.6,1.1,8.5c0.2,2.1-0.7,4.7,0.2,6.3c20.3,34.9,31.6,72.6,35.4,112.6c0.4,4.6-0.1,9.3-0.6,13.9
		c-0.2,1.5-1.9,2.9-2.8,4.3c-1.3-0.9-3.1-1.5-3.8-2.8c-3.6-6.7-7.2-13.4-10.4-20.4C164.6,112,152.7,87.4,136.7,65
		c-0.6-0.9-1.4-1.7-2.6-3.2c-2.9,2.4-5.2,4.5-7.7,6.4c-4.5,3.5-8.1,3.3-11.7-0.9c-8.4-10-16.8-20-25.1-30.1c-3.3-4.1-3-7.7,0.9-11.3
		c2.4-2.2,5.1-4.3,8.4-7C92.8,13,87.5,7,81.3,2.1c-0.8-0.6-1.5-1.2-2.3-1.8"/>
	<path d="M0.1,112.5c0.3-0.3,0.7-0.5,1-0.8c4.3-3.6,8.7-7.2,13-10.8c19.8-16.5,39.6-33,59.4-49.4c6.5-5.4,9.1-5.2,14.4,1.1
		c4.1,4.8,8.2,9.7,12.2,14.7c4.1,5.2,3.8,8.3-1.1,12.4C66.7,106.5,34.6,133.3,2.3,160c-0.7,0.5-1.3,1.1-2,1.6"/>
</g>
</svg>
