<?xml version="1.0" encoding="utf-8"?>
<!-- Generator: Adobe Illustrator 21.0.0, SVG Export Plug-In . SVG Version: 6.00 Build 0)  -->
<svg version="1.1"
	 id="Слой_1" xmlns:krita="http://krita.org/namespaces/svg/krita" xmlns:sodipodi="http://sodipodi.sourceforge.net/DTD/sodipodi-0.dtd"
	 xmlns="http://www.w3.org/2000/svg" xmlns:xlink="http://www.w3.org/1999/xlink" x="0px" y="0px" viewBox="0 0 272.2 272.2"
	 style="enable-background:new 0 0 272.2 272.2;" xml:space="preserve">
<path d="M147.6,198h-23c-6.9,0-12.5-6-12.5-13.4l-7.4-170.3c0-7.4,13-14.3,19.9-14.3h23c6.9,0,20.8,5.1,20.8,12.5l-8.3,172.1
	C160.1,192,154.4,198,147.6,198z"/>
<path d="M147.6,272.2h-23c-6.9,0-12.5-5.6-12.5-12.5v-19.7c0-6.9,5.6-12.5,12.5-12.5h23c6.9,0,12.5,5.6,12.5,12.5v19.7
	C160.1,266.5,154.4,272.2,147.6,272.2z"/>
</svg>
