<?xml version="1.0" encoding="utf-8"?>
<!-- Generator: Adobe Illustrator 21.0.0, SVG Export Plug-In . SVG Version: 6.00 Build 0)  -->
<svg version="1.1"
	 id="Слой_1" xmlns:krita="http://krita.org/namespaces/svg/krita" xmlns:sodipodi="http://sodipodi.sourceforge.net/DTD/sodipodi-0.dtd"
	 xmlns="http://www.w3.org/2000/svg" xmlns:xlink="http://www.w3.org/1999/xlink" x="0px" y="0px" viewBox="0 0 272.2 272.2"
	 style="enable-background:new 0 0 272.2 272.2;" xml:space="preserve">
<path d="M147.6,272.2h-23c-6.9,0-12.5-5.6-12.5-12.5v-19.7c0-6.9,5.6-12.5,12.5-12.5h23c6.9,0,12.5,5.6,12.5,12.5v19.7
	C160.1,266.5,154.4,272.2,147.6,272.2z"/>
<g>
	<path d="M157.5,0c10.3,3.4,32.2,6.8,50,17.2c42.1,24.8,44.3,83.2,5.4,112.6c-20.6,15.6-44.3,26.7-54.2,54c-2.2,5.9-19,10.8-27.6,9
		c-8.4-1.8-18.9-11.3-21.6-19.7c-6.6-20.4,2.7-37.3,19.8-49.6c10-7.1,20.9-13.1,30.1-21c13.9-12,14.9-31.8,3.5-42.7
		c-11.6-11.1-34.6-9.7-45.7,2.9c-2.5,2.8-4.2,6.4-6.3,9.6C99.1,90,81.5,95.9,66.1,87.3c-14.5-8.1-18.4-28.4-7.4-46.9
		C78.6,7.1,111.8,1.9,157.5,0z"/>
</g>
</svg>
