<?xml version="1.0" encoding="utf-8"?>
<!-- Generator: Adobe Illustrator 21.0.0, SVG Export Plug-In . SVG Version: 6.00 Build 0)  -->
<svg version="1.1"
	 id="Слой_1" xmlns:krita="http://krita.org/namespaces/svg/krita" xmlns:sodipodi="http://sodipodi.sourceforge.net/DTD/sodipodi-0.dtd"
	 xmlns="http://www.w3.org/2000/svg" xmlns:xlink="http://www.w3.org/1999/xlink" x="0px" y="0px" viewBox="0 0 272.2 272.2"
	 style="enable-background:new 0 0 272.2 272.2;" xml:space="preserve">
<path d="M251.6,198h-23c-6.9,0-12.5-6-12.5-13.4l-7.4-170.3c0-7.4,13-14.3,19.9-14.3h23c6.9,0,20.8,5.1,20.8,12.5l-8.3,172.1
	C264.1,192,258.4,198,251.6,198z"/>
<path d="M251.6,272.2h-23c-6.9,0-12.5-5.6-12.5-12.5v-19.7c0-6.9,5.6-12.5,12.5-12.5h23c6.9,0,12.5,5.6,12.5,12.5v19.7
	C264.1,266.5,258.4,272.2,251.6,272.2z"/>
<path d="M95.9,272.2H73c-6.9,0-12.5-5.6-12.5-12.5v-19.7c0-6.9,5.6-12.5,12.5-12.5h23c6.9,0,12.5,5.6,12.5,12.5v19.7
	C108.5,266.5,102.8,272.2,95.9,272.2z"/>
<g>
	<path d="M105.9,0c10.3,3.4,32.2,6.8,50,17.2c42.1,24.8,44.3,83.2,5.4,112.6c-20.6,15.6-44.3,26.7-54.2,54c-2.2,5.9-19,10.8-27.6,9
		c-8.4-1.8-18.9-11.3-21.6-19.7c-6.6-20.4,2.7-37.3,19.8-49.6c10-7.1,20.9-13.1,30.1-21c13.9-12,14.9-31.8,3.5-42.7
		c-11.6-11.1-34.6-9.7-45.7,2.9c-2.5,2.8-4.2,6.4-6.3,9.6C47.5,90,29.9,95.9,14.5,87.3C0,79.2-3.9,58.8,7.1,40.4
		C27,7.1,60.2,1.9,105.9,0z"/>
</g>
</svg>
