<?xml version="1.0" encoding="utf-8"?>
<!-- Generator: Adobe Illustrator 21.0.0, SVG Export Plug-In . SVG Version: 6.00 Build 0)  -->
<svg version="1.1" id="Icons" xmlns="http://www.w3.org/2000/svg" xmlns:xlink="http://www.w3.org/1999/xlink" x="0px" y="0px"
	 viewBox="0 0 32 32" style="enable-background:new 0 0 32 32;" xml:space="preserve">
<g>
	<path d="M8.1,16.1c0,1.6,0,3.2,0,4.8c0,0.7-0.4,1.1-1.1,0.9c-0.3-0.1-0.6-0.3-0.9-0.5c-1.8-1.5-3.5-2.9-5.3-4.4
		C0,16.3,0,15.7,0.8,15c1.8-1.4,3.5-2.9,5.3-4.3c0.2-0.2,0.5-0.4,0.8-0.4c0.8-0.1,1.2,0,1.2,0.9C8.1,12.9,8.1,14.5,8.1,16.1z"/>
	<path d="M16,8.1c-1.6,0-3.2,0-4.7,0c-1,0-1.4-0.7-0.9-1.6c0.1-0.1,0.2-0.2,0.3-0.4C12,4.4,13.5,2.6,15,0.8c0.6-0.7,1.1-0.7,1.7,0
		c1.5,1.8,3.1,3.6,4.6,5.4c0.2,0.2,0.4,0.5,0.4,0.8c0.2,0.8-0.1,1.1-0.9,1.1C19.2,8.1,17.6,8.1,16,8.1z"/>
	<path d="M24,10.7c0.8-0.3,1.5-0.3,2.2,0.3c1.7,1.4,3.4,2.7,5,4c0.8,0.6,0.8,1.3,0,1.9c-1.8,1.5-3.5,2.9-5.3,4.4
		c-0.3,0.2-0.6,0.4-0.9,0.4c-0.8,0.1-1.1-0.1-1.1-0.9c0-3.1,0-6.3,0-9.4C24,11.2,24,10.9,24,10.7z"/>
	<path d="M16.1,24.1c1.6,0,3.3,0,4.9,0c0.3,0,0.7,0.2,0.7,0.3c0.1,0.3,0,0.7-0.2,1c-0.5,0.8-1.1,1.5-1.7,2.2c-1,1.2-2,2.5-3,3.7
		c-0.6,0.7-1.3,0.7-1.9,0c-1.5-1.9-2.9-3.8-4.4-5.8c-0.2-0.3-0.3-0.7-0.2-1c0-0.2,0.5-0.3,0.8-0.3C12.8,24,14.4,24.1,16.1,24.1z"/>
	<path d="M12.1,16c0-2.1,1.7-3.9,3.7-3.9c2.2,0,4.1,1.8,4.1,3.9c0,2.1-1.9,3.9-4.1,3.9C13.8,19.9,12.1,18.1,12.1,16z"/>
</g>
</svg>
