<?xml version="1.0" encoding="utf-8"?>
<!-- Generator: Adobe Illustrator 21.0.0, SVG Export Plug-In . SVG Version: 6.00 Build 0)  -->
<svg version="1.1" id="Icons" xmlns="http://www.w3.org/2000/svg" xmlns:xlink="http://www.w3.org/1999/xlink" x="0px" y="0px"
	 viewBox="0 0 32 32" style="enable-background:new 0 0 32 32;" xml:space="preserve">
<g id="XMLID_1_">
	<path d="M20,23.7c0,2.5,0,4.9,0,7.4c0,0.1,0,0.2,0,0.3c-0.2-0.1-0.3-0.1-0.5-0.1c-2.4-0.9-4.7-1.9-7.1-2.8
		c-0.2-0.1-0.4-0.2-0.4-0.6c0-3.6,0-7.3,0-10.9c1.6,2.5,3.5,4.9,5.5,7.2c0.6,0.7,1.5,0.7,2.2,0C19.8,24,19.9,23.8,20,23.7z"/>
	<path d="M10,13.6c0,4.7,0,9.4,0,14.1c0,0.5-0.1,0.7-0.6,0.9c-2.6,1-5.1,2-7.7,3.1c-1.1,0.4-1.7,0-1.7-1.2c0-5.9,0-11.8,0-17.6
		c0-0.7,0.2-1.1,0.8-1.4c2.6-1,5.3-2.1,7.9-3.2c-0.1,1.5,0.2,3,0.9,4.5C9.8,13.1,9.9,13.3,10,13.6z"/>
	<path d="M19.6,11.5c-0.4,0.2-0.9,0.3-1.3,0.3c-1.8,0-3.4-1.4-3.5-3.2c0-0.1,0-0.2,0-0.3c0-1.9,1.6-3.5,3.5-3.5s3.5,1.6,3.5,3.5
		C21.8,9.7,20.8,10.9,19.6,11.5z M10,7.5C9.9,8,10,8.6,10.1,9.3c0.1,0.7,0.4,1.4,0.7,2.1c0.4,0.8,0.8,1.5,1.2,2.3
		c1.5,2.6,3.4,4.9,5.3,7.2c0.6,0.6,1.2,0.6,1.8,0c0.2-0.2,0.3-0.4,0.5-0.5c0.7-0.8,1.3-1.5,1.9-2.3c1.4-1.9,2.7-3.8,3.9-6
		c0.3-0.7,0.6-1.3,0.9-2c0.2-0.7,0.3-1.2,0.3-2c-0.1-4.4-3.8-8-8.2-8C13.8,0,10.4,3.5,10,7.5z"/>
	<path d="M32,10.1c0,0.3,0,3,0,3.1c0,4.5,0,9,0,13.5c0,0.9-0.1,1.1-1,1.5c-2.8,1.1-5.6,2.2-8.4,3.4c-0.2,0.1-0.4,0.1-0.6,0.2
		c0-2.3,0-6.4,0-10.5c1.9-2.4,3.7-4.9,5.1-7.7c0.5-1,0.9-2,1.1-3c0.9,0,1.9-0.1,2.9-0.7C31.3,9.8,31.9,9.5,32,10.1z"/>
</g>
</svg>
