<?xml version="1.0" encoding="utf-8"?>
<!-- Generator: Adobe Illustrator 21.0.0, SVG Export Plug-In . SVG Version: 6.00 Build 0)  -->
<svg version="1.1" id="Icons" xmlns="http://www.w3.org/2000/svg" xmlns:xlink="http://www.w3.org/1999/xlink" x="0px" y="0px"
	 viewBox="0 0 32 32" style="enable-background:new 0 0 32 32;" xml:space="preserve">
<path d="M16.3,0c5,0,9.3,3.8,10.1,8.7c0.2,2,0,3.8-0.4,5.8c-0.7,3.2-2.1,6.3-3.7,9.1c-1.5,2.7-3.2,5.4-5.1,7.8
	c-0.1,0.1-0.1,0.2-0.2,0.2c-0.4,0.5-0.9,0.5-1.2,0c-0.5-0.6-1.1-1.3-1.6-2.1c-2.5-3.4-4.7-7.1-6.3-11C7,16.2,6.2,13.9,6,11.4
	C5.4,6,8.8,1.3,14.1,0.1C14.9,0.1,15.7,0.1,16.3,0z M16.4,4.9c-3.1-0.1-5.5,2.4-5.4,5.4c0.1,2.7,2.4,5,5.1,5.1
	c3.1,0.1,5.5-2.4,5.4-5.4C21.5,7.3,19.2,5,16.4,4.9z"/>
</svg>
