<?xml version="1.0" encoding="utf-8"?>
<!-- Generator: Adobe Illustrator 21.0.0, SVG Export Plug-In . SVG Version: 6.00 Build 0)  -->
<svg version="1.1" id="Icons" xmlns="http://www.w3.org/2000/svg" xmlns:xlink="http://www.w3.org/1999/xlink" x="0px" y="0px"
	 viewBox="0 0 32 32" style="enable-background:new 0 0 32 32;" xml:space="preserve">
<polygon points="23.9,12.8 15.8,0 7.7,13 15.8,17.9 "/>
<g id="XMLID_1_">
	<polygon points="20.9,18.9 26.4,15.4 27.4,13.9 22.1,0.3 31.9,14.7 22.3,23.8 22,22.8 21.9,22.2 	"/>
	<polygon points="12.2,26 12.2,26 15.9,32 19.8,26.1 19.7,25.5 18.2,20.5 15.9,22 13.7,20.5 12.3,25.4 12.2,26 	"/>
	<polygon points="9.5,23.5 9.9,22.3 10,21.9 10.9,18.7 5.3,15 4.6,13.8 9.9,0.2 0.1,14.6 	"/>
</g>
</svg>
