<?xml version="1.0" encoding="utf-8"?>
<!-- Generator: Adobe Illustrator 21.0.0, SVG Export Plug-In . SVG Version: 6.00 Build 0)  -->
<svg version="1.1" id="Icons" xmlns="http://www.w3.org/2000/svg" xmlns:xlink="http://www.w3.org/1999/xlink" x="0px" y="0px"
	 viewBox="0 0 32 32" style="enable-background:new 0 0 32 32;" xml:space="preserve">
<path d="M19.2,32c-1.2,0-2.4,0-3.9,0c0-2.3,0-4.7,0-7c1.2,0,2.4,0,3.9,0C19.2,27.3,19.2,29.7,19.2,32z"/>
<path d="M19.2,3.8c-1.2,0-2.7,0-3.9,0c0-0.1,0-0.1,0-0.2c0-0.7,0-1.4,0-2.1c0-0.8,1-1.5,2-1.5c1.1,0,2,0.7,2,1.4
	C19.2,2.4,19.2,3,19.2,3.8z"/>
<path d="M10.7,13.8c-0.3,0-0.6-0.1-0.8-0.3c-1.4-1-2.8-2.1-4.1-3.1c-0.1-0.1-0.3-0.3-0.3-0.4C5.5,9.6,5.6,9.2,6,9
	c1.4-1.1,2.8-2.1,4.1-3.1c0.3-0.3,0.5-0.3,0.8-0.3c4.4,0,8.8,0,13.2,0c0.8,0,1,0.4,1,1c0,2,0,4,0,6c0,0.5-0.3,1-1,1"/>
<path d="M10.5,23.3c-0.7,0-1-0.5-1-1c0-2,0-4,0-6c0-0.6,0.2-1,1-1c4.4,0,8.8,0,13.2,0c0.3,0,0.5,0,0.8,0.3c1.3,1,2.7,2,4.1,3.1
	c0.4,0.2,0.5,0.6,0.4,1c0,0.1-0.2,0.3-0.3,0.4c-1.3,1-2.7,2.1-4.1,3.1c-0.2,0.2-0.5,0.3-0.8,0.3"/>
<path d="M19.2,14.8c-1.2,0-2.4,0-3.9,0c0-0.2,0-0.4,0-0.6c1.2,0,2.4,0,3.9,0C19.2,14.4,19.2,14.6,19.2,14.8z"/>
</svg>
