<?xml version="1.0" encoding="utf-8"?>
<!-- Generator: Adobe Illustrator 21.0.0, SVG Export Plug-In . SVG Version: 6.00 Build 0)  -->
<svg version="1.1" id="Слой_1" xmlns="http://www.w3.org/2000/svg" xmlns:xlink="http://www.w3.org/1999/xlink" x="0px" y="0px"
	 viewBox="0 0 512 512" style="enable-background:new 0 0 512 512;" xml:space="preserve">
<style type="text/css">
	.st0{fill:#FFFFFF;}
</style>
<path d="M23.4,501.8c4.2,8.9,14.6,12.7,23.5,8.4c7.4-3.5,11.3-11.3,9.9-19l45-49.9c13.5,9.2,31.1,13.8,52.4,12.6l32.7,17.3l9.7-18.5
	l-10.1-5.3c-36.5-22-75-54.1-103.2-87.5l-17.2-25.7l-17.4,11.7l20.9,31.3c1.2,15.5,4.8,28.8,10.6,39.7c1.9,3.6,4.1,7,6.4,10.1
	l-44.9,49.8c-3.3-0.4-6.7,0-10,1.6C23,482.5,19.2,492.9,23.4,501.8L23.4,501.8z M115.2,363.4c14.6,15,31.2,29.7,48.2,42.6
	c0,0,152.9-166.8,234-258.7c7.6-8.6,101-139.1,92.4-146.8c-10-8.8-134.3,99.4-143.8,108.8C261.7,193,115.2,363.4,115.2,363.4
	L115.2,363.4z"/>
<path class="st0" d="M394.3,126.3C345,194,169.5,374.6,169.5,374.6L155,361.4L451.5,49C451.5,49,408,107.5,394.3,126.3z"/>
</svg>
