<?xml version="1.0" encoding="utf-8"?>
<!-- Generator: Adobe Illustrator 21.0.0, SVG Export Plug-In . SVG Version: 6.00 Build 0)  -->
<svg version="1.1" id="Слой_1" xmlns="http://www.w3.org/2000/svg" xmlns:xlink="http://www.w3.org/1999/xlink" x="0px" y="0px"
	 viewBox="0 0 117.2 119.3" style="enable-background:new 0 0 117.2 119.3;" xml:space="preserve">
<style type="text/css">
	.st0{fill:#1D1D1B;}
</style>
<g id="Layer_1">
</g>
<g id="Layer_2">
</g>
<g id="Layer_3">
</g>
<g id="Layer_5">
</g>
<g id="Layer_6">
</g>
<g id="Layer_7">
</g>
<g id="Layer_8">
</g>
<g id="Layer_9">
</g>
<g id="Layer_10">
</g>
<g id="Layer_11">
</g>
<g id="Layer_13">
</g>
<g id="Layer_12">
</g>
<g id="Layer_14">
</g>
<g id="Layer_15">
</g>
<g id="Layer_16">
</g>
<g id="Layer_17">
</g>
<g id="Layer_18">
</g>
<g id="Layer_19">
</g>
<g id="Layer_20">
</g>
<g id="Layer_21">
</g>
<g id="Layer_22">
</g>
<g id="Layer_23">
</g>
<g id="Layer_24">
</g>
<g id="Layer_25">
</g>
<g id="Layer_30">
</g>
<g id="Layer_26">
</g>
<g id="Layer_27">
</g>
<g id="Layer_28">
</g>
<g id="Layer_29">
</g>
<path class="st0" d="M46.9,52.4c0,0-13.3,8.8-26.3,5.7S-1.6,47.3-0.1,41s13.3-8.8,26.3-5.7S46.9,52.4,46.9,52.4z"/>
<path class="st0" d="M56.9,43.5c0,0-13.3-10.7-12.4-22.4s8-20.8,15.8-20.2s13.3,10.7,12.4,22.4C71.7,35.1,56.9,43.5,56.9,43.5z"/>
<path class="st0" d="M39,30.6c0,0-16.1,4.7-26.1-2.8S-1.7,9.5,2.7,3.6s16.1-4.7,26.1,2.8S39,30.6,39,30.6z"/>
<g id="XMLID_1_">
	<path class="st0" d="M115.5,54.2c1.4,4.9,1,11-1.5,18.8c-1.3,4.3-5.4,9.3-6.1,13.6c-0.8,5,1.7,22.8,3.7,28.6c0.7,2-0.9,4-3,3.8
		c-8.6-0.6-29.9-4.7-35.7-3.8c-12.8,1.9-25.8,6-33.8-3.8c-0.1-0.1-0.1-0.1-0.2-0.2l21.5-26.1c2.2-2.7,1.8-6.7-0.9-8.9l-25.8,24.3
		c-2.5-9-2-19.7,0.9-27.9c2.7-7.5,10-15.2,17-20.8c17.9-14.6,37.4-22.4,55.2-9.3c1.4,1,2.7,2.1,3.8,3.3L99.1,59.9
		c-2.2,2.7-1.8,6.7,0.9,8.9L115.5,54.2z"/>
</g>
</svg>
