<?xml version="1.0" encoding="utf-8"?>
<!-- Generator: Adobe Illustrator 21.0.0, SVG Export Plug-In . SVG Version: 6.00 Build 0)  -->
<svg version="1.1" id="Layer_1" xmlns="http://www.w3.org/2000/svg" xmlns:xlink="http://www.w3.org/1999/xlink" x="0px" y="0px"
	 viewBox="0 0 300.7 300.7" style="enable-background:new 0 0 300.7 300.7;" xml:space="preserve">
<style type="text/css">
	.st0{fill-rule:evenodd;clip-rule:evenodd;fill:#BA7D00;}
</style>
<path d="M443.5,107.9c5.4-3.9,9.7-7.6,14.4-10.4c5.2-3,10.2-2,15,1.9c9.1,7.4,28.2,30.7,33.6,41.8c-0.3,0.3-0.5,0.7-0.8,0.9
	c-2.6,1.7-5.3,3.4-8,5.1c2.9,1.5,5.9,4.3,8.8,4.1c6.1-0.3,8.6,2.8,11.3,7.5c10.2,18.3,18.2,37.4,20.9,58.4c0.2,1.5-1.6,4.4-2.9,4.6
	c-4.2,0.9-8.5,1.3-12.8,1.1c-6.1-0.2-12.2-1.1-18-1.7c-2.6,8.3-14.8,12.3-21.9,6.8c-5.1-3.9-9.9-3.3-15.1-3.3
	c-5.5,0.1-10.6-0.8-15.8,4c-4.9,4.5-12.7,3.1-19.1-0.1c-2.3-1.1-4.9-1.7-7.4-2.6c-4.3-1.4-8.7-3-13.1-4.3c-3.1-0.9-6.2-1.7-9.3-2.3
	c-7-1.4-14-2.8-21.5-4.2c4.6-17.3,11.9-32.6,20.2-47.6c0.6-1.1,2.8-1.5,4.3-1.9c1.2-0.3,2.8,0.1,3.8-0.4c2.7-1.3,5.3-3,7.9-4.5
	c-2.3-1.5-4.7-3.1-7-4.6c-0.5-0.3-1.1-0.6-2.9-1.5c9.6-13.6,19-26.9,28.5-40.3c7.3,4.8,14,5.3,20.9,3.1c1.6-0.5,2.7-2.4,4-3.7
	c-1.3-1.3-2.4-3.3-3.9-3.7C453.7,109.2,449.4,108.8,443.5,107.9z M426.4,199.3c3.6-1.2,9.9,1.1,11.1-6.2c0.1-0.4,1.8-0.7,2.7-0.9
	c2.3-0.5,4.7-0.7,6.9-1.6c1.2-0.5,3-2.2,2.9-3c-0.2-1.4-1.7-2.9-3-3.6c-7.5-4-15.2-2.2-20.7,4.4c-0.5,0.7-1.9,0.6-2.7,1.1
	c-3.3,1.7-6.6,3.5-9.9,5.3c3.5,1.5,7.1,3.1,10.6,4.5C424.8,199.4,425.3,199.3,426.4,199.3z M497.6,190.4c-4.3,2.6-7.9,4.7-11.5,6.9
	c3.7,1.6,7.4,4.5,11.2,4.6c4.2,0.2,10.7,1.1,11.6-5C509.2,195.4,502.1,192.9,497.6,190.4z"/>
<g>
	<g id="XMLID_1_">
		<path class="st0" d="M263,287.7c7.3,4.4-2.9,12.8-12.1,11.4c0,0-5.3-0.9-7.1-1c-21.4-1.5-60.3-11.1-81.8-11.1
			c-20.8,0-66.4,9.6-87.1,11.1c-1.5,0.1-17.2,1-17.2,1c-12,1.7-20-9.1-12-16.1c0,0,7.3-6,8-7.3C68.6,245.6,62,182,62,149.8
			c0-32.1,0.4-79.5-3.6-112.2c-0.4-3.4-7.6-26.1-7.6-26.1C45.4,7,51.3,0,59,1.7c0,0,11.5,3,15.5,3.5c20.3,2.2,90.1,10.3,107.6,5.3
			c21.1-6,40.5-2.9,62.3-5.3C247,4.9,255,2.8,255,2.8c9-2,9.3,1.8,9.6,11.6c0,0-7.7,15.6-9.6,19c-16,28.8-12.1,85.7-12.1,117
			c-0.1,33.3,0.6,126.4,9.1,130.3C258.7,283.7,263,287.7,263,287.7z M187.8,254.4c32.7-10.9,47.1-45.1,30.9-73.7
			C190.5,194.8,174.8,232.3,187.8,254.4z M172.9,194.6c32.5-10.7,46.7-44.7,30.9-73.8C175.8,134.7,160,172.5,172.9,194.6z
			 M157.5,134.7c28-7.1,50.2-43,31.2-73.6C159.3,79.3,147.6,103.5,157.5,134.7z M112.3,223.8c0,33.3,29.4,57.1,62.5,50.2
			C169.1,241.6,145.9,224.7,112.3,223.8z M97.9,164.4c-1.4,35.7,32.8,56.3,62.2,50.5C154.7,182.2,132.1,166.3,97.9,164.4z M138,99.7
			c8.1-31.3-4.3-54.5-36-70.8C87.7,58.3,105.1,92.8,138,99.7z M82.9,104.4c-0.8,38.6,36.8,57.1,62.4,50.1
			C139.4,122.7,118.1,106.9,82.9,104.4z"/>
	</g>
</g>
</svg>
