<?xml version="1.0" encoding="utf-8"?>
<!-- Generator: Adobe Illustrator 24.2.0, SVG Export Plug-In . SVG Version: 6.00 Build 0)  -->
<svg version="1.1" xmlns="http://www.w3.org/2000/svg" xmlns:xlink="http://www.w3.org/1999/xlink" x="0px" y="0px"
	 viewBox="0 0 91.28 103.72" style="enable-background:new 0 0 91.28 103.72;" xml:space="preserve">
<style type="text/css">
	.st0{fill:#1D1D1B;}
	.st1{fill:none;stroke:#1D1D1B;stroke-miterlimit:10;}
</style>
<g id="Layer_1">
	<path class="st0" d="M68.11,17.65c-0.44-0.02-0.88-0.04-1.33-0.04c-8.05,0-15.13,4.11-19.3,10.33
		c-2.16-16.68,4.39-26.21,4.39-26.21L47.09,0c-5.39,9.42-4.63,20.92-3.48,27.67C39.43,21.6,32.44,17.61,24.5,17.61
		c-0.45,0-0.89,0.02-1.33,0.04c-42.93,1.71-18.37,86.07,10.6,86.07c5.02,0,9.4-2.66,11.86-6.63c2.46,3.98,6.85,6.63,11.86,6.63
		C86.48,103.72,111.03,19.36,68.11,17.65z M41.22,64.82c-0.98,1.67-3.13,2.22-4.8,1.24c-1.67-0.98-2.22-3.13-1.24-4.8
		c2.11-3.57,6.78-4.59,6.78-4.59S43.33,61.25,41.22,64.82z M54.86,66.06c-1.67,0.98-3.82,0.43-4.8-1.24
		c-2.11-3.57-0.74-8.15-0.74-8.15s4.67,1.02,6.78,4.59C57.09,62.92,56.53,65.07,54.86,66.06z"/>
</g>
<g id="Layer_2">
</g>
<g id="Layer_3">
</g>
<g id="Layer_4">
</g>
<g id="Layer_5">
</g>
<g id="Layer_6">
</g>
<g id="Layer_7">
</g>
<g id="Layer_8">
</g>
<g id="Layer_9">
</g>
<g id="Layer_10">
</g>
<g id="Layer_11">
</g>
<g id="Layer_13">
</g>
<g id="Layer_12">
</g>
<g id="Layer_14">
</g>
<g id="Layer_15">
</g>
<g id="Layer_16">
</g>
<g id="Layer_17">
</g>
<g id="Layer_18">
</g>
<g id="Layer_19">
</g>
<g id="Layer_20">
</g>
<g id="Layer_21">
</g>
<g id="Layer_22">
</g>
<g id="Layer_23">
</g>
<g id="Layer_24">
</g>
<g id="Layer_25">
</g>
<g id="Layer_30">
</g>
<g id="Layer_26">
</g>
<g id="Layer_27">
</g>
<g id="Layer_28">
</g>
<g id="Layer_29">
</g>
<g id="Layer_31">
</g>
</svg>
