<?xml version="1.0" encoding="utf-8"?>
<!-- Generator: Adobe Illustrator 21.0.0, SVG Export Plug-In . SVG Version: 6.00 Build 0)  -->
<svg version="1.1"
	 id="Слой_1" xmlns:krita="http://krita.org/namespaces/svg/krita" xmlns:sodipodi="http://sodipodi.sourceforge.net/DTD/sodipodi-0.dtd"
	 xmlns="http://www.w3.org/2000/svg" xmlns:xlink="http://www.w3.org/1999/xlink" x="0px" y="0px" viewBox="0 0 272.2 272.2"
	 style="enable-background:new 0 0 272.2 272.2;" xml:space="preserve">
<g id="XMLID_1_">
</g>
<path id="path256" sodipodi:nodetypes="cccccccccccccccccccccccccccccccccccccc" d="M119.1,0l-17,40.4c-3.4,1-6.4,2.7-9.5,4.4
	l-40.4-17L27.8,52.3l17,40.4c-1.7,3.4-3.1,6.1-4.4,9.5L0,119.1v33.9l40.4,17c1.4,3.4,2.7,6.1,4.4,9.5l-17,40.4l24.4,24.4l40.4-17
	c3.1,1.4,6.1,3.1,9.5,4.4l17,40.4h33.9l17-40.4c3.1-1.4,6.4-2.7,9.5-4.4l40.4,17l24.4-24.4l-17-40.4c1.4-3.1,3.1-6.4,4.4-9.5
	l40.4-17v-33.9l-40.4-17c-1-3.1-2.7-6.4-4.4-9.5l17-40.4l-24.4-24.4l-40.4,17c-3.1-1.4-6.4-3.1-9.5-4.4L153.1,0H119.1z M136.1,84.9
	c28.2,0,50.9,22.7,50.9,50.9c0,28.2-22.7,50.9-50.9,50.9c-28.2,0-50.9-22.7-50.9-50.9C85.2,107.6,107.9,84.9,136.1,84.9z"/>
</svg>
