<?xml version="1.0" encoding="utf-8"?>
<!-- Generator: Adobe Illustrator 21.0.0, SVG Export Plug-In . SVG Version: 6.00 Build 0)  -->
<svg version="1.1"
	 id="svg8" inkscape:version="0.92.4 (5da689c313, 2019-01-14)" sodipodi:docname="pick.svg" xmlns:cc="http://creativecommons.org/ns#" xmlns:dc="http://purl.org/dc/elements/1.1/" xmlns:inkscape="http://www.inkscape.org/namespaces/inkscape" xmlns:rdf="http://www.w3.org/1999/02/22-rdf-syntax-ns#" xmlns:sodipodi="http://sodipodi.sourceforge.net/DTD/sodipodi-0.dtd" xmlns:svg="http://www.w3.org/2000/svg"
	 xmlns="http://www.w3.org/2000/svg" xmlns:xlink="http://www.w3.org/1999/xlink" x="0px" y="0px" viewBox="0 0 62.2 62.4"
	 style="enable-background:new 0 0 62.2 62.4;" xml:space="preserve">
<sodipodi:namedview  bordercolor="#666666" borderopacity="1.0" id="base" inkscape:current-layer="layer1" inkscape:cx="189.8797" inkscape:cy="13.792738" inkscape:document-units="mm" inkscape:pageopacity="0.0" inkscape:pageshadow="2" inkscape:window-height="1018" inkscape:window-maximized="1" inkscape:window-width="1920" inkscape:window-x="-8" inkscape:window-y="-8" inkscape:zoom="1.979899" pagecolor="#ffffff" showgrid="false">
	</sodipodi:namedview>
<path d="M61.3,62.4l-10.2-3.2c0,0-0.1-0.1-0.1-0.1l0.8-2.5c0,0,0.1-0.1,0.1-0.1l10.2,3.2c0,0,0.1,0.1,0.1,0.1l-0.8,2.5
	C61.4,62.4,61.4,62.5,61.3,62.4z"/>
<sodipodi:namedview  bordercolor="#666666" borderopacity="1.0" id="base" inkscape:current-layer="layer1" inkscape:cx="189.8797" inkscape:cy="13.792738" inkscape:document-units="mm" inkscape:pageopacity="0.0" inkscape:pageshadow="2" inkscape:window-height="1018" inkscape:window-maximized="1" inkscape:window-width="1920" inkscape:window-x="-8" inkscape:window-y="-8" inkscape:zoom="1.979899" pagecolor="#ffffff" showgrid="false">
	</sodipodi:namedview>
<g>
	<path d="M27.3,62.5c-1.8,0-3.5,0-5.1,0c-5.4,0-10.9,0-16.3,0c-0.5,0-1.1,0-1.6,0C2,62.4,2,62.3,2,59.6C2,48,2,36.4,2,24.8
		c0-3,3,0.6,1.6-1.9c-0.8-1.4,0.5-1.2,0.4-2.8c-0.3-3.1-1.7-9-0.7-6.1c2.4,6.6-1.5-2.7-1.2-3.1C2.9,9.3,1.4,7,2.2,8.5
		C2.6,9.4,2.2,3,2.4,4c0.3,1.7,1.3,2.9,2.7,3.1c0.4,0,1.1-0.4,1.3-0.9C6.9,5,7.1,3.8,7.3,2.5c0.2-1.4,0.8-2.2,2-2.5
		c1.2-0.3,1.6,0.7,2.1,1.6c0.4,0.8,0.5,1.8,0.8,2.7C12.4,5,12.6,5.7,13,6.1c1.8,1.9,3,1.5,3.6-1.3C16.8,4,16.9,3.1,17,2.2
		c0.2-1.3,1-2.2,2.1-2.1c0.7,0,1.6,0.8,1.8,1.4c0.8,2.8,2.2,5.4,1.4,8.5c-0.4,1.8,0.2,3.2,1.6,4.1c2.7,1.7,3.9,4.2,3.4,7.7
		c-0.1,0.5-0.1,1.1-0.1,1.7c0,1.9,2,2.4,2,2.4l2,1.9c0,0,0.2,1.4,0.3,2.1c0.2,1.7,1.3,3,2.7,3c0.4,0,1.1-0.5,1.2-0.9
		c0.4-1.3,0.5-2.8,0.9-4.2c0.2-0.7,0.6-6.7,0.6-6.7s1.8,5.6,2.8,5.5c1-0.1,1.1,2.1,1.3,3.2c0.3,1.7,1,2.8,2.4,3.4
		c0.4,0.2,0.8,1,0.8,1.6c0,1.5-0.2,3.1-0.3,4.7c0,2.1,0.9,3,2.7,2.3c1.2-0.4,2.3-1.1,3.5-1.5c2.3-0.9,3.4,0.4,3,3
		c-0.1,0.6-0.1,1.2-0.4,1.8c-1.2,3,0.9,8.3,0.9,8.3l2.7,1.2c0,0,3.1-1.4,3.7,2.4c0.1,0.6,0.2,1.2,0.2,1.8c0.1,2.5-0.8,3.6-2.9,3.7
		c-3.6,0.1-7.2,0-10.7,0c-1.7,0-3.3,0-5,0c-0.2-2.8-0.4-5.4-0.6-8.1c-0.5-6-5.2-8.1-8.8-8.6c-0.3,0-2.4-0.3-2.4-0.3l2.1-3.8
		l-4.3,2.7c0,0,0.9,3,0.6,4c-1.2,3.7-1,7.6-1,11.5C27.2,60.8,27.3,61.5,27.3,62.5z M11.4,46.9c0.1,0,0.2,0,0.2,0.1
		c0,0.7,0,1.4,0,2.2c0.1,2.2,1.2,3.5,3.2,3.6c2.1,0.1,3.5-1,3.5-3.2c0-3.2-0.4-6.4-0.8-9.6c-0.2-1.6-1.3-1.9-2.5-1.9
		c-1.2,0-2.3,0.3-2.6,2C12.1,42.3,11.7,44.6,11.4,46.9z M11.4,25.5c0.1,0,0.2,0,0.3,0.1c0,0.7,0,1.4,0,2.2c0.1,2.2,1.2,3.4,3.1,3.5
		c2.2,0.1,3.5-0.9,3.6-3.1c0.3-3.3,0.1-6.5-0.8-9.7c-0.4-1.6-1.5-1.7-2.6-1.8c-1.1,0-2.2,0.2-2.5,1.8C12.1,20.9,11.7,23.2,11.4,25.5
		z M50.1,54.9c-0.5-1.2-0.7-2.6-1.5-3.6c-0.5-0.6-1.8-1-2.4-0.6c-0.9,0.5-1.7,1.6-2.1,2.7c-0.2,0.5,0.6,1.6,1.1,2.3
		c0.7,1,1.6,1.8,2.2,2.7c0.6,0.9,1.1,0.9,1.5,0C49.4,57.3,49.7,56.2,50.1,54.9z"/>
</g>
<path d="M48.6,46.5l3.2-10.2c0,0,0.1-0.1,0.1-0.1l2.5,0.8c0,0,0.1,0.1,0.1,0.1l-3.2,10.2c0,0-0.1,0.1-0.1,0.1l-2.5-0.8
	C48.6,46.6,48.5,46.6,48.6,46.5z"/>
<path d="M51.9,45l-10.2-3.2c0,0-0.1-0.1-0.1-0.1l0.8-2.5c0,0,0.1-0.1,0.1-0.1l10.2,3.2c0,0,0.1,0.1,0.1,0.1L52,45
	C52,45,52,45,51.9,45z"/>
</svg>
