<?xml version="1.0" encoding="utf-8"?>
<!-- Generator: Adobe Illustrator 24.2.0, SVG Export Plug-In . SVG Version: 6.00 Build 0)  -->
<svg version="1.1" xmlns="http://www.w3.org/2000/svg" xmlns:xlink="http://www.w3.org/1999/xlink" x="0px" y="0px"
	 viewBox="0 0 103.57 122.18" style="enable-background:new 0 0 103.57 122.18;" xml:space="preserve">
<style type="text/css">
	.st0{fill:#1D1D1B;}
	.st1{fill:none;stroke:#1D1D1B;stroke-miterlimit:10;}
</style>
<g id="Layer_1">
</g>
<g id="Layer_2">
</g>
<g id="Layer_3">
</g>
<g id="Layer_4">
</g>
<g id="Layer_5">
</g>
<g id="Layer_6">
</g>
<g id="Layer_7">
</g>
<g id="Layer_8">
</g>
<g id="Layer_9">
</g>
<g id="Layer_10">
</g>
<g id="Layer_11">
</g>
<g id="Layer_13">
</g>
<g id="Layer_12">
</g>
<g id="Layer_14">
</g>
<g id="Layer_15">
</g>
<g id="Layer_16">
</g>
<g id="Layer_17">
</g>
<g id="Layer_18">
</g>
<g id="Layer_19">
</g>
<g id="Layer_20">
</g>
<g id="Layer_21">
	<path class="st0" d="M103.08,40.32c2.05-2.32-2.86-7.23-4.77-10.64c-1.91-3.41-2.18-8.86-6.55-10.23c-4.36-1.36-7.5-1.23-7.5-1.23
		s0.27-4.23-0.68-8.32c-0.95-4.09-10.5-8.86-18.82-9.82c-8.32-0.95-13.64,5.45-13.64,5.45c-3.82-4.77-15.93-5.5-23.54-0.07
		c-7.16,5.11-6.73,14.39-6.73,14.39s-7.5-1.64-11.86,5.45c-4.36,7.09,0.95,9.55-2.73,12c-3.68,2.45,0.95,4.09-3.55,6.31
		s-2.05,7.39-2.05,7.39C-1.79,61.45,6.26,67.6,6.26,67.6c0.41,5.45,5.73,7.5,5.73,7.5c2.05,5.05,7.09,3.14,7.09,3.14
		c-2.73,6.82,5.45,9.82,12,8.86c2.08-0.3,3.7-0.87,4.95-1.5l3.83,1.67l4.69,6.2l5.19,2.42c1.35,3.39,1.67,8.39-0.17,14.22
		c-1.84,5.83-5.78,12.07-5.78,12.07h25.57c-6.14-7.67-5.37-22.19-5.37-22.19l2.05-8.74l6.09-7.33c0.7-0.23,1.49-0.33,2.99,0.46
		c3.41,1.77,3-2.18,6-1.09c3,1.09,6.82-0.27,9.95-2.05c3.14-1.77,1.64-5.45,1.64-5.45s2.86-0.68,6.95-4.77
		c4.09-4.09-0.82-8.59-1.77-11.32s1.36-4.09,3.41-8.67c2.05-4.57-1.77-7.02-1.77-7.02S101.03,42.64,103.08,40.32z M54.94,88.19
		l-5.22,0.38l-4.04-4.43l-2.09-1.21c1.61-0.14,2.48-0.59,2.48-0.59c7.5-0.55,7.77-3.14,7.77-3.14c1.31,0.66,2.55,1.03,3.7,1.22
		l-1.82,3.28L54.94,88.19z M65.17,84.39l-1.84,1.37l-2.25,0.73l-0.62-2.26l1.07-3.16l0.07-0.65c1.78-0.32,2.86-0.95,2.86-0.95
		s0.39,1.69,1.95,3.13L65.17,84.39z"/>
</g>
<g id="Layer_22">
</g>
<g id="Layer_23">
</g>
<g id="Layer_24">
</g>
<g id="Layer_25">
</g>
<g id="Layer_30">
</g>
<g id="Layer_26">
</g>
<g id="Layer_27">
</g>
<g id="Layer_28">
</g>
<g id="Layer_29">
</g>
<g id="Layer_31">
</g>
</svg>
