<?xml version="1.0" encoding="utf-8"?>
<!-- Generator: Adobe Illustrator 21.0.0, SVG Export Plug-In . SVG Version: 6.00 Build 0)  -->
<svg version="1.1" id="Слой_1" xmlns="http://www.w3.org/2000/svg" xmlns:xlink="http://www.w3.org/1999/xlink" x="0px" y="0px"
	 viewBox="0 0 102.9 113.5" style="enable-background:new 0 0 102.9 113.5;" xml:space="preserve">
<g id="Layer_1">
</g>
<g id="Layer_2">
</g>
<g id="Layer_3">
</g>
<g id="Layer_4">
</g>
<g id="Layer_5">
</g>
<g id="Layer_6">
</g>
<g id="Layer_7">
</g>
<g id="Layer_8">
</g>
<g id="Layer_9">
</g>
<g id="Layer_10">
</g>
<g id="Layer_11">
</g>
<g id="Layer_13">
</g>
<g id="Layer_12">
</g>
<g id="Layer_14">
</g>
<g id="Layer_15">
</g>
<g id="Layer_16">
</g>
<g id="Layer_17">
</g>
<g id="Layer_18">
</g>
<g id="Layer_19">
</g>
<g id="Layer_21">
</g>
<g id="Layer_22">
</g>
<g id="Layer_23">
</g>
<g id="Layer_24">
</g>
<g id="Layer_25">
</g>
<g id="Layer_30">
</g>
<g id="Layer_26">
</g>
<g id="Layer_27">
</g>
<g id="Layer_28">
</g>
<g id="Layer_29">
</g>
<g id="Layer_31">
</g>
<g>
	<path d="M67.6,38.9c4.4,10,8.5,19.5,12.8,29.3c-2.2,0-9.8-0.2-12.1-0.2c4.2,9.7,13.9,19.1,18.1,28.7c-23.4,0-46.5,0-70,0
		c4.1-9.5,15.4-18.5,19.5-28c-2.1,0-11.3-0.1-13.6-0.1c4.4-10,8.5-19.5,12.8-29.5L51.5,0L67.6,38.9z"/>
	<path d="M42,113.5c0-3.8,0-7.5,0-11.3c6.3,0,12.5,0,18.9,0c0,3.7,0,7.4,0,11.3C54.7,113.5,48.4,113.5,42,113.5z"/>
</g>
</svg>
