<?xml version="1.0" encoding="utf-8"?>
<!-- Generator: Adobe Illustrator 21.0.0, SVG Export Plug-In . SVG Version: 6.00 Build 0)  -->
<svg version="1.1"
	 id="Слой_1" xmlns:krita="http://krita.org/namespaces/svg/krita" xmlns:sodipodi="http://sodipodi.sourceforge.net/DTD/sodipodi-0.dtd"
	 xmlns="http://www.w3.org/2000/svg" xmlns:xlink="http://www.w3.org/1999/xlink" x="0px" y="0px" viewBox="0 0 272.2 272.2"
	 style="enable-background:new 0 0 272.2 272.2;" xml:space="preserve">
<style type="text/css">
	.st0{fill-rule:evenodd;clip-rule:evenodd;}
</style>
<g id="XMLID_1_">
</g>
<g id="XMLID_2_">
	<path class="st0" d="M258.1,121c0,36.7-16.9,71.3-45.8,94v26.5c-0.1,16.7-13.8,30.2-30.5,30.1H90.3c-16.7,0.1-30.4-13.4-30.5-30.1
		V215c-28.8-22.7-45.7-57.3-45.8-94c0.4-67,55-120.9,122-120.5c8.6-0.1,17,0.8,25.1,2.4l-24.1,13.1c-7.7,4.2-0.4,19.3,11.9,24.7
		l16.3,7.1c1.7,0.7,2.9,2.7,2.2,3.6l-38.6,53.4c-1.1,1.5,2.3,4.7,3.9,3.7l89.9-54.9c5.7-3.5-0.5-15-9.9-18.5l-21-7.7
		c-1.8-0.6-3.1-2.8-2.4-3.7l6.2-8C232.7,36.3,257.8,75.7,258.1,121z M203.9,149.7c0-15-12.1-27.1-27.1-27.1
		c-15,0-27.1,12.1-27.1,27.1c0,15,12.1,27.1,27.1,27.1C191.7,176.8,203.9,164.6,203.9,149.7z M176.8,244.6v-27.1
		c0-7.5-6.1-13.5-13.6-13.5c-7.5,0-13.6,6.1-13.6,13.5v27.1H176.8z M122.5,244.6v-27.1c0-7.5-6.1-13.5-13.6-13.5
		c-7.5,0-13.6,6.1-13.6,13.5v27.1H122.5z M122.5,149.7c0-15-12.1-27.1-27.1-27.1c-15,0-27.1,12.1-27.1,27.1
		c0,15,12.1,27.1,27.1,27.1C110.4,176.8,122.5,164.6,122.5,149.7z"/>
</g>
</svg>
